<svg width="180" height="53" viewBox="0 0 180 53" fill="none" xmlns="http://www.w3.org/2000/svg">
<path d="M179 46.1743C179 48.9454 176.709 51.1901 173.874 51.1901H6.13243C3.2995 51.1901 1 48.9454 1 46.1743V6.17471C1 3.40488 3.2995 1.15234 6.13243 1.15234H173.873C176.709 1.15234 178.999 3.40488 178.999 6.17471L179 46.1743Z" fill="black"/>
<path d="M173.333 1.2135C176.42 1.2135 178.932 3.66238 178.932 6.67188V45.6719C178.932 48.6814 176.42 51.1303 173.333 51.1303H6.66667C3.58 51.1303 1.06833 48.6814 1.06833 45.6719V6.67188C1.06833 3.66238 3.58 1.2135 6.66667 1.2135H173.333ZM173.333 0.171878H6.66667C3.00167 0.171878 0 3.0985 0 6.67188V45.6719C0 49.2453 3.00167 52.1719 6.66667 52.1719H173.333C176.998 52.1719 180 49.2453 180 45.6719V6.67188C180 3.0985 176.998 0.171878 173.333 0.171878Z" fill="#A6A6A6"/>
<path d="M40.1714 25.891C40.1328 21.7011 43.6901 19.6627 43.8528 19.5678C41.8381 16.7039 38.7154 16.3126 37.6181 16.2814C34.9954 16.0123 32.4514 17.8115 31.1154 17.8115C29.7528 17.8115 27.6954 16.3074 25.4781 16.3516C22.6248 16.3945 19.9554 18.0052 18.4914 20.5064C15.4701 25.6063 17.7234 33.1008 20.6181 37.2231C22.0661 39.242 23.7581 41.4962 25.9728 41.4169C28.1394 41.3298 28.9488 40.0701 31.5634 40.0701C34.1541 40.0701 34.9141 41.4169 37.1728 41.3662C39.4981 41.3298 40.9621 39.3382 42.3594 37.3011C44.0328 34.9871 44.7048 32.7082 44.7314 32.5912C44.6768 32.573 40.2154 30.9129 40.1714 25.891Z" fill="white"/>
<path d="M35.9048 13.5696C37.0701 12.1487 37.8674 10.2156 37.6461 8.25391C35.9594 8.32671 33.8501 9.39141 32.6354 10.7811C31.5608 12.0057 30.6008 14.0129 30.8488 15.9005C32.7434 16.0383 34.6888 14.9684 35.9048 13.5696Z" fill="white"/>
<path d="M65.3997 13.1842C65.3997 14.7143 64.9291 15.8661 63.989 16.6396C63.1184 17.3533 61.881 17.7108 60.2784 17.7108C59.4837 17.7108 58.8037 17.677 58.2344 17.6094V9.24907C58.977 9.13207 59.777 9.07227 60.641 9.07227C62.1677 9.07227 63.3184 9.39597 64.0944 10.0434C64.9637 10.7753 65.3997 11.8218 65.3997 13.1842ZM63.9264 13.2219C63.9264 12.23 63.657 11.4695 63.1184 10.9391C62.5797 10.41 61.793 10.1448 60.757 10.1448C60.317 10.1448 59.9424 10.1734 59.6317 10.2332V16.5889C59.8037 16.6149 60.1184 16.6266 60.5757 16.6266C61.645 16.6266 62.4704 16.3367 63.0517 15.7569C63.6331 15.1771 63.9264 14.3321 63.9264 13.2219Z" fill="white"/>
<path d="M73.2126 14.521C73.2126 15.4635 72.9366 16.2357 72.3846 16.8415C71.806 17.4642 71.0393 17.7749 70.082 17.7749C69.1593 17.7749 68.4246 17.4772 67.8766 16.8792C67.33 16.2825 67.0566 15.5298 67.0566 14.6224C67.0566 13.6734 67.338 12.8947 67.9033 12.2902C68.4686 11.6857 69.2286 11.3828 70.186 11.3828C71.1086 11.3828 71.85 11.6805 72.4113 12.2772C72.9446 12.857 73.2126 13.6058 73.2126 14.521ZM71.7633 14.5652C71.7633 13.9997 71.638 13.5148 71.3886 13.1105C71.0953 12.6217 70.678 12.3773 70.1353 12.3773C69.574 12.3773 69.1473 12.6217 68.854 13.1105C68.6033 13.5148 68.4793 14.0075 68.4793 14.5899C68.4793 15.1554 68.6046 15.6403 68.854 16.0446C69.1566 16.5334 69.578 16.7778 70.122 16.7778C70.6553 16.7778 71.074 16.5295 71.3753 16.0316C71.634 15.6195 71.7633 15.1307 71.7633 14.5652Z" fill="white"/>
<path d="M83.6867 11.5078L81.7201 17.636H80.4401L79.6254 14.9749C79.4187 14.3106 79.2507 13.6502 79.1201 12.995H79.0947C78.9734 13.6684 78.8054 14.3275 78.5894 14.9749L77.7241 17.636H76.4294L74.5801 11.5078H76.0161L76.7267 14.4211C76.8987 15.1101 77.0401 15.7666 77.1534 16.388H77.1787C77.2827 15.8758 77.4547 15.2232 77.6974 14.4341L78.5894 11.5091H79.7281L80.5827 14.3717C80.7894 15.0698 80.9574 15.7419 81.0867 16.3893H81.1254C81.2201 15.7588 81.3627 15.0867 81.5521 14.3717L82.3147 11.5091H83.6867V11.5078Z" fill="white"/>
<path d="M90.9312 17.6358H89.5339V14.1258C89.5339 13.0442 89.1125 12.5034 88.2672 12.5034C87.8525 12.5034 87.5179 12.6516 87.2579 12.9493C87.0005 13.247 86.8699 13.598 86.8699 13.9997V17.6345H85.4725V13.2587C85.4725 12.7205 85.4552 12.1368 85.4219 11.505H86.6499L86.7152 12.4631H86.7539C86.9165 12.1654 87.1592 11.9197 87.4779 11.7234C87.8565 11.4946 88.2805 11.3789 88.7445 11.3789C89.3312 11.3789 89.8192 11.5635 90.2072 11.934C90.6899 12.3877 90.9312 13.065 90.9312 13.9646V17.6358Z" fill="white"/>
<path d="M94.7847 17.6354H93.3887V8.69531H94.7847V17.6354Z" fill="white"/>
<path d="M103.01 14.521C103.01 15.4635 102.734 16.2357 102.182 16.8415C101.603 17.4642 100.835 17.7749 99.8789 17.7749C98.9549 17.7749 98.2202 17.4772 97.6735 16.8792C97.1268 16.2825 96.8535 15.5298 96.8535 14.6224C96.8535 13.6734 97.1349 12.8947 97.7002 12.2902C98.2655 11.6857 99.0255 11.3828 99.9815 11.3828C100.906 11.3828 101.646 11.6805 102.208 12.2772C102.742 12.857 103.01 13.6058 103.01 14.521ZM101.559 14.5652C101.559 13.9997 101.434 13.5148 101.184 13.1105C100.892 12.6217 100.474 12.3773 99.9322 12.3773C99.3695 12.3773 98.9428 12.6217 98.6508 13.1105C98.4002 13.5148 98.2762 14.0075 98.2762 14.5899C98.2762 15.1554 98.4015 15.6403 98.6508 16.0446C98.9535 16.5334 99.3749 16.7778 99.9189 16.7778C100.452 16.7778 100.87 16.5295 101.171 16.0316C101.431 15.6195 101.559 15.1307 101.559 14.5652Z" fill="white"/>
<path d="M109.773 17.6358H108.519L108.415 16.9299H108.376C107.947 17.4928 107.335 17.7749 106.54 17.7749C105.947 17.7749 105.467 17.589 105.105 17.2198C104.777 16.8844 104.613 16.4671 104.613 15.9718C104.613 15.223 104.933 14.6523 105.577 14.2571C106.22 13.8619 107.124 13.6682 108.288 13.6773V13.5629C108.288 12.7556 107.853 12.3526 106.983 12.3526C106.363 12.3526 105.816 12.5047 105.344 12.8063L105.06 11.9119C105.644 11.5596 106.365 11.3828 107.216 11.3828C108.859 11.3828 109.683 12.2278 109.683 13.9178V16.1746C109.683 16.7869 109.713 17.2744 109.773 17.6358ZM108.323 15.5298V14.5847C106.781 14.5587 106.011 14.9708 106.011 15.8197C106.011 16.1395 106.099 16.3787 106.279 16.5386C106.459 16.6985 106.688 16.7778 106.961 16.7778C107.268 16.7778 107.555 16.6829 107.816 16.4944C108.079 16.3046 108.24 16.0641 108.3 15.769C108.315 15.7027 108.323 15.6221 108.323 15.5298Z" fill="white"/>
<path d="M117.713 17.6354H116.473L116.408 16.6513H116.369C115.973 17.4001 115.298 17.7745 114.35 17.7745C113.593 17.7745 112.962 17.4846 112.462 16.9048C111.962 16.325 111.713 15.5723 111.713 14.648C111.713 13.6561 111.984 12.8527 112.528 12.2391C113.054 11.6671 113.7 11.3811 114.468 11.3811C115.312 11.3811 115.902 11.658 116.238 12.2131H116.265V8.69531H117.664V15.9844C117.664 16.5811 117.68 17.131 117.713 17.6354ZM116.265 15.051V14.0292C116.265 13.8524 116.252 13.7094 116.226 13.6002C116.148 13.2726 115.978 12.997 115.721 12.7747C115.461 12.5524 115.148 12.4406 114.786 12.4406C114.265 12.4406 113.857 12.6421 113.557 13.0464C113.26 13.4507 113.109 13.9668 113.109 14.5973C113.109 15.2031 113.252 15.6945 113.538 16.0728C113.841 16.4758 114.249 16.6773 114.76 16.6773C115.218 16.6773 115.585 16.5096 115.864 16.1729C116.133 15.8622 116.265 15.4878 116.265 15.051Z" fill="white"/>
<path d="M129.664 14.521C129.664 15.4635 129.388 16.2357 128.836 16.8415C128.257 17.4642 127.492 17.7749 126.533 17.7749C125.612 17.7749 124.877 17.4772 124.328 16.8792C123.781 16.2825 123.508 15.5298 123.508 14.6224C123.508 13.6734 123.789 12.8947 124.354 12.2902C124.92 11.6857 125.68 11.3828 126.638 11.3828C127.56 11.3828 128.302 11.6805 128.862 12.2772C129.396 12.857 129.664 13.6058 129.664 14.521ZM128.216 14.5652C128.216 13.9997 128.09 13.5148 127.841 13.1105C127.546 12.6217 127.13 12.3773 126.586 12.3773C126.026 12.3773 125.6 12.6217 125.305 13.1105C125.054 13.5148 124.93 14.0075 124.93 14.5899C124.93 15.1554 125.056 15.6403 125.305 16.0446C125.608 16.5334 126.029 16.7778 126.573 16.7778C127.106 16.7778 127.526 16.5295 127.828 16.0316C128.085 15.6195 128.216 15.1307 128.216 14.5652Z" fill="white"/>
<path d="M137.178 17.6358H135.782V14.1258C135.782 13.0442 135.361 12.5034 134.514 12.5034C134.099 12.5034 133.765 12.6516 133.506 12.9493C133.247 13.247 133.118 13.598 133.118 13.9997V17.6345H131.719V13.2587C131.719 12.7205 131.703 12.1368 131.67 11.505H132.897L132.962 12.4631H133.001C133.165 12.1654 133.407 11.9197 133.725 11.7234C134.105 11.4946 134.527 11.3789 134.993 11.3789C135.578 11.3789 136.066 11.5635 136.454 11.934C136.938 12.3877 137.178 13.065 137.178 13.9646V17.6358Z" fill="white"/>
<path d="M146.582 12.5272H145.043V15.5042C145.043 16.2608 145.317 16.6391 145.858 16.6391C146.109 16.6391 146.317 16.6183 146.481 16.5754L146.517 17.6089C146.241 17.7103 145.878 17.761 145.431 17.761C144.879 17.761 144.45 17.5972 144.139 17.2696C143.827 16.942 143.673 16.3908 143.673 15.6173V12.5272H142.754V11.5067H143.673V10.3835L145.042 9.98047V11.5054H146.581V12.5272H146.582Z" fill="white"/>
<path d="M153.978 17.6354H152.58V14.1514C152.58 13.0529 152.158 12.503 151.314 12.503C150.666 12.503 150.224 12.8215 149.981 13.4585C149.94 13.5924 149.916 13.7562 149.916 13.9486V17.6341H148.52V8.69531H149.916V12.3886H149.942C150.382 11.7165 151.013 11.3811 151.83 11.3811C152.409 11.3811 152.888 11.5657 153.268 11.9362C153.741 12.3977 153.978 13.0841 153.978 13.9915V17.6354Z" fill="white"/>
<path d="M161.609 14.2818C161.609 14.5262 161.591 14.7316 161.557 14.8993H157.367C157.385 15.5051 157.585 15.9666 157.973 16.2864C158.328 16.5724 158.785 16.7154 159.345 16.7154C159.965 16.7154 160.531 16.6192 161.04 16.4255L161.259 17.3719C160.663 17.6241 159.961 17.7502 159.149 17.7502C158.176 17.7502 157.409 17.4707 156.855 16.9117C156.297 16.3527 156.021 15.6026 156.021 14.6614C156.021 13.7371 156.279 12.9675 156.797 12.3539C157.339 11.6987 158.071 11.3711 158.995 11.3711C159.899 11.3711 160.585 11.6987 161.049 12.3539C161.424 12.8739 161.609 13.5174 161.609 14.2818ZM160.276 13.9295C160.287 13.5252 160.195 13.1768 160.005 12.883C159.763 12.5047 159.393 12.3149 158.893 12.3149C158.437 12.3149 158.065 12.4995 157.781 12.87C157.549 13.1651 157.412 13.5174 157.367 13.9295H160.276Z" fill="white"/>
<path d="M71.5269 41.1266H68.4989L66.8402 36.0449H61.0749L59.4949 41.1266H56.5469L62.2589 23.8262H65.7869L71.5269 41.1266ZM66.3402 33.9129L64.8402 29.3954C64.6815 28.9339 64.3842 27.8471 63.9455 26.1363H63.8922C63.7175 26.8721 63.4362 27.9589 63.0495 29.3954L61.5762 33.9129H66.3402Z" fill="white"/>
<path d="M86.2159 34.7346C86.2159 36.8562 85.6279 38.5332 84.4519 39.7643C83.3985 40.8602 82.0905 41.4075 80.5292 41.4075C78.8439 41.4075 77.6332 40.8173 76.8959 39.6369H76.8425V46.2084H73.9999V32.7573C73.9999 31.4235 73.9639 30.0546 73.8945 28.6506H76.3945L76.5532 30.6279H76.6065C77.5545 29.1381 78.9932 28.3945 80.9239 28.3945C82.4332 28.3945 83.6932 28.9756 84.7012 30.1391C85.7119 31.3039 86.2159 32.8353 86.2159 34.7346ZM83.3199 34.836C83.3199 33.6218 83.0399 32.6208 82.4772 31.833C81.8625 31.0114 81.0372 30.6006 80.0025 30.6006C79.3012 30.6006 78.6639 30.8294 78.0945 31.2805C77.5239 31.7355 77.1505 32.3296 76.9759 33.0654C76.8879 33.4086 76.8439 33.6894 76.8439 33.9104V35.9904C76.8439 36.8978 77.1292 37.6635 77.6999 38.2888C78.2705 38.9141 79.0119 39.2261 79.9239 39.2261C80.9945 39.2261 81.8279 38.8231 82.4239 38.0197C83.0212 37.215 83.3199 36.1542 83.3199 34.836Z" fill="white"/>
<path d="M100.931 34.7346C100.931 36.8562 100.343 38.5332 99.166 39.7643C98.114 40.8602 96.806 41.4075 95.2447 41.4075C93.5593 41.4075 92.3487 40.8173 91.6127 39.6369H91.5593V46.2084H88.7167V32.7573C88.7167 31.4235 88.6807 30.0546 88.6113 28.6506H91.1113L91.27 30.6279H91.3233C92.27 29.1381 93.7087 28.3945 95.6407 28.3945C97.1487 28.3945 98.4087 28.9756 99.4193 30.1391C100.426 31.3039 100.931 32.8353 100.931 34.7346ZM98.0353 34.836C98.0353 33.6218 97.754 32.6208 97.1913 31.833C96.5767 31.0114 95.754 30.6006 94.718 30.6006C94.0153 30.6006 93.3793 30.8294 92.8087 31.2805C92.238 31.7355 91.866 32.3296 91.6913 33.0654C91.6047 33.4086 91.5593 33.6894 91.5593 33.9104V35.9904C91.5593 36.8978 91.8447 37.6635 92.4127 38.2888C92.9833 38.9128 93.7247 39.2261 94.6393 39.2261C95.71 39.2261 96.5433 38.8231 97.1393 38.0197C97.7367 37.215 98.0353 36.1542 98.0353 34.836Z" fill="white"/>
<path d="M117.385 36.2746C117.385 37.7462 116.861 38.9435 115.809 39.8678C114.653 40.8779 113.044 41.3823 110.976 41.3823C109.066 41.3823 107.536 41.0235 106.377 40.3046L107.036 37.9945C108.284 38.7303 109.653 39.0995 111.145 39.0995C112.216 39.0995 113.049 38.8629 113.648 38.3923C114.244 37.9217 114.541 37.2899 114.541 36.5021C114.541 35.8001 114.296 35.2086 113.804 34.7289C113.314 34.2492 112.497 33.8033 111.356 33.3912C108.249 32.2615 106.697 30.6066 106.697 28.4304C106.697 27.0082 107.241 25.8421 108.33 24.9347C109.416 24.026 110.864 23.5723 112.674 23.5723C114.289 23.5723 115.63 23.8466 116.701 24.3939L115.99 26.6533C114.99 26.1229 113.86 25.8577 112.594 25.8577C111.594 25.8577 110.813 26.0982 110.253 26.5766C109.78 27.0043 109.542 27.5256 109.542 28.1431C109.542 28.8269 109.813 29.3924 110.357 29.837C110.83 30.2478 111.69 30.6924 112.938 31.1721C114.465 31.7714 115.586 32.4721 116.308 33.2755C117.026 34.0763 117.385 35.0786 117.385 36.2746Z" fill="white"/>
<path d="M126.784 30.7313H123.651V36.788C123.651 38.3285 124.203 39.0981 125.31 39.0981C125.818 39.0981 126.239 39.0552 126.572 38.9694L126.651 41.0741C126.091 41.2782 125.354 41.3809 124.44 41.3809C123.318 41.3809 122.44 41.0468 121.807 40.3799C121.176 39.7117 120.859 38.5911 120.859 37.0168V30.7287H118.992V28.6487H120.859V26.3646L123.651 25.543V28.6487H126.784V30.7313Z" fill="white"/>
<path d="M140.921 34.786C140.921 36.7035 140.358 38.2778 139.235 39.5089C138.058 40.7764 136.495 41.4082 134.547 41.4082C132.67 41.4082 131.175 40.8011 130.061 39.5869C128.946 38.3727 128.389 36.84 128.389 34.9927C128.389 33.0596 128.962 31.4762 130.113 30.2451C131.261 29.0127 132.81 28.3965 134.758 28.3965C136.635 28.3965 138.146 29.0036 139.286 30.2191C140.377 31.3982 140.921 32.9205 140.921 34.786ZM137.971 34.8757C137.971 33.7252 137.719 32.7385 137.209 31.9156C136.613 30.9198 135.761 30.4232 134.657 30.4232C133.514 30.4232 132.646 30.9211 132.05 31.9156C131.539 32.7398 131.287 33.7421 131.287 34.9277C131.287 36.0782 131.539 37.0649 132.05 37.8865C132.665 38.8823 133.523 39.3789 134.631 39.3789C135.717 39.3789 136.569 38.8719 137.183 37.8605C137.707 37.022 137.971 36.0249 137.971 34.8757Z" fill="white"/>
<path d="M150.162 31.0881C149.88 31.0374 149.58 31.0114 149.266 31.0114C148.266 31.0114 147.492 31.3793 146.948 32.1164C146.475 32.7664 146.238 33.588 146.238 34.5799V41.1254H143.396L143.423 32.5792C143.423 31.1414 143.387 29.8323 143.316 28.6519H145.792L145.896 31.0387H145.975C146.275 30.2184 146.748 29.558 147.396 29.0627C148.03 28.6168 148.714 28.3945 149.451 28.3945C149.714 28.3945 149.951 28.4127 150.162 28.4452V31.0881Z" fill="white"/>
<path d="M162.875 34.2978C162.875 34.7944 162.841 35.213 162.771 35.5549H154.243C154.276 36.7873 154.688 37.7298 155.48 38.3798C156.199 38.9609 157.128 39.2521 158.269 39.2521C159.532 39.2521 160.684 39.0558 161.72 38.6619L162.165 40.5859C160.955 41.1007 159.525 41.3568 157.876 41.3568C155.892 41.3568 154.335 40.7874 153.201 39.6499C152.071 38.5124 151.504 36.9849 151.504 35.0687C151.504 33.1876 152.031 31.6211 153.085 30.3718C154.189 29.038 155.681 28.3711 157.559 28.3711C159.403 28.3711 160.799 29.038 161.747 30.3718C162.497 31.4313 162.875 32.7417 162.875 34.2978ZM160.164 33.5789C160.183 32.7573 159.997 32.0475 159.612 31.4482C159.12 30.6773 158.364 30.2925 157.347 30.2925C156.417 30.2925 155.661 30.6682 155.084 31.4222C154.611 32.0215 154.329 32.7404 154.243 33.5776H160.164V33.5789Z" fill="white"/>
</svg>
