<svg width="153" height="45" viewBox="0 0 153 45" fill="none" xmlns="http://www.w3.org/2000/svg">
<path d="M151.461 39.9021C151.461 42.2469 149.522 44.1463 147.124 44.1463H5.18853C2.79143 44.1463 0.845703 42.2469 0.845703 39.9021V6.05634C0.845703 3.71263 2.79143 1.80664 5.18853 1.80664H147.123C149.522 1.80664 151.46 3.71263 151.46 6.05634L151.461 39.9021Z" fill="white"/>
<path d="M146.667 1.85794C149.278 1.85794 151.404 3.93007 151.404 6.47657V39.4766C151.404 42.0231 149.278 44.0952 146.667 44.0952H5.64103C3.02923 44.0952 0.903974 42.0231 0.903974 39.4766V6.47657C0.903974 3.93007 3.02923 1.85794 5.64103 1.85794H146.667ZM146.667 0.976566H5.64103C2.53987 0.976566 0 3.45294 0 6.47657V39.4766C0 42.5002 2.53987 44.9766 5.64103 44.9766H146.667C149.768 44.9766 152.308 42.5002 152.308 39.4766V6.47657C152.308 3.45294 149.768 0.976566 146.667 0.976566Z" fill="#A6A6A6"/>
<path d="M33.9903 22.7382C33.9576 19.1929 36.9676 17.4681 37.1053 17.3878C35.4006 14.9645 32.7583 14.6334 31.8298 14.607C29.6106 14.3793 27.458 15.9017 26.3275 15.9017C25.1745 15.9017 23.4337 14.629 21.5575 14.6664C19.1431 14.7027 16.8845 16.0656 15.6457 18.182C13.0892 22.4973 14.9959 28.8388 17.4452 32.3268C18.6704 34.0351 20.1021 35.9426 21.9761 35.8754C23.8094 35.8018 24.4942 34.7358 26.7066 34.7358C28.8987 34.7358 29.5418 35.8754 31.453 35.8326C33.4206 35.8018 34.6593 34.1166 35.8417 32.3929C37.2576 30.4349 37.8262 28.5066 37.8488 28.4076C37.8025 28.3922 34.0275 26.9875 33.9903 22.7382Z" fill="black"/>
<path d="M30.3801 12.3124C31.3661 11.1101 32.0408 9.47435 31.8535 7.81445C30.4263 7.87605 28.6415 8.77695 27.6137 9.95285C26.7044 10.9891 25.8921 12.6875 26.1019 14.2847C27.7051 14.4013 29.3511 13.496 30.3801 12.3124Z" fill="black"/>
<path d="M55.3384 11.9852C55.3384 13.2799 54.9401 14.2545 54.1447 14.909C53.408 15.5129 52.361 15.8154 51.0049 15.8154C50.3325 15.8154 49.7571 15.7868 49.2754 15.7296V8.65546C49.9038 8.55646 50.5807 8.50586 51.3118 8.50586C52.6036 8.50586 53.5772 8.77976 54.2339 9.32756C54.9694 9.94686 55.3384 10.8324 55.3384 11.9852ZM54.0917 12.0171C54.0917 11.1778 53.8638 10.5343 53.408 10.0855C52.9522 9.63776 52.2866 9.41336 51.41 9.41336C51.0377 9.41336 50.7206 9.43756 50.4578 9.48816V14.8661C50.6033 14.8881 50.8695 14.898 51.2565 14.898C52.1613 14.898 52.8597 14.6527 53.3516 14.1621C53.8435 13.6715 54.0917 12.9565 54.0917 12.0171Z" fill="black"/>
<path d="M61.9482 13.1163C61.9482 13.9138 61.7146 14.5672 61.2476 15.0798C60.7579 15.6067 60.1092 15.8696 59.2992 15.8696C58.5184 15.8696 57.8968 15.6177 57.4331 15.1117C56.9705 14.6068 56.7393 13.9699 56.7393 13.2021C56.7393 12.3991 56.9773 11.7402 57.4557 11.2287C57.934 10.7172 58.5771 10.4609 59.3872 10.4609C60.1679 10.4609 60.7952 10.7128 61.2701 11.2177C61.7214 11.7083 61.9482 12.3419 61.9482 13.1163ZM60.7218 13.1537C60.7218 12.6752 60.6158 12.2649 60.4048 11.9228C60.1566 11.5092 59.8035 11.3024 59.3443 11.3024C58.8693 11.3024 58.5083 11.5092 58.2601 11.9228C58.048 12.2649 57.9431 12.6818 57.9431 13.1746C57.9431 13.6531 58.0491 14.0634 58.2601 14.4055C58.5162 14.8191 58.8727 15.0259 59.333 15.0259C59.7843 15.0259 60.1385 14.8158 60.3935 14.3945C60.6124 14.0458 60.7218 13.6322 60.7218 13.1537Z" fill="black"/>
<path d="M70.8121 10.5664L69.148 15.7518H68.0649L67.3756 13.5001C67.2007 12.938 67.0585 12.3792 66.948 11.8248H66.9265C66.8239 12.3946 66.6817 12.9523 66.499 13.5001L65.7667 15.7518H64.6713L63.1064 10.5664H64.3215L64.9229 13.0315C65.0684 13.6145 65.188 14.17 65.2839 14.6958H65.3053C65.3933 14.2624 65.5389 13.7102 65.7442 13.0425L66.499 10.5675H67.4624L68.1856 12.9897C68.3605 13.5804 68.5026 14.1491 68.6121 14.6969H68.6448C68.7249 14.1634 68.8456 13.5947 69.0058 12.9897L69.6512 10.5675H70.8121V10.5664Z" fill="black"/>
<path d="M76.941 15.7513H75.7587V12.7813C75.7587 11.8661 75.4022 11.4085 74.6869 11.4085C74.336 11.4085 74.0528 11.5339 73.8328 11.7858C73.6151 12.0377 73.5045 12.3347 73.5045 12.6746V15.7502H72.3222V12.0476C72.3222 11.5922 72.3075 11.0983 72.2793 10.5637H73.3184L73.3737 11.3744H73.4064C73.544 11.1225 73.7493 10.9146 74.019 10.7485C74.3394 10.5549 74.6982 10.457 75.0908 10.457C75.5872 10.457 76.0001 10.6132 76.3284 10.9267C76.7368 11.3106 76.941 11.8837 76.941 12.6449V15.7513Z" fill="black"/>
<path d="M80.2017 15.7522H79.0205V8.1875H80.2017V15.7522Z" fill="black"/>
<path d="M87.163 13.1163C87.163 13.9138 86.9295 14.5672 86.4624 15.0798C85.9728 15.6067 85.3229 15.8696 84.514 15.8696C83.7322 15.8696 83.1105 15.6177 82.6479 15.1117C82.1854 14.6068 81.9541 13.9699 81.9541 13.2021C81.9541 12.3991 82.1922 11.7402 82.6705 11.2287C83.1489 10.7172 83.7919 10.4609 84.6009 10.4609C85.3827 10.4609 86.0089 10.7128 86.485 11.2177C86.9362 11.7083 87.163 12.3419 87.163 13.1163ZM85.9355 13.1537C85.9355 12.6752 85.8295 12.2649 85.6185 11.9228C85.3714 11.5092 85.0172 11.3024 84.5591 11.3024C84.083 11.3024 83.722 11.5092 83.4749 11.9228C83.2628 12.2649 83.1579 12.6818 83.1579 13.1746C83.1579 13.6531 83.2639 14.0634 83.4749 14.4055C83.731 14.8191 84.0875 15.0259 84.5478 15.0259C84.9991 15.0259 85.3523 14.8158 85.6072 14.3945C85.8272 14.0458 85.9355 13.6322 85.9355 13.1537Z" fill="black"/>
<path d="M92.8847 15.7519H91.8231L91.7351 15.1546H91.7023C91.3391 15.6309 90.8212 15.8696 90.1488 15.8696C89.6468 15.8696 89.2406 15.7123 88.9349 15.3999C88.6573 15.1161 88.5186 14.763 88.5186 14.3439C88.5186 13.7103 88.7893 13.2274 89.3342 12.893C89.878 12.5586 90.643 12.3947 91.6279 12.4024V12.3056C91.6279 11.6225 91.2601 11.2815 90.5234 11.2815C89.9988 11.2815 89.5362 11.4102 89.1368 11.6654L88.8965 10.9086C89.3907 10.6105 90.001 10.4609 90.7208 10.4609C92.1108 10.4609 92.808 11.1759 92.808 12.6059V14.5155C92.808 15.0336 92.8339 15.4461 92.8847 15.7519ZM91.6572 13.9699V13.1702C90.353 13.1482 89.7009 13.4969 89.7009 14.2152C89.7009 14.4858 89.7754 14.6882 89.9277 14.8235C90.08 14.9588 90.274 15.0259 90.5053 15.0259C90.7648 15.0259 91.0074 14.9456 91.2285 14.7861C91.4508 14.6255 91.5873 14.422 91.638 14.1723C91.6504 14.1162 91.6572 14.048 91.6572 13.9699Z" fill="black"/>
<path d="M99.6033 15.7522H98.5541L98.4988 14.9195H98.466C98.131 15.5531 97.5601 15.8699 96.7579 15.8699C96.1171 15.8699 95.5835 15.6246 95.1604 15.134C94.7373 14.6434 94.5264 14.0065 94.5264 13.2244C94.5264 12.3851 94.7554 11.7053 95.2157 11.1861C95.6613 10.7021 96.2074 10.4601 96.8572 10.4601C97.5714 10.4601 98.0712 10.6944 98.3555 11.1641H98.378V8.1875H99.5615V14.3552C99.5615 14.8601 99.5751 15.3254 99.6033 15.7522ZM98.378 13.5654V12.7008C98.378 12.5512 98.3668 12.4302 98.3453 12.3378C98.2788 12.0606 98.1355 11.8274 97.9177 11.6393C97.6977 11.4512 97.4326 11.3566 97.1269 11.3566C96.6857 11.3566 96.3405 11.5271 96.0867 11.8692C95.8351 12.2113 95.7076 12.648 95.7076 13.1815C95.7076 13.6941 95.8283 14.1099 96.0709 14.43C96.327 14.771 96.6722 14.9415 97.1043 14.9415C97.4924 14.9415 97.8027 14.7996 98.0385 14.5147C98.2664 14.2518 98.378 13.935 98.378 13.5654Z" fill="black"/>
<path d="M109.716 13.1163C109.716 13.9138 109.482 14.5672 109.015 15.0798C108.526 15.6067 107.878 15.8696 107.067 15.8696C106.287 15.8696 105.666 15.6177 105.201 15.1117C104.738 14.6068 104.507 13.9699 104.507 13.2021C104.507 12.3991 104.745 11.7402 105.223 11.2287C105.702 10.7172 106.345 10.4609 107.156 10.4609C107.935 10.4609 108.564 10.7128 109.038 11.2177C109.489 11.7083 109.716 12.3419 109.716 13.1163ZM108.491 13.1537C108.491 12.6752 108.384 12.2649 108.173 11.9228C107.924 11.5092 107.572 11.3024 107.112 11.3024C106.638 11.3024 106.277 11.5092 106.028 11.9228C105.816 12.2649 105.711 12.6818 105.711 13.1746C105.711 13.6531 105.817 14.0634 106.028 14.4055C106.284 14.8191 106.64 15.0259 107.101 15.0259C107.552 15.0259 107.907 14.8158 108.162 14.3945C108.38 14.0458 108.491 13.6322 108.491 13.1537Z" fill="black"/>
<path d="M116.073 15.7513H114.891V12.7813C114.891 11.8661 114.535 11.4085 113.819 11.4085C113.468 11.4085 113.185 11.5339 112.966 11.7858C112.747 12.0377 112.637 12.3347 112.637 12.6746V15.7502H111.454V12.0476C111.454 11.5922 111.44 11.0983 111.412 10.5637H112.45L112.505 11.3744H112.538C112.677 11.1225 112.882 10.9146 113.151 10.7485C113.472 10.5549 113.83 10.457 114.224 10.457C114.719 10.457 115.132 10.6132 115.46 10.9267C115.87 11.3106 116.073 11.8837 116.073 12.6449V15.7513Z" fill="black"/>
<path d="M124.03 11.4303H122.728V13.9493C122.728 14.5895 122.959 14.9096 123.417 14.9096C123.63 14.9096 123.806 14.892 123.944 14.8557L123.975 15.7302C123.741 15.816 123.434 15.8589 123.056 15.8589C122.589 15.8589 122.226 15.7203 121.963 15.4431C121.699 15.1659 121.568 14.6995 121.568 14.045V11.4303H120.791V10.5668H121.568V9.61639L122.727 9.27539V10.5657H124.029V11.4303H124.03Z" fill="black"/>
<path d="M130.29 15.7522H129.106V12.8042C129.106 11.8747 128.75 11.4094 128.036 11.4094C127.487 11.4094 127.113 11.6789 126.907 12.2179C126.872 12.3312 126.852 12.4698 126.852 12.6326V15.7511H125.671V8.1875H126.852V11.3126H126.875C127.247 10.7439 127.781 10.4601 128.472 10.4601C128.962 10.4601 129.367 10.6163 129.688 10.9298C130.089 11.3203 130.29 11.9011 130.29 12.6689V15.7522Z" fill="black"/>
<path d="M136.746 12.9141C136.746 13.1209 136.73 13.2947 136.702 13.4366H133.156C133.172 13.9492 133.341 14.3397 133.669 14.6103C133.969 14.8523 134.356 14.9733 134.83 14.9733C135.355 14.9733 135.833 14.8919 136.264 14.728L136.449 15.5288C135.945 15.7422 135.351 15.8489 134.664 15.8489C133.841 15.8489 133.192 15.6124 132.723 15.1394C132.251 14.6664 132.018 14.0317 132.018 13.2353C132.018 12.4532 132.235 11.802 132.674 11.2828C133.132 10.7284 133.752 10.4512 134.533 10.4512C135.298 10.4512 135.879 10.7284 136.272 11.2828C136.589 11.7228 136.746 12.2673 136.746 12.9141ZM135.618 12.616C135.627 12.2739 135.549 11.9791 135.389 11.7305C135.183 11.4104 134.871 11.2498 134.448 11.2498C134.062 11.2498 133.747 11.406 133.507 11.7195C133.31 11.9692 133.194 12.2673 133.156 12.616H135.618Z" fill="black"/>
<path d="M60.523 35.631H57.9609L56.5574 31.3311H51.679L50.3421 35.631H47.8477L52.6809 20.9922H55.6661L60.523 35.631ZM56.1343 29.5271L54.8651 25.7046C54.7308 25.3141 54.4792 24.3945 54.1081 22.9469H54.0629C53.9151 23.5695 53.6771 24.4891 53.3499 25.7046L52.1032 29.5271H56.1343Z" fill="black"/>
<path d="M72.9521 30.2221C72.9521 32.0173 72.4546 33.4363 71.4595 34.478C70.5682 35.4053 69.4614 35.8684 68.1403 35.8684C66.7143 35.8684 65.6899 35.369 65.066 34.3702H65.0208V39.9307H62.6155V28.549C62.6155 27.4204 62.585 26.2621 62.5264 25.0741H64.6418L64.776 26.7472H64.8211C65.6233 25.4866 66.8406 24.8574 68.4743 24.8574C69.7514 24.8574 70.8175 25.3491 71.6705 26.3336C72.5256 27.3192 72.9521 28.615 72.9521 30.2221ZM70.5016 30.3079C70.5016 29.2805 70.2647 28.4335 69.7886 27.7669C69.2685 27.0717 68.5702 26.7241 67.6947 26.7241C67.1012 26.7241 66.562 26.9177 66.0802 27.2994C65.5973 27.6844 65.2814 28.1871 65.1336 28.8097C65.0592 29.1001 65.022 29.3377 65.022 29.5247V31.2847C65.022 32.0525 65.2634 32.7004 65.7463 33.2295C66.2291 33.7586 66.8564 34.0226 67.6281 34.0226C68.5341 34.0226 69.2392 33.6816 69.7435 33.0018C70.2489 32.3209 70.5016 31.4233 70.5016 30.3079Z" fill="black"/>
<path d="M85.4041 30.2221C85.4041 32.0173 84.9066 33.4363 83.9104 34.478C83.0202 35.4053 81.9134 35.8684 80.5923 35.8684C79.1663 35.8684 78.1419 35.369 77.5191 34.3702H77.474V39.9307H75.0686V28.549C75.0686 27.4204 75.0382 26.2621 74.9795 25.0741H77.0949L77.2291 26.7472H77.2743C78.0753 25.4866 79.2926 24.8574 80.9274 24.8574C82.2034 24.8574 83.2695 25.3491 84.1247 26.3336C84.9765 27.3192 85.4041 28.615 85.4041 30.2221ZM82.9536 30.3079C82.9536 29.2805 82.7156 28.4335 82.2395 27.7669C81.7194 27.0717 81.0233 26.7241 80.1467 26.7241C79.5521 26.7241 79.014 26.9177 78.5311 27.2994C78.0482 27.6844 77.7334 28.1871 77.5856 28.8097C77.5123 29.1001 77.474 29.3377 77.474 29.5247V31.2847C77.474 32.0525 77.7154 32.7004 78.196 33.2295C78.6789 33.7575 79.3062 34.0226 80.0801 34.0226C80.9861 34.0226 81.6912 33.6816 82.1955 33.0018C82.7009 32.3209 82.9536 31.4233 82.9536 30.3079Z" fill="black"/>
<path d="M99.3262 31.5254C99.3262 32.7706 98.8828 33.7837 97.9926 34.5658C97.0145 35.4205 95.6528 35.8473 93.9029 35.8473C92.2873 35.8473 90.9921 35.5437 90.0117 34.9354L90.5691 32.9807C91.6251 33.6033 92.7837 33.9157 94.0462 33.9157C94.9521 33.9157 95.6573 33.7155 96.1638 33.3173C96.6681 32.9191 96.9197 32.3845 96.9197 31.7179C96.9197 31.1239 96.7121 30.6234 96.2958 30.2175C95.8818 29.8116 95.1902 29.4343 94.2244 29.0856C91.5957 28.1297 90.2825 26.7294 90.2825 24.888C90.2825 23.6846 90.7428 22.6979 91.6645 21.9301C92.5829 21.1612 93.8081 20.7773 95.3402 20.7773C96.7065 20.7773 97.8415 21.0094 98.7474 21.4725L98.1461 23.3843C97.2999 22.9355 96.3432 22.7111 95.2725 22.7111C94.4264 22.7111 93.7653 22.9146 93.2914 23.3194C92.8909 23.6813 92.6901 24.1224 92.6901 24.6449C92.6901 25.2235 92.9191 25.702 93.3794 26.0782C93.7799 26.4258 94.5076 26.802 95.5636 27.2079C96.8554 27.715 97.8042 28.3079 98.4146 28.9877C99.0227 29.6653 99.3262 30.5134 99.3262 31.5254Z" fill="black"/>
<path d="M107.279 26.8354H104.627V31.9603C104.627 33.2638 105.095 33.915 106.031 33.915C106.461 33.915 106.817 33.8787 107.099 33.8061L107.166 35.587C106.692 35.7597 106.068 35.8466 105.295 35.8466C104.345 35.8466 103.603 35.5639 103.067 34.9996C102.534 34.4342 102.265 33.486 102.265 32.1539V26.8332H100.686V25.0732H102.265V23.1405L104.627 22.4453V25.0732H107.279V26.8354Z" fill="black"/>
<path d="M119.242 30.2659C119.242 31.8884 118.766 33.2205 117.816 34.2622C116.819 35.3347 115.497 35.8693 113.849 35.8693C112.26 35.8693 110.996 35.3556 110.052 34.3282C109.109 33.3008 108.638 32.0039 108.638 30.4408C108.638 28.8051 109.123 27.4653 110.096 26.4236C111.068 25.3808 112.379 24.8594 114.027 24.8594C115.616 24.8594 116.894 25.3731 117.859 26.4016C118.781 27.3993 119.242 28.6874 119.242 30.2659ZM116.746 30.3418C116.746 29.3683 116.533 28.5334 116.101 27.8371C115.596 26.9945 114.876 26.5743 113.941 26.5743C112.975 26.5743 112.24 26.9956 111.736 27.8371C111.304 28.5345 111.09 29.3826 111.09 30.3858C111.09 31.3593 111.304 32.1942 111.736 32.8894C112.256 33.732 112.982 34.1522 113.92 34.1522C114.838 34.1522 115.559 33.7232 116.079 32.8674C116.523 32.1579 116.746 31.3142 116.746 30.3418Z" fill="black"/>
<path d="M127.06 27.1366C126.822 27.0937 126.568 27.0717 126.302 27.0717C125.455 27.0717 124.801 27.383 124.341 28.0067C123.94 28.5567 123.739 29.2519 123.739 30.0912V35.6297H121.335L121.358 28.3983C121.358 27.1817 121.327 26.074 121.268 25.0752H123.363L123.451 27.0948H123.517C123.771 26.4007 124.172 25.8419 124.72 25.4228C125.256 25.0455 125.835 24.8574 126.458 24.8574C126.681 24.8574 126.882 24.8728 127.06 24.9003V27.1366Z" fill="black"/>
<path d="M137.818 29.8528C137.818 30.273 137.789 30.6272 137.73 30.9165H130.514C130.542 31.9593 130.89 32.7568 131.561 33.3068C132.169 33.7985 132.955 34.0449 133.921 34.0449C134.989 34.0449 135.964 33.8788 136.841 33.5455L137.217 35.1735C136.193 35.6091 134.984 35.8258 133.588 35.8258C131.909 35.8258 130.591 35.344 129.632 34.3815C128.676 33.419 128.196 32.1265 128.196 30.5051C128.196 28.9134 128.642 27.5879 129.534 26.5308C130.468 25.4022 131.731 24.8379 133.319 24.8379C134.88 24.8379 136.061 25.4022 136.863 26.5308C137.498 27.4273 137.818 28.5361 137.818 29.8528ZM135.524 29.2445C135.54 28.5493 135.383 27.9487 135.057 27.4416C134.641 26.7893 134.001 26.4637 133.14 26.4637C132.354 26.4637 131.714 26.7816 131.226 27.4196C130.825 27.9267 130.587 28.535 130.514 29.2434H135.524V29.2445Z" fill="black"/>
</svg>
