<svg width="44" height="44" viewBox="0 0 44 44" fill="none" xmlns="http://www.w3.org/2000/svg">
<g clip-path="url(#clip0_1325_13510)">
<path d="M6.39369 40.4076C11.0616 42.8024 16.5301 43.9993 22.0001 43.9993C27.4688 43.998 32.9399 42.8012 37.6065 40.4076C38.1894 40.1095 38.6724 39.6474 38.9958 39.0782C39.3193 38.509 39.4691 37.8576 39.4269 37.2043C39.37 36.3168 38.9642 35.4879 38.298 34.8987C39.5753 30.0436 38.1346 24.3442 34.0941 18.6668C32.6286 16.6071 30.8374 14.5999 29.075 12.8725H22.0002C19.9817 12.8725 18.1107 12.3077 16.4563 11.3965C14.2644 13.3838 11.8795 15.9454 10.0245 18.5524C5.92115 24.319 4.44021 30.0574 5.7036 34.8987C5.3728 35.1898 5.10269 35.5433 4.90875 35.9389C4.71481 36.3345 4.60085 36.7646 4.5734 37.2043C4.53115 37.8576 4.68098 38.509 5.00443 39.0782C5.32788 39.6474 5.81081 40.1095 6.39369 40.4076Z" fill="#F38744"/>
<path d="M29.7236 0H27.1489C25.2959 0 23.5032 0.566941 21.9996 1.61543C20.4961 0.566941 18.7034 0 16.8503 0H14.2756C13.5641 0 12.9883 0.575781 12.9883 1.28733C12.9883 6.25566 17.0313 10.2987 21.9996 10.2987H29.7236C31.8532 10.2987 33.5856 12.0311 33.5856 14.1607C33.5856 14.8722 34.1614 15.448 34.8729 15.448C35.5845 15.448 36.1603 14.8722 36.1603 14.1607C36.1603 10.6117 33.2726 7.724 29.7236 7.724H28.2862C29.9624 6.08651 31.0109 3.80982 31.0109 1.28733C31.0109 0.575781 30.4352 0 29.7236 0Z" fill="#F38744"/>
</g>
<defs>
<clipPath id="clip0_1325_13510">
<rect width="44" height="44" fill="white"/>
</clipPath>
</defs>
</svg>
