<svg width="50" height="50" viewBox="0 0 50 50" fill="none" xmlns="http://www.w3.org/2000/svg">
<g clip-path="url(#clip0_1325_13514)">
<g clip-path="url(#clip1_1325_13514)">
<path d="M41.7978 21.1235L36.2715 12.2699C35.9702 11.7874 35.5511 11.3896 35.0537 11.1138C34.5562 10.838 33.9967 10.6933 33.4279 10.6934H3.35196C2.46296 10.6934 1.61038 11.0465 0.981765 11.6751C0.353151 12.3037 0 13.1563 0 14.0453L0 32.8833C0 33.7723 0.353151 34.6249 0.981765 35.2535C1.61038 35.8821 2.46296 36.2353 3.35196 36.2353H4.23128C5.07821 38.0431 6.90279 39.3079 9.02793 39.3079C11.1531 39.3079 12.9765 38.0431 13.8235 36.2353H36.1777C37.0246 38.0431 38.8492 39.3079 40.9743 39.3079C43.0972 39.3079 44.9229 38.0431 45.7687 36.2353H46.648C47.537 36.2353 48.3896 35.8821 49.0182 35.2535C49.6468 34.6249 50 33.7723 50 32.8833V30.0945C50 25.4051 46.3866 21.5336 41.7978 21.1235ZM9.03575 36.1962C8.45406 36.1962 7.89618 35.9651 7.48486 35.5538C7.07354 35.1424 6.84246 34.5846 6.84246 34.0029C6.84246 33.4212 7.07354 32.8633 7.48486 32.452C7.89618 32.0406 8.45406 31.8096 9.03575 31.8096C9.61745 31.8096 10.1753 32.0406 10.5866 32.452C10.998 32.8633 11.229 33.4212 11.229 34.0029C11.229 34.5846 10.998 35.1424 10.5866 35.5538C10.1753 35.9651 9.61745 36.1962 9.03575 36.1962ZM29.0972 23.4654V14.0464H33.4279L39.3095 23.4654H29.0972ZM40.9732 36.1962C40.3915 36.1962 39.8336 35.9651 39.4223 35.5538C39.011 35.1424 38.7799 34.5846 38.7799 34.0029C38.7799 33.4212 39.011 32.8633 39.4223 32.452C39.8336 32.0406 40.3915 31.8096 40.9732 31.8096C41.5549 31.8096 42.1128 32.0406 42.5241 32.452C42.9354 32.8633 43.1665 33.4212 43.1665 34.0029C43.1665 34.5846 42.9354 35.1424 42.5241 35.5538C42.1128 35.9651 41.5549 36.1962 40.9732 36.1962Z" fill="#F38744"/>
</g>
</g>
<defs>
<clipPath id="clip0_1325_13514">
<rect width="50" height="50" fill="white"/>
</clipPath>
<clipPath id="clip1_1325_13514">
<rect width="50" height="50" fill="white"/>
</clipPath>
</defs>
</svg>
