<svg width="44" height="44" viewBox="0 0 44 44" fill="none" xmlns="http://www.w3.org/2000/svg">
<path d="M21.999 1.83398C18.3523 1.83398 14.8549 3.28264 12.2763 5.86127C9.69769 8.43989 8.24904 11.9373 8.24904 15.584V26.309L5.2057 30.8923C4.84093 31.4547 4.63402 32.1049 4.60664 32.7747C4.57925 33.4445 4.7324 34.1093 5.05005 34.6996C5.3677 35.29 5.83818 35.7841 6.41224 36.1302C6.98631 36.4764 7.64287 36.6619 8.3132 36.6673H35.6849C36.3595 36.6651 37.021 36.4804 37.5993 36.1328C38.1775 35.7853 38.651 35.2878 38.9695 34.693C39.288 34.0983 39.4397 33.4284 39.4085 32.7545C39.3773 32.0806 39.1644 31.4276 38.7924 30.8648L35.749 26.309V15.584C35.749 11.9373 34.3004 8.43989 31.7218 5.86127C29.1431 3.28264 25.6458 1.83398 21.999 1.83398ZM21.999 42.1673C23.1353 42.166 24.2433 41.8128 25.1707 41.1562C26.0982 40.4997 26.7994 39.572 27.1782 38.5007H16.8199C17.1986 39.572 17.8999 40.4997 18.8273 41.1562C19.7547 41.8128 20.8627 42.166 21.999 42.1673Z" fill="#F38744"/>
</svg>
