<svg width="24" height="24" viewBox="0 0 24 24" fill="none" xmlns="http://www.w3.org/2000/svg">
<path fill-rule="evenodd" clip-rule="evenodd" d="M16.4527 23.6744C12.7335 22.6188 9.22416 20.6266 6.29876 17.7012C3.37336 14.7758 1.38124 11.2665 0.3256 7.54727C0.319342 7.52523 0.31313 7.50337 0.306967 7.48169C0.135158 6.87717 0.00192918 6.4084 1.4863e-05 5.76559C-0.0021722 5.0309 0.237191 4.11048 0.597014 3.46994C1.21582 2.36836 2.54451 0.956632 3.69216 0.376158C4.68375 -0.125386 5.85478 -0.125386 6.84637 0.376158C7.82736 0.872338 8.91988 1.98299 9.52893 2.91974C10.2819 4.07789 10.2819 5.57093 9.52893 6.72908C9.32715 7.03942 9.03954 7.32654 8.70566 7.65986C8.60169 7.76365 8.48726 7.83865 8.56325 7.99692C9.31779 9.56848 10.3468 11.0426 11.6521 12.3479C12.9574 13.6532 14.4315 14.6822 16.0031 15.4368C16.1669 15.5154 16.2315 15.4031 16.3401 15.2943C16.6735 14.9605 16.9606 14.6729 17.2709 14.4711C18.4291 13.7181 19.9221 13.7181 21.0803 14.4711C21.992 15.0638 23.1315 16.1803 23.6238 17.1536C24.1254 18.1452 24.1254 19.3163 23.6238 20.3078C23.0434 21.4555 21.6316 22.7842 20.5301 23.403C19.8895 23.7628 18.9691 24.0022 18.2344 24C17.5916 23.9981 17.1228 23.8648 16.5183 23.693C16.4966 23.6869 16.4748 23.6807 16.4527 23.6744Z" fill="#F38744"/>
</svg>
