<svg width="21" height="20" viewBox="0 0 21 20" fill="none" xmlns="http://www.w3.org/2000/svg">
<path fill-rule="evenodd" clip-rule="evenodd" d="M10.2467 0.833374C5.18413 0.833374 1.08008 4.93743 1.08008 10C1.08008 15.0626 5.18413 19.1667 10.2467 19.1667C15.3094 19.1667 19.4134 15.0626 19.4134 10C19.4134 4.93743 15.3094 0.833374 10.2467 0.833374ZM14.586 8.0893C14.9114 7.76386 14.9114 7.23622 14.586 6.91078C14.2606 6.58535 13.7329 6.58535 13.4075 6.91078L8.99674 11.3215L7.086 9.41078C6.76056 9.08535 6.23293 9.08535 5.90749 9.41078C5.58205 9.73622 5.58205 10.2639 5.90749 10.5893L8.40749 13.0893C8.73292 13.4147 9.26056 13.4147 9.586 13.0893L14.586 8.0893Z" fill="#2E90FA"/>
</svg>
