<svg width="25" height="24" viewBox="0 0 25 24" fill="none" xmlns="http://www.w3.org/2000/svg">
<path fill-rule="evenodd" clip-rule="evenodd" d="M5.66146 7H13.3385C13.8657 6.99998 14.3205 6.99997 14.695 7.03057C15.0904 7.06287 15.4836 7.13419 15.862 7.32698C16.4265 7.6146 16.8854 8.07354 17.173 8.63803C17.3658 9.01641 17.4371 9.40963 17.4694 9.80497C17.5 10.1795 17.5 10.6343 17.5 11.1614V18.8385C17.5 19.3657 17.5 19.8205 17.4694 20.195C17.4371 20.5904 17.3658 20.9836 17.173 21.362C16.8854 21.9265 16.4265 22.3854 15.862 22.673C15.4836 22.8658 15.0904 22.9371 14.695 22.9694C14.3205 23 13.8658 23 13.3386 23H5.66148C5.13437 23 4.67952 23 4.30497 22.9694C3.90963 22.9371 3.51641 22.8658 3.13803 22.673C2.57354 22.3854 2.1146 21.9265 1.82698 21.362C1.63419 20.9836 1.56287 20.5904 1.53057 20.195C1.49996 19.8205 1.49998 19.3657 1.5 18.8385V11.1615C1.49998 10.6343 1.49996 10.1796 1.53057 9.80497C1.56287 9.40963 1.63419 9.01641 1.82698 8.63803C2.1146 8.07354 2.57354 7.6146 3.13803 7.32698C3.51641 7.13419 3.90963 7.06287 4.30497 7.03057C4.67953 6.99997 5.13432 6.99998 5.66146 7Z" fill="#1849A9"/>
<path fill-rule="evenodd" clip-rule="evenodd" d="M13.5001 2C13.5001 1.44772 13.9478 1 14.5001 1H16.5C17.0522 1 17.5 1.44772 17.5 2C17.5 2.55228 17.0522 3 16.5 3H14.5001C13.9478 3 13.5001 2.55228 13.5001 2ZM11.9999 1.98925C12.0074 2.54148 11.5658 2.99522 11.0136 3.0027C10.3197 3.01211 10.1395 3.06138 10.046 3.10899C9.85785 3.20487 9.70487 3.35785 9.609 3.54601C9.56139 3.63945 9.51211 3.81968 9.50271 4.51355C9.49523 5.06578 9.04148 5.50739 8.48925 5.49991C7.93702 5.49242 7.49541 5.03868 7.50289 4.48645C7.51179 3.83022 7.54067 3.19995 7.82699 2.63803C8.11461 2.07354 8.57355 1.6146 9.13803 1.32698C9.69996 1.04067 10.3302 1.01178 10.9865 1.00289C11.5387 0.995404 11.9924 1.43701 11.9999 1.98925ZM19.0001 1.98925C19.0076 1.43701 19.4613 0.995404 20.0136 1.00289C20.6698 1.01178 21.3001 1.04067 21.862 1.32698C22.4265 1.6146 22.8854 2.07354 23.173 2.63803C23.4593 3.19995 23.4882 3.83021 23.4971 4.48644C23.5046 5.03867 23.063 5.49241 22.5108 5.4999C21.9585 5.50738 21.5048 5.06577 21.4973 4.51354C21.4879 3.81968 21.4386 3.63945 21.391 3.54601C21.2951 3.35785 21.1422 3.20487 20.954 3.10899C20.8606 3.06139 20.6803 3.01211 19.9865 3.0027C19.4342 2.99522 18.9926 2.54148 19.0001 1.98925ZM22.5 6.99999C23.0523 6.99999 23.5 7.44771 23.5 7.99999V9.99999C23.5 10.5523 23.0523 11 22.5 11C21.9477 11 21.5 10.5523 21.5 9.99999V7.99999C21.5 7.44771 21.9477 6.99999 22.5 6.99999ZM22.5108 12.5001C23.063 12.5076 23.5046 12.9613 23.4971 13.5135C23.4882 14.1698 23.4593 14.8 23.173 15.362C22.8854 15.9265 22.4265 16.3854 21.862 16.673C21.3001 16.9593 20.6698 16.9882 20.0136 16.9971C19.4613 17.0046 19.0076 16.563 19.0001 16.0108C18.9926 15.4585 19.4342 15.0048 19.9865 14.9973C20.6803 14.9879 20.8606 14.9386 20.954 14.891C21.1422 14.7951 21.2951 14.6422 21.391 14.454C21.4386 14.3606 21.4879 14.1803 21.4973 13.4864C21.5048 12.9342 21.9585 12.4926 22.5108 12.5001Z" fill="#1849A9"/>
</svg>
