<svg width="24" height="32" viewBox="0 0 24 32" fill="none" xmlns="http://www.w3.org/2000/svg">
<path d="M22.9473 12.0532L22.9001 11.9892L22.8907 11.9705L18.6017 5.60352L14.3127 11.9706L14.3037 11.9884L14.2561 12.0532C13.5678 12.9853 13.2041 14.0926 13.2041 15.2556C13.2041 18.2319 15.6255 20.6532 18.6016 20.6532C21.5778 20.6532 23.9992 18.2318 23.9992 15.2556C23.9993 14.0926 23.6355 12.9851 22.9473 12.0532Z" fill="#1849A9"/>
<path d="M18.5993 22.49C14.609 22.49 11.3627 19.2436 11.3627 15.2534C11.3627 13.7022 11.846 12.2242 12.7603 10.9775L15.5798 6.79199L11.2333 0.339844L2.17722 13.7833C0.75337 15.7209 0.000976562 18.0183 0.000976562 20.4291C0.000976562 26.6227 5.03979 31.6615 11.2334 31.6615C17.1018 31.6615 21.9328 27.1375 22.4238 21.394C21.3134 22.0881 20.0026 22.49 18.5993 22.49Z" fill="#1849A9"/>
</svg>
