<svg width="251" height="272" viewBox="0 0 251 272" fill="none" xmlns="http://www.w3.org/2000/svg">
<path d="M0 12C0 5.37258 5.37258 0 12 0H239C245.627 0 251 5.37258 251 12V260C251 266.627 245.627 272 239 272H12C5.37258 272 0 266.627 0 260V12Z" fill="white"/>
<path d="M21.152 41V29.08H23.328V39.08H28.432V41H21.152ZM32.3035 41.192C31.6955 41.192 31.1675 41.0907 30.7195 40.888C30.2715 40.6853 29.9248 40.3973 29.6795 40.024C29.4342 39.64 29.3115 39.1973 29.3115 38.696C29.3115 38.216 29.4182 37.7893 29.6315 37.416C29.8448 37.032 30.1755 36.712 30.6235 36.456C31.0715 36.2 31.6368 36.0187 32.3195 35.912L35.1675 35.448V37.048L32.7195 37.464C32.3035 37.5387 31.9942 37.672 31.7915 37.864C31.5888 38.056 31.4875 38.3067 31.4875 38.616C31.4875 38.9147 31.5995 39.1547 31.8235 39.336C32.0582 39.5067 32.3462 39.592 32.6875 39.592C33.1248 39.592 33.5088 39.5013 33.8395 39.32C34.1808 39.128 34.4422 38.8667 34.6235 38.536C34.8155 38.2053 34.9115 37.8427 34.9115 37.448V35.208C34.9115 34.8347 34.7622 34.5253 34.4635 34.28C34.1755 34.024 33.7915 33.896 33.3115 33.896C32.8635 33.896 32.4635 34.0187 32.1115 34.264C31.7702 34.4987 31.5195 34.8133 31.3595 35.208L29.6475 34.376C29.8182 33.9173 30.0848 33.5227 30.4475 33.192C30.8208 32.8507 31.2582 32.584 31.7595 32.392C32.2608 32.2 32.8048 32.104 33.3915 32.104C34.1062 32.104 34.7355 32.2373 35.2795 32.504C35.8235 32.76 36.2448 33.1227 36.5435 33.592C36.8528 34.0507 37.0075 34.5893 37.0075 35.208V41H35.0235V39.512L35.4715 39.48C35.2475 39.8533 34.9808 40.168 34.6715 40.424C34.3622 40.6693 34.0102 40.8613 33.6155 41C33.2208 41.128 32.7835 41.192 32.3035 41.192ZM42.0488 41.192C41.3768 41.192 40.7901 41.0427 40.2888 40.744C39.7981 40.4453 39.4194 40.0293 39.1528 39.496C38.8968 38.9627 38.7688 38.3387 38.7688 37.624V32.296H40.8648V37.448C40.8648 37.8107 40.9341 38.1307 41.0728 38.408C41.2221 38.6747 41.4301 38.888 41.6968 39.048C41.9741 39.1973 42.2834 39.272 42.6248 39.272C42.9661 39.272 43.2701 39.1973 43.5368 39.048C43.8034 38.888 44.0114 38.6693 44.1608 38.392C44.3101 38.1147 44.3848 37.784 44.3848 37.4V32.296H46.4808V41H44.4968V39.288L44.6728 39.592C44.4701 40.1253 44.1341 40.5253 43.6648 40.792C43.2061 41.0587 42.6674 41.192 42.0488 41.192ZM48.4291 41V32.296H50.3971V34.008L50.2371 33.704C50.4398 33.1813 50.7705 32.7867 51.2291 32.52C51.6985 32.2427 52.2425 32.104 52.8611 32.104C53.5011 32.104 54.0665 32.2427 54.5571 32.52C55.0585 32.7973 55.4478 33.1867 55.7251 33.688C56.0025 34.1787 56.1411 34.7493 56.1411 35.4V41H54.0451V35.896C54.0451 35.512 53.9705 35.1813 53.8211 34.904C53.6718 34.6267 53.4638 34.4133 53.1971 34.264C52.9411 34.104 52.6371 34.024 52.2851 34.024C51.9438 34.024 51.6398 34.104 51.3731 34.264C51.1065 34.4133 50.8985 34.6267 50.7491 34.904C50.5998 35.1813 50.5251 35.512 50.5251 35.896V41H48.4291ZM61.9615 41.192C61.1188 41.192 60.3668 40.9947 59.7055 40.6C59.0442 40.1947 58.5215 39.6453 58.1375 38.952C57.7535 38.2587 57.5615 37.4907 57.5615 36.648C57.5615 35.7947 57.7535 35.0267 58.1375 34.344C58.5215 33.6613 59.0442 33.1173 59.7055 32.712C60.3775 32.3067 61.1242 32.104 61.9455 32.104C62.6068 32.104 63.1935 32.2373 63.7055 32.504C64.2282 32.76 64.6388 33.1227 64.9375 33.592L64.6175 34.024V28.888H66.7135V41H64.7295V39.32L64.9535 39.736C64.6548 40.2053 64.2388 40.568 63.7055 40.824C63.1722 41.0693 62.5908 41.192 61.9615 41.192ZM62.1855 39.272C62.6655 39.272 63.0868 39.16 63.4495 38.936C63.8122 38.712 64.0948 38.4027 64.2975 38.008C64.5108 37.6133 64.6175 37.16 64.6175 36.648C64.6175 36.1467 64.5108 35.6987 64.2975 35.304C64.0948 34.8987 63.8122 34.584 63.4495 34.36C63.0868 34.136 62.6655 34.024 62.1855 34.024C61.7162 34.024 61.2948 34.1413 60.9215 34.376C60.5482 34.6 60.2548 34.9093 60.0415 35.304C59.8388 35.688 59.7375 36.136 59.7375 36.648C59.7375 37.16 59.8388 37.6133 60.0415 38.008C60.2548 38.4027 60.5482 38.712 60.9215 38.936C61.2948 39.16 61.7162 39.272 62.1855 39.272ZM68.6635 41V32.296H70.6315V34.232L70.4715 33.944C70.6742 33.2933 70.9888 32.84 71.4155 32.584C71.8528 32.328 72.3755 32.2 72.9835 32.2H73.4955V34.056H72.7435C72.1462 34.056 71.6662 34.2427 71.3035 34.616C70.9408 34.9787 70.7595 35.4907 70.7595 36.152V41H68.6635ZM75.7039 44.536C75.4692 44.536 75.2399 44.5147 75.0159 44.472C74.7919 44.44 74.5892 44.3813 74.4079 44.296V42.536C74.5465 42.568 74.7119 42.6 74.9039 42.632C75.1065 42.664 75.2932 42.68 75.4639 42.68C75.9439 42.68 76.2905 42.568 76.5039 42.344C76.7279 42.12 76.9252 41.8267 77.0959 41.464L77.6719 40.12L77.6399 41.88L73.8479 32.296H76.1039L78.7599 39.368H77.9599L80.5999 32.296H82.8719L79.0799 41.88C78.8559 42.4453 78.5839 42.9253 78.2639 43.32C77.9439 43.7147 77.5705 44.0133 77.1439 44.216C76.7279 44.4293 76.2479 44.536 75.7039 44.536ZM87.9226 44.536C87.688 44.536 87.4586 44.5147 87.2346 44.472C87.0106 44.44 86.808 44.3813 86.6266 44.296V42.536C86.7653 42.568 86.9306 42.6 87.1226 42.632C87.3253 42.664 87.512 42.68 87.6826 42.68C88.1626 42.68 88.5093 42.568 88.7226 42.344C88.9466 42.12 89.144 41.8267 89.3146 41.464L89.8906 40.12L89.8586 41.88L86.0666 32.296H88.3226L90.9786 39.368H90.1786L92.8186 32.296H95.0906L91.2986 41.88C91.0746 42.4453 90.8026 42.9253 90.4826 43.32C90.1626 43.7147 89.7893 44.0133 89.3626 44.216C88.9466 44.4293 88.4666 44.536 87.9226 44.536ZM100.341 41.192C99.488 41.192 98.7094 40.9947 98.0054 40.6C97.312 40.2053 96.7574 39.6667 96.3414 38.984C95.936 38.3013 95.7334 37.5227 95.7334 36.648C95.7334 35.7733 95.936 34.9947 96.3414 34.312C96.7574 33.6293 97.312 33.0907 98.0054 32.696C98.6987 32.3013 99.4774 32.104 100.341 32.104C101.195 32.104 101.968 32.3013 102.661 32.696C103.355 33.0907 103.904 33.6293 104.309 34.312C104.725 34.984 104.933 35.7627 104.933 36.648C104.933 37.5227 104.725 38.3013 104.309 38.984C103.893 39.6667 103.339 40.2053 102.645 40.6C101.952 40.9947 101.184 41.192 100.341 41.192ZM100.341 39.272C100.811 39.272 101.221 39.16 101.573 38.936C101.936 38.712 102.219 38.4027 102.421 38.008C102.635 37.6027 102.741 37.1493 102.741 36.648C102.741 36.136 102.635 35.688 102.421 35.304C102.219 34.9093 101.936 34.6 101.573 34.376C101.221 34.1413 100.811 34.024 100.341 34.024C99.8614 34.024 99.44 34.1413 99.0774 34.376C98.7147 34.6 98.4267 34.9093 98.2134 35.304C98.0107 35.688 97.9094 36.136 97.9094 36.648C97.9094 37.1493 98.0107 37.6027 98.2134 38.008C98.4267 38.4027 98.7147 38.712 99.0774 38.936C99.44 39.16 99.8614 39.272 100.341 39.272ZM109.627 41.192C108.955 41.192 108.368 41.0427 107.867 40.744C107.376 40.4453 106.998 40.0293 106.731 39.496C106.475 38.9627 106.347 38.3387 106.347 37.624V32.296H108.443V37.448C108.443 37.8107 108.512 38.1307 108.651 38.408C108.8 38.6747 109.008 38.888 109.275 39.048C109.552 39.1973 109.862 39.272 110.203 39.272C110.544 39.272 110.848 39.1973 111.115 39.048C111.382 38.888 111.59 38.6693 111.739 38.392C111.888 38.1147 111.963 37.784 111.963 37.4V32.296H114.059V41H112.075V39.288L112.251 39.592C112.048 40.1253 111.712 40.5253 111.243 40.792C110.784 41.0587 110.246 41.192 109.627 41.192ZM116.007 41V32.296H117.975V34.232L117.815 33.944C118.018 33.2933 118.333 32.84 118.759 32.584C119.197 32.328 119.719 32.2 120.327 32.2H120.839V34.056H120.087C119.49 34.056 119.01 34.2427 118.647 34.616C118.285 34.9787 118.103 35.4907 118.103 36.152V41H116.007ZM127.027 41L124.035 32.296H126.243L128.435 38.904L127.667 38.888L130.003 32.296H131.859L134.179 38.888L133.411 38.904L135.603 32.296H137.811L134.819 41H132.947L130.579 34.104H131.283L128.883 41H127.027ZM141.288 41.192C140.68 41.192 140.152 41.0907 139.704 40.888C139.256 40.6853 138.909 40.3973 138.664 40.024C138.419 39.64 138.296 39.1973 138.296 38.696C138.296 38.216 138.403 37.7893 138.616 37.416C138.829 37.032 139.16 36.712 139.608 36.456C140.056 36.2 140.621 36.0187 141.304 35.912L144.152 35.448V37.048L141.704 37.464C141.288 37.5387 140.979 37.672 140.776 37.864C140.573 38.056 140.472 38.3067 140.472 38.616C140.472 38.9147 140.584 39.1547 140.808 39.336C141.043 39.5067 141.331 39.592 141.672 39.592C142.109 39.592 142.493 39.5013 142.824 39.32C143.165 39.128 143.427 38.8667 143.608 38.536C143.8 38.2053 143.896 37.8427 143.896 37.448V35.208C143.896 34.8347 143.747 34.5253 143.448 34.28C143.16 34.024 142.776 33.896 142.296 33.896C141.848 33.896 141.448 34.0187 141.096 34.264C140.755 34.4987 140.504 34.8133 140.344 35.208L138.632 34.376C138.803 33.9173 139.069 33.5227 139.432 33.192C139.805 32.8507 140.243 32.584 140.744 32.392C141.245 32.2 141.789 32.104 142.376 32.104C143.091 32.104 143.72 32.2373 144.264 32.504C144.808 32.76 145.229 33.1227 145.528 33.592C145.837 34.0507 145.992 34.5893 145.992 35.208V41H144.008V39.512L144.456 39.48C144.232 39.8533 143.965 40.168 143.656 40.424C143.347 40.6693 142.995 40.8613 142.6 41C142.205 41.128 141.768 41.192 141.288 41.192ZM148.985 44.536C148.75 44.536 148.521 44.5147 148.297 44.472C148.073 44.44 147.87 44.3813 147.689 44.296V42.536C147.828 42.568 147.993 42.6 148.185 42.632C148.388 42.664 148.574 42.68 148.745 42.68C149.225 42.68 149.572 42.568 149.785 42.344C150.009 42.12 150.206 41.8267 150.377 41.464L150.953 40.12L150.921 41.88L147.129 32.296H149.385L152.041 39.368H151.241L153.881 32.296H156.153L152.361 41.88C152.137 42.4453 151.865 42.9253 151.545 43.32C151.225 43.7147 150.852 44.0133 150.425 44.216C150.009 44.4293 149.529 44.536 148.985 44.536Z" fill="black"/>
<rect x="32.625" y="72.625" width="18.75" height="18.75" rx="4.375" fill="white"/>
<rect x="32.625" y="72.625" width="18.75" height="18.75" rx="4.375" stroke="#F38744" stroke-width="1.25"/>
<path d="M81.936 88.168C81.1987 88.168 80.5127 88.0327 79.878 87.762C79.2527 87.4913 78.7067 87.118 78.24 86.642C77.7827 86.1567 77.4233 85.5873 77.162 84.934C76.9007 84.2807 76.77 83.562 76.77 82.778C76.77 82.0033 76.896 81.2893 77.148 80.636C77.4093 79.9733 77.7733 79.404 78.24 78.928C78.7067 78.4427 79.2527 78.0693 79.878 77.808C80.5033 77.5373 81.1893 77.402 81.936 77.402C82.6733 77.402 83.3313 77.528 83.91 77.78C84.498 78.032 84.9927 78.3633 85.394 78.774C85.7953 79.1753 86.0847 79.614 86.262 80.09L84.778 80.79C84.554 80.23 84.1947 79.7773 83.7 79.432C83.2147 79.0773 82.6267 78.9 81.936 78.9C81.2453 78.9 80.634 79.0633 80.102 79.39C79.57 79.7167 79.1547 80.1693 78.856 80.748C78.5667 81.3267 78.422 82.0033 78.422 82.778C78.422 83.5527 78.5667 84.234 78.856 84.822C79.1547 85.4007 79.57 85.8533 80.102 86.18C80.634 86.4973 81.2453 86.656 81.936 86.656C82.6267 86.656 83.2147 86.4833 83.7 86.138C84.1947 85.7927 84.554 85.34 84.778 84.78L86.262 85.48C86.0847 85.9467 85.7953 86.3853 85.394 86.796C84.9927 87.2067 84.498 87.538 83.91 87.79C83.3313 88.042 82.6733 88.168 81.936 88.168ZM91.3241 88.168C90.5961 88.168 89.9288 87.9953 89.3221 87.65C88.7248 87.3047 88.2488 86.8333 87.8941 86.236C87.5394 85.6387 87.3621 84.962 87.3621 84.206C87.3621 83.4407 87.5394 82.764 87.8941 82.176C88.2488 81.5787 88.7248 81.112 89.3221 80.776C89.9194 80.4307 90.5868 80.258 91.3241 80.258C92.0708 80.258 92.7381 80.4307 93.3261 80.776C93.9234 81.112 94.3948 81.5787 94.7401 82.176C95.0948 82.764 95.2721 83.4407 95.2721 84.206C95.2721 84.9713 95.0948 85.6527 94.7401 86.25C94.3854 86.8473 93.9094 87.3187 93.3121 87.664C92.7148 88 92.0521 88.168 91.3241 88.168ZM91.3241 86.698C91.7721 86.698 92.1688 86.5907 92.5141 86.376C92.8594 86.1613 93.1301 85.8673 93.3261 85.494C93.5314 85.1113 93.6341 84.682 93.6341 84.206C93.6341 83.73 93.5314 83.3053 93.3261 82.932C93.1301 82.5587 92.8594 82.2647 92.5141 82.05C92.1688 81.8353 91.7721 81.728 91.3241 81.728C90.8854 81.728 90.4888 81.8353 90.1341 82.05C89.7888 82.2647 89.5134 82.5587 89.3081 82.932C89.1121 83.3053 89.0141 83.73 89.0141 84.206C89.0141 84.682 89.1121 85.1113 89.3081 85.494C89.5134 85.8673 89.7888 86.1613 90.1341 86.376C90.4888 86.5907 90.8854 86.698 91.3241 86.698ZM96.8166 88V77.402H98.3986V88H96.8166ZM103.902 88.168C103.174 88.168 102.507 87.9953 101.9 87.65C101.303 87.3047 100.827 86.8333 100.472 86.236C100.118 85.6387 99.9402 84.962 99.9402 84.206C99.9402 83.4407 100.118 82.764 100.472 82.176C100.827 81.5787 101.303 81.112 101.9 80.776C102.498 80.4307 103.165 80.258 103.902 80.258C104.649 80.258 105.316 80.4307 105.904 80.776C106.502 81.112 106.973 81.5787 107.318 82.176C107.673 82.764 107.85 83.4407 107.85 84.206C107.85 84.9713 107.673 85.6527 107.318 86.25C106.964 86.8473 106.488 87.3187 105.89 87.664C105.293 88 104.63 88.168 103.902 88.168ZM103.902 86.698C104.35 86.698 104.747 86.5907 105.092 86.376C105.438 86.1613 105.708 85.8673 105.904 85.494C106.11 85.1113 106.212 84.682 106.212 84.206C106.212 83.73 106.11 83.3053 105.904 82.932C105.708 82.5587 105.438 82.2647 105.092 82.05C104.747 81.8353 104.35 81.728 103.902 81.728C103.464 81.728 103.067 81.8353 102.712 82.05C102.367 82.2647 102.092 82.5587 101.886 82.932C101.69 83.3053 101.592 83.73 101.592 84.206C101.592 84.682 101.69 85.1113 101.886 85.494C102.092 85.8673 102.367 86.1613 102.712 86.376C103.067 86.5907 103.464 86.698 103.902 86.698ZM109.395 88V80.426H110.907V81.952L110.767 81.728C110.935 81.2333 111.205 80.8787 111.579 80.664C111.952 80.44 112.4 80.328 112.923 80.328H113.385V81.77H112.727C112.204 81.77 111.779 81.9333 111.453 82.26C111.135 82.5773 110.977 83.0347 110.977 83.632V88H109.395ZM119.714 88.168C118.94 88.168 118.258 87.9767 117.67 87.594C117.092 87.2113 116.686 86.698 116.452 86.054L117.67 85.48C117.876 85.9093 118.156 86.25 118.51 86.502C118.874 86.754 119.276 86.88 119.714 86.88C120.088 86.88 120.391 86.796 120.624 86.628C120.858 86.46 120.974 86.2313 120.974 85.942C120.974 85.7553 120.923 85.606 120.82 85.494C120.718 85.3727 120.587 85.2747 120.428 85.2C120.279 85.1253 120.125 85.0693 119.966 85.032L118.776 84.696C118.123 84.5093 117.633 84.2293 117.306 83.856C116.989 83.4733 116.83 83.03 116.83 82.526C116.83 82.0687 116.947 81.672 117.18 81.336C117.414 80.9907 117.736 80.7247 118.146 80.538C118.557 80.3513 119.019 80.258 119.532 80.258C120.223 80.258 120.839 80.4307 121.38 80.776C121.922 81.112 122.304 81.5833 122.528 82.19L121.31 82.764C121.161 82.4 120.923 82.1107 120.596 81.896C120.279 81.6813 119.92 81.574 119.518 81.574C119.173 81.574 118.898 81.658 118.692 81.826C118.487 81.9847 118.384 82.1947 118.384 82.456C118.384 82.6333 118.431 82.7827 118.524 82.904C118.618 83.016 118.739 83.1093 118.888 83.184C119.038 83.2493 119.192 83.3053 119.35 83.352L120.582 83.716C121.208 83.8933 121.688 84.1733 122.024 84.556C122.36 84.9293 122.528 85.3773 122.528 85.9C122.528 86.348 122.407 86.7447 122.164 87.09C121.931 87.426 121.604 87.692 121.184 87.888C120.764 88.0747 120.274 88.168 119.714 88.168ZM127.634 88.168C126.878 88.168 126.206 87.9953 125.618 87.65C125.04 87.2953 124.587 86.8193 124.26 86.222C123.934 85.6153 123.77 84.9387 123.77 84.192C123.77 83.4267 123.934 82.75 124.26 82.162C124.596 81.574 125.044 81.112 125.604 80.776C126.164 80.4307 126.799 80.258 127.508 80.258C128.078 80.258 128.586 80.356 129.034 80.552C129.482 80.748 129.86 81.0187 130.168 81.364C130.476 81.7 130.71 82.0873 130.868 82.526C131.036 82.9647 131.12 83.4313 131.12 83.926C131.12 84.0473 131.116 84.1733 131.106 84.304C131.097 84.4347 131.078 84.556 131.05 84.668H125.016V83.408H130.154L129.398 83.982C129.492 83.5247 129.459 83.1187 129.3 82.764C129.151 82.4 128.918 82.1153 128.6 81.91C128.292 81.6953 127.928 81.588 127.508 81.588C127.088 81.588 126.715 81.6953 126.388 81.91C126.062 82.1153 125.81 82.414 125.632 82.806C125.455 83.1887 125.385 83.6553 125.422 84.206C125.376 84.7193 125.446 85.1673 125.632 85.55C125.828 85.9327 126.099 86.2313 126.444 86.446C126.799 86.6607 127.2 86.768 127.648 86.768C128.106 86.768 128.493 86.6653 128.81 86.46C129.137 86.2547 129.394 85.9887 129.58 85.662L130.868 86.292C130.719 86.6467 130.486 86.9687 130.168 87.258C129.86 87.538 129.487 87.762 129.048 87.93C128.619 88.0887 128.148 88.168 127.634 88.168ZM132.664 90.8V80.426H134.176V81.994L133.994 81.63C134.274 81.2007 134.648 80.8647 135.114 80.622C135.581 80.3793 136.113 80.258 136.71 80.258C137.429 80.258 138.073 80.4307 138.642 80.776C139.221 81.1213 139.674 81.5927 140 82.19C140.336 82.7873 140.504 83.4593 140.504 84.206C140.504 84.9527 140.336 85.6247 140 86.222C139.674 86.8193 139.226 87.2953 138.656 87.65C138.087 87.9953 137.438 88.168 136.71 88.168C136.122 88.168 135.586 88.0467 135.1 87.804C134.624 87.5613 134.256 87.2113 133.994 86.754L134.246 86.46V90.8H132.664ZM136.556 86.698C137.004 86.698 137.401 86.5907 137.746 86.376C138.092 86.1613 138.362 85.8673 138.558 85.494C138.764 85.1113 138.866 84.682 138.866 84.206C138.866 83.73 138.764 83.3053 138.558 82.932C138.362 82.5587 138.092 82.2647 137.746 82.05C137.401 81.8353 137.004 81.728 136.556 81.728C136.118 81.728 135.721 81.8353 135.366 82.05C135.021 82.2647 134.746 82.5587 134.54 82.932C134.344 83.3053 134.246 83.73 134.246 84.206C134.246 84.682 134.344 85.1113 134.54 85.494C134.746 85.8673 135.021 86.1613 135.366 86.376C135.721 86.5907 136.118 86.698 136.556 86.698ZM144.311 88.168C143.798 88.168 143.345 88.0793 142.953 87.902C142.57 87.7153 142.272 87.4633 142.057 87.146C141.842 86.8193 141.735 86.4367 141.735 85.998C141.735 85.5873 141.824 85.2187 142.001 84.892C142.188 84.5653 142.472 84.29 142.855 84.066C143.238 83.842 143.718 83.6833 144.297 83.59L146.929 83.156V84.402L144.605 84.808C144.185 84.8827 143.877 85.018 143.681 85.214C143.485 85.4007 143.387 85.6433 143.387 85.942C143.387 86.2313 143.494 86.4693 143.709 86.656C143.933 86.8333 144.218 86.922 144.563 86.922C144.992 86.922 145.366 86.8287 145.683 86.642C146.01 86.4553 146.262 86.208 146.439 85.9C146.616 85.5827 146.705 85.2327 146.705 84.85V82.904C146.705 82.5307 146.565 82.2273 146.285 81.994C146.014 81.7513 145.65 81.63 145.193 81.63C144.773 81.63 144.404 81.742 144.087 81.966C143.779 82.1807 143.55 82.4607 143.401 82.806L142.085 82.148C142.225 81.7747 142.454 81.448 142.771 81.168C143.088 80.8787 143.457 80.6547 143.877 80.496C144.306 80.3373 144.759 80.258 145.235 80.258C145.832 80.258 146.36 80.37 146.817 80.594C147.284 80.818 147.643 81.1307 147.895 81.532C148.156 81.924 148.287 82.3813 148.287 82.904V88H146.775V86.628L147.097 86.67C146.92 86.978 146.691 87.244 146.411 87.468C146.14 87.692 145.828 87.8647 145.473 87.986C145.128 88.1073 144.74 88.168 144.311 88.168ZM150.137 88V80.426H151.649V81.952L151.509 81.728C151.677 81.2333 151.948 80.8787 152.321 80.664C152.694 80.44 153.142 80.328 153.665 80.328H154.127V81.77H153.469C152.946 81.77 152.522 81.9333 152.195 82.26C151.878 82.5773 151.719 83.0347 151.719 83.632V88H150.137ZM157.477 88.168C156.964 88.168 156.511 88.0793 156.119 87.902C155.736 87.7153 155.438 87.4633 155.223 87.146C155.008 86.8193 154.901 86.4367 154.901 85.998C154.901 85.5873 154.99 85.2187 155.167 84.892C155.354 84.5653 155.638 84.29 156.021 84.066C156.404 83.842 156.884 83.6833 157.463 83.59L160.095 83.156V84.402L157.771 84.808C157.351 84.8827 157.043 85.018 156.847 85.214C156.651 85.4007 156.553 85.6433 156.553 85.942C156.553 86.2313 156.66 86.4693 156.875 86.656C157.099 86.8333 157.384 86.922 157.729 86.922C158.158 86.922 158.532 86.8287 158.849 86.642C159.176 86.4553 159.428 86.208 159.605 85.9C159.782 85.5827 159.871 85.2327 159.871 84.85V82.904C159.871 82.5307 159.731 82.2273 159.451 81.994C159.18 81.7513 158.816 81.63 158.359 81.63C157.939 81.63 157.57 81.742 157.253 81.966C156.945 82.1807 156.716 82.4607 156.567 82.806L155.251 82.148C155.391 81.7747 155.62 81.448 155.937 81.168C156.254 80.8787 156.623 80.6547 157.043 80.496C157.472 80.3373 157.925 80.258 158.401 80.258C158.998 80.258 159.526 80.37 159.983 80.594C160.45 80.818 160.809 81.1307 161.061 81.532C161.322 81.924 161.453 82.3813 161.453 82.904V88H159.941V86.628L160.263 86.67C160.086 86.978 159.857 87.244 159.577 87.468C159.306 87.692 158.994 87.8647 158.639 87.986C158.294 88.1073 157.906 88.168 157.477 88.168ZM166.442 88.084C165.649 88.084 165.033 87.86 164.594 87.412C164.156 86.964 163.936 86.334 163.936 85.522V81.854H162.606V80.426H162.816C163.171 80.426 163.446 80.3233 163.642 80.118C163.838 79.9127 163.936 79.6327 163.936 79.278V78.69H165.518V80.426H167.24V81.854H165.518V85.452C165.518 85.7133 165.56 85.9373 165.644 86.124C165.728 86.3013 165.864 86.4413 166.05 86.544C166.237 86.6373 166.48 86.684 166.778 86.684C166.853 86.684 166.937 86.6793 167.03 86.67C167.124 86.6607 167.212 86.6513 167.296 86.642V88C167.166 88.0187 167.021 88.0373 166.862 88.056C166.704 88.0747 166.564 88.084 166.442 88.084ZM168.84 88V80.426H170.422V88H168.84ZM168.84 79.39V77.57H170.422V79.39H168.84ZM175.926 88.168C175.198 88.168 174.53 87.9953 173.924 87.65C173.326 87.3047 172.85 86.8333 172.496 86.236C172.141 85.6387 171.964 84.962 171.964 84.206C171.964 83.4407 172.141 82.764 172.496 82.176C172.85 81.5787 173.326 81.112 173.924 80.776C174.521 80.4307 175.188 80.258 175.926 80.258C176.672 80.258 177.34 80.4307 177.928 80.776C178.525 81.112 178.996 81.5787 179.342 82.176C179.696 82.764 179.874 83.4407 179.874 84.206C179.874 84.9713 179.696 85.6527 179.342 86.25C178.987 86.8473 178.511 87.3187 177.914 87.664C177.316 88 176.654 88.168 175.926 88.168ZM175.926 86.698C176.374 86.698 176.77 86.5907 177.116 86.376C177.461 86.1613 177.732 85.8673 177.928 85.494C178.133 85.1113 178.236 84.682 178.236 84.206C178.236 83.73 178.133 83.3053 177.928 82.932C177.732 82.5587 177.461 82.2647 177.116 82.05C176.77 81.8353 176.374 81.728 175.926 81.728C175.487 81.728 175.09 81.8353 174.736 82.05C174.39 82.2647 174.115 82.5587 173.91 82.932C173.714 83.3053 173.616 83.73 173.616 84.206C173.616 84.682 173.714 85.1113 173.91 85.494C174.115 85.8673 174.39 86.1613 174.736 86.376C175.09 86.5907 175.487 86.698 175.926 86.698ZM181.418 88V80.426H182.93V81.91L182.748 81.714C182.935 81.238 183.233 80.8787 183.644 80.636C184.055 80.384 184.531 80.258 185.072 80.258C185.632 80.258 186.127 80.3793 186.556 80.622C186.985 80.8647 187.321 81.2007 187.564 81.63C187.807 82.0593 187.928 82.554 187.928 83.114V88H186.36V83.534C186.36 83.1513 186.29 82.8293 186.15 82.568C186.01 82.2973 185.809 82.092 185.548 81.952C185.296 81.8027 185.007 81.728 184.68 81.728C184.353 81.728 184.059 81.8027 183.798 81.952C183.546 82.092 183.35 82.2973 183.21 82.568C183.07 82.8387 183 83.1607 183 83.534V88H181.418Z" fill="#6C737F"/>
<rect x="20" y="108" width="211" height="44" rx="7" fill="#F4F4F5"/>
<rect x="32.625" y="120.625" width="18.75" height="18.75" rx="4.375" fill="#F38744"/>
<path d="M47 126.25L40.125 133.125L37 130" stroke="white" stroke-width="2.08325" stroke-linecap="round" stroke-linejoin="round"/>
<rect x="32.625" y="120.625" width="18.75" height="18.75" rx="4.375" stroke="#F38744" stroke-width="1.25"/>
<path d="M77.078 136V125.57H81.474C82.1273 125.57 82.692 125.687 83.168 125.92C83.644 126.144 84.008 126.471 84.26 126.9C84.512 127.32 84.638 127.819 84.638 128.398C84.638 128.902 84.5073 129.364 84.246 129.784C83.994 130.195 83.5973 130.521 83.056 130.764V130.064C83.532 130.251 83.9193 130.489 84.218 130.778C84.5167 131.058 84.7313 131.375 84.862 131.73C85.002 132.085 85.072 132.458 85.072 132.85C85.072 133.83 84.75 134.6 84.106 135.16C83.4713 135.72 82.5987 136 81.488 136H77.078ZM78.73 134.53H81.614C82.1647 134.53 82.6033 134.381 82.93 134.082C83.2567 133.774 83.42 133.368 83.42 132.864C83.42 132.351 83.2567 131.945 82.93 131.646C82.6033 131.338 82.1647 131.184 81.614 131.184H78.73V134.53ZM78.73 129.728H81.516C81.964 129.728 82.3233 129.602 82.594 129.35C82.8647 129.089 83 128.748 83 128.328C83 127.908 82.8647 127.581 82.594 127.348C82.3233 127.115 81.964 126.998 81.516 126.998H78.73V129.728ZM88.8854 136.168C88.372 136.168 87.9194 136.079 87.5274 135.902C87.1447 135.715 86.846 135.463 86.6314 135.146C86.4167 134.819 86.3094 134.437 86.3094 133.998C86.3094 133.587 86.398 133.219 86.5754 132.892C86.762 132.565 87.0467 132.29 87.4294 132.066C87.812 131.842 88.2927 131.683 88.8714 131.59L91.5034 131.156V132.402L89.1794 132.808C88.7594 132.883 88.4514 133.018 88.2554 133.214C88.0594 133.401 87.9614 133.643 87.9614 133.942C87.9614 134.231 88.0687 134.469 88.2834 134.656C88.5074 134.833 88.792 134.922 89.1374 134.922C89.5667 134.922 89.94 134.829 90.2574 134.642C90.584 134.455 90.836 134.208 91.0134 133.9C91.1907 133.583 91.2794 133.233 91.2794 132.85V130.904C91.2794 130.531 91.1394 130.227 90.8594 129.994C90.5887 129.751 90.2247 129.63 89.7674 129.63C89.3474 129.63 88.9787 129.742 88.6614 129.966C88.3534 130.181 88.1247 130.461 87.9754 130.806L86.6594 130.148C86.7994 129.775 87.028 129.448 87.3454 129.168C87.6627 128.879 88.0314 128.655 88.4514 128.496C88.8807 128.337 89.3334 128.258 89.8094 128.258C90.4067 128.258 90.934 128.37 91.3914 128.594C91.858 128.818 92.2174 129.131 92.4694 129.532C92.7307 129.924 92.8614 130.381 92.8614 130.904V136H91.3494V134.628L91.6714 134.67C91.494 134.978 91.2654 135.244 90.9854 135.468C90.7147 135.692 90.402 135.865 90.0474 135.986C89.702 136.107 89.3147 136.168 88.8854 136.168ZM98.7571 136.168C98.1691 136.168 97.6324 136.047 97.1471 135.804C96.6711 135.561 96.3024 135.211 96.0411 134.754L96.2231 134.46V136H94.7111V125.402H96.2931V129.994L96.0411 129.63C96.3211 129.201 96.6944 128.865 97.1611 128.622C97.6278 128.379 98.1598 128.258 98.7571 128.258C99.4758 128.258 100.12 128.431 100.689 128.776C101.268 129.121 101.72 129.593 102.047 130.19C102.383 130.787 102.551 131.459 102.551 132.206C102.551 132.953 102.383 133.625 102.047 134.222C101.72 134.819 101.272 135.295 100.703 135.65C100.134 135.995 99.4851 136.168 98.7571 136.168ZM98.6031 134.698C99.0511 134.698 99.4478 134.591 99.7931 134.376C100.138 134.161 100.409 133.867 100.605 133.494C100.81 133.111 100.913 132.682 100.913 132.206C100.913 131.73 100.81 131.305 100.605 130.932C100.409 130.559 100.138 130.265 99.7931 130.05C99.4478 129.835 99.0511 129.728 98.6031 129.728C98.1644 129.728 97.7678 129.835 97.4131 130.05C97.0678 130.265 96.7924 130.559 96.5871 130.932C96.3911 131.305 96.2931 131.73 96.2931 132.206C96.2931 132.682 96.3911 133.111 96.5871 133.494C96.7924 133.867 97.0678 134.161 97.4131 134.376C97.7678 134.591 98.1644 134.698 98.6031 134.698ZM104.625 139.094C104.439 139.094 104.252 139.075 104.065 139.038C103.888 139.01 103.725 138.963 103.575 138.898V137.54C103.687 137.568 103.823 137.591 103.981 137.61C104.14 137.638 104.294 137.652 104.443 137.652C104.882 137.652 105.204 137.554 105.409 137.358C105.624 137.171 105.815 136.877 105.983 136.476L106.487 135.328L106.459 136.658L103.183 128.426H104.877L107.299 134.74H106.725L109.133 128.426H110.841L107.495 136.826C107.318 137.274 107.094 137.666 106.823 138.002C106.562 138.347 106.249 138.613 105.885 138.8C105.531 138.996 105.111 139.094 104.625 139.094ZM117.171 136.168C116.397 136.168 115.715 135.977 115.127 135.594C114.549 135.211 114.143 134.698 113.909 134.054L115.127 133.48C115.333 133.909 115.613 134.25 115.967 134.502C116.331 134.754 116.733 134.88 117.171 134.88C117.545 134.88 117.848 134.796 118.081 134.628C118.315 134.46 118.431 134.231 118.431 133.942C118.431 133.755 118.38 133.606 118.277 133.494C118.175 133.373 118.044 133.275 117.885 133.2C117.736 133.125 117.582 133.069 117.423 133.032L116.233 132.696C115.58 132.509 115.09 132.229 114.763 131.856C114.446 131.473 114.287 131.03 114.287 130.526C114.287 130.069 114.404 129.672 114.637 129.336C114.871 128.991 115.193 128.725 115.603 128.538C116.014 128.351 116.476 128.258 116.989 128.258C117.68 128.258 118.296 128.431 118.837 128.776C119.379 129.112 119.761 129.583 119.985 130.19L118.767 130.764C118.618 130.4 118.38 130.111 118.053 129.896C117.736 129.681 117.377 129.574 116.975 129.574C116.63 129.574 116.355 129.658 116.149 129.826C115.944 129.985 115.841 130.195 115.841 130.456C115.841 130.633 115.888 130.783 115.981 130.904C116.075 131.016 116.196 131.109 116.345 131.184C116.495 131.249 116.649 131.305 116.807 131.352L118.039 131.716C118.665 131.893 119.145 132.173 119.481 132.556C119.817 132.929 119.985 133.377 119.985 133.9C119.985 134.348 119.864 134.745 119.621 135.09C119.388 135.426 119.061 135.692 118.641 135.888C118.221 136.075 117.731 136.168 117.171 136.168ZM123.803 136.168C123.29 136.168 122.837 136.079 122.445 135.902C122.063 135.715 121.764 135.463 121.549 135.146C121.335 134.819 121.227 134.437 121.227 133.998C121.227 133.587 121.316 133.219 121.493 132.892C121.68 132.565 121.965 132.29 122.347 132.066C122.73 131.842 123.211 131.683 123.789 131.59L126.421 131.156V132.402L124.097 132.808C123.677 132.883 123.369 133.018 123.173 133.214C122.977 133.401 122.879 133.643 122.879 133.942C122.879 134.231 122.987 134.469 123.201 134.656C123.425 134.833 123.71 134.922 124.055 134.922C124.485 134.922 124.858 134.829 125.175 134.642C125.502 134.455 125.754 134.208 125.931 133.9C126.109 133.583 126.197 133.233 126.197 132.85V130.904C126.197 130.531 126.057 130.227 125.777 129.994C125.507 129.751 125.143 129.63 124.685 129.63C124.265 129.63 123.897 129.742 123.579 129.966C123.271 130.181 123.043 130.461 122.893 130.806L121.577 130.148C121.717 129.775 121.946 129.448 122.263 129.168C122.581 128.879 122.949 128.655 123.369 128.496C123.799 128.337 124.251 128.258 124.727 128.258C125.325 128.258 125.852 128.37 126.309 128.594C126.776 128.818 127.135 129.131 127.387 129.532C127.649 129.924 127.779 130.381 127.779 130.904V136H126.267V134.628L126.589 134.67C126.412 134.978 126.183 135.244 125.903 135.468C125.633 135.692 125.32 135.865 124.965 135.986C124.62 136.107 124.233 136.168 123.803 136.168ZM130.415 136V129.854H129.015V128.426H130.415V128.034C130.415 127.465 130.531 126.989 130.765 126.606C130.998 126.214 131.32 125.915 131.731 125.71C132.151 125.505 132.631 125.402 133.173 125.402C133.275 125.402 133.392 125.411 133.523 125.43C133.653 125.439 133.761 125.453 133.845 125.472V126.844C133.77 126.825 133.686 126.816 133.593 126.816C133.499 126.807 133.425 126.802 133.369 126.802C132.949 126.802 132.613 126.9 132.361 127.096C132.109 127.283 131.983 127.595 131.983 128.034V128.426H133.719V129.854H131.983V136H130.415ZM138.462 136.168C137.706 136.168 137.034 135.995 136.446 135.65C135.868 135.295 135.415 134.819 135.088 134.222C134.762 133.615 134.598 132.939 134.598 132.192C134.598 131.427 134.762 130.75 135.088 130.162C135.424 129.574 135.872 129.112 136.432 128.776C136.992 128.431 137.627 128.258 138.336 128.258C138.906 128.258 139.414 128.356 139.862 128.552C140.31 128.748 140.688 129.019 140.996 129.364C141.304 129.7 141.538 130.087 141.696 130.526C141.864 130.965 141.948 131.431 141.948 131.926C141.948 132.047 141.944 132.173 141.934 132.304C141.925 132.435 141.906 132.556 141.878 132.668H135.844V131.408H140.982L140.226 131.982C140.32 131.525 140.287 131.119 140.128 130.764C139.979 130.4 139.746 130.115 139.428 129.91C139.12 129.695 138.756 129.588 138.336 129.588C137.916 129.588 137.543 129.695 137.216 129.91C136.89 130.115 136.638 130.414 136.46 130.806C136.283 131.189 136.213 131.655 136.25 132.206C136.204 132.719 136.274 133.167 136.46 133.55C136.656 133.933 136.927 134.231 137.272 134.446C137.627 134.661 138.028 134.768 138.476 134.768C138.934 134.768 139.321 134.665 139.638 134.46C139.965 134.255 140.222 133.989 140.408 133.662L141.696 134.292C141.547 134.647 141.314 134.969 140.996 135.258C140.688 135.538 140.315 135.762 139.876 135.93C139.447 136.089 138.976 136.168 138.462 136.168Z" fill="#111927"/>
<g filter="url(#filter0_dd_919_10220)">
<path d="M178.467 124.293C178 124.363 177.594 124.647 177.369 125.062C177.17 125.429 177.2 125.808 177.221 125.998C177.243 126.204 177.294 126.455 177.344 126.706L180.916 144.555C180.972 144.836 181.027 145.108 181.089 145.321C181.143 145.506 181.266 145.899 181.619 146.169C182.007 146.467 182.516 146.556 182.982 146.409C183.405 146.275 183.655 145.947 183.769 145.792C183.901 145.613 184.044 145.375 184.193 145.13L187.929 138.974L194.991 137.57C195.272 137.514 195.544 137.46 195.758 137.397C195.942 137.344 196.336 137.221 196.606 136.869C196.904 136.481 196.994 135.972 196.848 135.506C196.715 135.082 196.387 134.832 196.232 134.718C196.053 134.586 195.816 134.442 195.571 134.293L180.02 124.832C179.802 124.699 179.583 124.566 179.397 124.474C179.226 124.39 178.879 124.232 178.467 124.293Z" fill="#1570EF"/>
</g>
<rect x="32.625" y="168.625" width="18.75" height="18.75" rx="4.375" fill="white"/>
<rect x="32.625" y="168.625" width="18.75" height="18.75" rx="4.375" stroke="#F38744" stroke-width="1.25"/>
<path d="M77.078 184V173.57H80.494C81.5767 173.57 82.5147 173.789 83.308 174.228C84.1107 174.657 84.7313 175.264 85.17 176.048C85.6087 176.832 85.828 177.742 85.828 178.778C85.828 179.805 85.6087 180.715 85.17 181.508C84.7313 182.292 84.1107 182.903 83.308 183.342C82.5147 183.781 81.5767 184 80.494 184H77.078ZM78.73 182.53H80.522C81.2593 182.53 81.8987 182.376 82.44 182.068C82.9907 181.76 83.4153 181.326 83.714 180.766C84.0127 180.206 84.162 179.543 84.162 178.778C84.162 178.013 84.008 177.355 83.7 176.804C83.4013 176.244 82.9813 175.81 82.44 175.502C81.8987 175.194 81.2593 175.04 80.522 175.04H78.73V182.53ZM90.955 184.168C90.227 184.168 89.5596 183.995 88.953 183.65C88.3556 183.305 87.8796 182.833 87.525 182.236C87.1703 181.639 86.993 180.962 86.993 180.206C86.993 179.441 87.1703 178.764 87.525 178.176C87.8796 177.579 88.3556 177.112 88.953 176.776C89.5503 176.431 90.2176 176.258 90.955 176.258C91.7016 176.258 92.369 176.431 92.957 176.776C93.5543 177.112 94.0256 177.579 94.371 178.176C94.7256 178.764 94.903 179.441 94.903 180.206C94.903 180.971 94.7256 181.653 94.371 182.25C94.0163 182.847 93.5403 183.319 92.943 183.664C92.3456 184 91.683 184.168 90.955 184.168ZM90.955 182.698C91.403 182.698 91.7996 182.591 92.145 182.376C92.4903 182.161 92.761 181.867 92.957 181.494C93.1623 181.111 93.265 180.682 93.265 180.206C93.265 179.73 93.1623 179.305 92.957 178.932C92.761 178.559 92.4903 178.265 92.145 178.05C91.7996 177.835 91.403 177.728 90.955 177.728C90.5163 177.728 90.1196 177.835 89.765 178.05C89.4196 178.265 89.1443 178.559 88.939 178.932C88.743 179.305 88.645 179.73 88.645 180.206C88.645 180.682 88.743 181.111 88.939 181.494C89.1443 181.867 89.4196 182.161 89.765 182.376C90.1196 182.591 90.5163 182.698 90.955 182.698ZM99.1494 184.168C98.5801 184.168 98.0808 184.042 97.6514 183.79C97.2221 183.529 96.8861 183.169 96.6434 182.712C96.4101 182.245 96.2934 181.709 96.2934 181.102V176.426H97.8754V180.962C97.8754 181.307 97.9454 181.611 98.0854 181.872C98.2254 182.133 98.4214 182.339 98.6734 182.488C98.9254 182.628 99.2148 182.698 99.5414 182.698C99.8774 182.698 100.171 182.623 100.423 182.474C100.675 182.325 100.871 182.115 101.011 181.844C101.161 181.573 101.235 181.256 101.235 180.892V176.426H102.803V184H101.305V182.516L101.473 182.712C101.296 183.179 101.002 183.538 100.591 183.79C100.181 184.042 99.7001 184.168 99.1494 184.168ZM108.697 184.168C108.109 184.168 107.572 184.047 107.087 183.804C106.611 183.561 106.242 183.211 105.981 182.754L106.163 182.46V184H104.651V173.402H106.233V177.994L105.981 177.63C106.261 177.201 106.634 176.865 107.101 176.622C107.567 176.379 108.099 176.258 108.697 176.258C109.415 176.258 110.059 176.431 110.629 176.776C111.207 177.121 111.66 177.593 111.987 178.19C112.323 178.787 112.491 179.459 112.491 180.206C112.491 180.953 112.323 181.625 111.987 182.222C111.66 182.819 111.212 183.295 110.643 183.65C110.073 183.995 109.425 184.168 108.697 184.168ZM108.543 182.698C108.991 182.698 109.387 182.591 109.733 182.376C110.078 182.161 110.349 181.867 110.545 181.494C110.75 181.111 110.853 180.682 110.853 180.206C110.853 179.73 110.75 179.305 110.545 178.932C110.349 178.559 110.078 178.265 109.733 178.05C109.387 177.835 108.991 177.728 108.543 177.728C108.104 177.728 107.707 177.835 107.353 178.05C107.007 178.265 106.732 178.559 106.527 178.932C106.331 179.305 106.233 179.73 106.233 180.206C106.233 180.682 106.331 181.111 106.527 181.494C106.732 181.867 107.007 182.161 107.353 182.376C107.707 182.591 108.104 182.698 108.543 182.698ZM114.029 184V173.402H115.611V184H114.029ZM121.017 184.168C120.261 184.168 119.589 183.995 119.001 183.65C118.422 183.295 117.97 182.819 117.643 182.222C117.316 181.615 117.153 180.939 117.153 180.192C117.153 179.427 117.316 178.75 117.643 178.162C117.979 177.574 118.427 177.112 118.987 176.776C119.547 176.431 120.182 176.258 120.891 176.258C121.46 176.258 121.969 176.356 122.417 176.552C122.865 176.748 123.243 177.019 123.551 177.364C123.859 177.7 124.092 178.087 124.251 178.526C124.419 178.965 124.503 179.431 124.503 179.926C124.503 180.047 124.498 180.173 124.489 180.304C124.48 180.435 124.461 180.556 124.433 180.668H118.399V179.408H123.537L122.781 179.982C122.874 179.525 122.842 179.119 122.683 178.764C122.534 178.4 122.3 178.115 121.983 177.91C121.675 177.695 121.311 177.588 120.891 177.588C120.471 177.588 120.098 177.695 119.771 177.91C119.444 178.115 119.192 178.414 119.015 178.806C118.838 179.189 118.768 179.655 118.805 180.206C118.758 180.719 118.828 181.167 119.015 181.55C119.211 181.933 119.482 182.231 119.827 182.446C120.182 182.661 120.583 182.768 121.031 182.768C121.488 182.768 121.876 182.665 122.193 182.46C122.52 182.255 122.776 181.989 122.963 181.662L124.251 182.292C124.102 182.647 123.868 182.969 123.551 183.258C123.243 183.538 122.87 183.762 122.431 183.93C122.002 184.089 121.53 184.168 121.017 184.168ZM130.328 184L127.724 176.426H129.404L131.392 182.46H130.804L132.834 176.426H134.276L136.292 182.46H135.704L137.706 176.426H139.386L136.768 184H135.34L133.296 177.826H133.814L131.77 184H130.328ZM142.465 184.168C141.952 184.168 141.499 184.079 141.107 183.902C140.725 183.715 140.426 183.463 140.211 183.146C139.997 182.819 139.889 182.437 139.889 181.998C139.889 181.587 139.978 181.219 140.155 180.892C140.342 180.565 140.627 180.29 141.009 180.066C141.392 179.842 141.873 179.683 142.451 179.59L145.083 179.156V180.402L142.759 180.808C142.339 180.883 142.031 181.018 141.835 181.214C141.639 181.401 141.541 181.643 141.541 181.942C141.541 182.231 141.649 182.469 141.863 182.656C142.087 182.833 142.372 182.922 142.717 182.922C143.147 182.922 143.52 182.829 143.837 182.642C144.164 182.455 144.416 182.208 144.593 181.9C144.771 181.583 144.859 181.233 144.859 180.85V178.904C144.859 178.531 144.719 178.227 144.439 177.994C144.169 177.751 143.805 177.63 143.347 177.63C142.927 177.63 142.559 177.742 142.241 177.966C141.933 178.181 141.705 178.461 141.555 178.806L140.239 178.148C140.379 177.775 140.608 177.448 140.925 177.168C141.243 176.879 141.611 176.655 142.031 176.496C142.461 176.337 142.913 176.258 143.389 176.258C143.987 176.258 144.514 176.37 144.971 176.594C145.438 176.818 145.797 177.131 146.049 177.532C146.311 177.924 146.441 178.381 146.441 178.904V184H144.929V182.628L145.251 182.67C145.074 182.978 144.845 183.244 144.565 183.468C144.295 183.692 143.982 183.865 143.627 183.986C143.282 184.107 142.895 184.168 142.465 184.168ZM151.091 184.168C150.317 184.168 149.635 183.977 149.047 183.594C148.469 183.211 148.063 182.698 147.829 182.054L149.047 181.48C149.253 181.909 149.533 182.25 149.887 182.502C150.251 182.754 150.653 182.88 151.091 182.88C151.465 182.88 151.768 182.796 152.001 182.628C152.235 182.46 152.351 182.231 152.351 181.942C152.351 181.755 152.3 181.606 152.197 181.494C152.095 181.373 151.964 181.275 151.805 181.2C151.656 181.125 151.502 181.069 151.343 181.032L150.153 180.696C149.5 180.509 149.01 180.229 148.683 179.856C148.366 179.473 148.207 179.03 148.207 178.526C148.207 178.069 148.324 177.672 148.557 177.336C148.791 176.991 149.113 176.725 149.523 176.538C149.934 176.351 150.396 176.258 150.909 176.258C151.6 176.258 152.216 176.431 152.757 176.776C153.299 177.112 153.681 177.583 153.905 178.19L152.687 178.764C152.538 178.4 152.3 178.111 151.973 177.896C151.656 177.681 151.297 177.574 150.895 177.574C150.55 177.574 150.275 177.658 150.069 177.826C149.864 177.985 149.761 178.195 149.761 178.456C149.761 178.633 149.808 178.783 149.901 178.904C149.995 179.016 150.116 179.109 150.265 179.184C150.415 179.249 150.569 179.305 150.727 179.352L151.959 179.716C152.585 179.893 153.065 180.173 153.401 180.556C153.737 180.929 153.905 181.377 153.905 181.9C153.905 182.348 153.784 182.745 153.541 183.09C153.308 183.426 152.981 183.692 152.561 183.888C152.141 184.075 151.651 184.168 151.091 184.168ZM155.455 184V173.402H157.037V177.91L156.785 177.714C156.972 177.238 157.271 176.879 157.681 176.636C158.092 176.384 158.568 176.258 159.109 176.258C159.669 176.258 160.164 176.379 160.593 176.622C161.023 176.865 161.359 177.201 161.601 177.63C161.844 178.059 161.965 178.549 161.965 179.1V184H160.397V179.534C160.397 179.151 160.323 178.829 160.173 178.568C160.033 178.297 159.837 178.092 159.585 177.952C159.333 177.803 159.044 177.728 158.717 177.728C158.4 177.728 158.111 177.803 157.849 177.952C157.597 178.092 157.397 178.297 157.247 178.568C157.107 178.839 157.037 179.161 157.037 179.534V184H155.455Z" fill="#6C737F"/>
<rect x="32.625" y="216.625" width="18.75" height="18.75" rx="4.375" fill="white"/>
<rect x="32.625" y="216.625" width="18.75" height="18.75" rx="4.375" stroke="#F38744" stroke-width="1.25"/>
<path d="M82.146 232.168C81.39 232.168 80.6853 232.033 80.032 231.762C79.388 231.491 78.8187 231.113 78.324 230.628C77.8387 230.143 77.456 229.573 77.176 228.92C76.9053 228.267 76.77 227.553 76.77 226.778C76.77 226.003 76.9053 225.289 77.176 224.636C77.456 223.973 77.8387 223.404 78.324 222.928C78.8093 222.443 79.3787 222.069 80.032 221.808C80.6853 221.537 81.39 221.402 82.146 221.402C82.9113 221.402 83.616 221.537 84.26 221.808C84.9133 222.069 85.4827 222.443 85.968 222.928C86.4627 223.413 86.8453 223.983 87.116 224.636C87.3867 225.289 87.522 226.003 87.522 226.778C87.522 227.553 87.382 228.267 87.102 228.92C86.8313 229.573 86.4533 230.143 85.968 230.628C85.4827 231.113 84.9133 231.491 84.26 231.762C83.6067 232.033 82.902 232.168 82.146 232.168ZM82.146 230.656C82.6873 230.656 83.182 230.558 83.63 230.362C84.0873 230.166 84.484 229.895 84.82 229.55C85.156 229.195 85.4173 228.785 85.604 228.318C85.7907 227.842 85.884 227.329 85.884 226.778C85.884 226.227 85.7907 225.719 85.604 225.252C85.4173 224.785 85.156 224.375 84.82 224.02C84.484 223.665 84.0873 223.39 83.63 223.194C83.182 222.998 82.6873 222.9 82.146 222.9C81.6047 222.9 81.1053 222.998 80.648 223.194C80.2 223.39 79.808 223.665 79.472 224.02C79.136 224.375 78.8747 224.785 78.688 225.252C78.5107 225.719 78.422 226.227 78.422 226.778C78.422 227.329 78.5107 227.842 78.688 228.318C78.8747 228.785 79.136 229.195 79.472 229.55C79.808 229.895 80.2047 230.166 80.662 230.362C81.1193 230.558 81.614 230.656 82.146 230.656ZM88.1856 232L90.8316 228.206L88.1856 224.426H90.0476L92.2176 227.59H91.3216L93.4916 224.426H95.3536L92.6936 228.206L95.3396 232H93.4776L91.3356 228.822H92.2036L90.0476 232H88.1856ZM96.4338 232V224.426H98.0158V232H96.4338ZM96.4338 223.39V221.57H98.0158V223.39H96.4338ZM104.877 232.168C104.14 232.168 103.454 232.033 102.819 231.762C102.194 231.491 101.648 231.118 101.181 230.642C100.724 230.157 100.365 229.587 100.103 228.934C99.8421 228.281 99.7114 227.562 99.7114 226.778C99.7114 226.003 99.8374 225.289 100.089 224.636C100.351 223.973 100.715 223.404 101.181 222.928C101.648 222.443 102.194 222.069 102.819 221.808C103.445 221.537 104.131 221.402 104.877 221.402C105.615 221.402 106.273 221.528 106.851 221.78C107.439 222.032 107.934 222.363 108.335 222.774C108.737 223.175 109.026 223.614 109.203 224.09L107.719 224.79C107.495 224.23 107.136 223.777 106.641 223.432C106.156 223.077 105.568 222.9 104.877 222.9C104.187 222.9 103.575 223.063 103.043 223.39C102.511 223.717 102.096 224.169 101.797 224.748C101.508 225.327 101.363 226.003 101.363 226.778C101.363 227.553 101.508 228.234 101.797 228.822C102.096 229.401 102.511 229.853 103.043 230.18C103.575 230.497 104.187 230.656 104.877 230.656C105.568 230.656 106.156 230.483 106.641 230.138C107.136 229.793 107.495 229.34 107.719 228.78L109.203 229.48C109.026 229.947 108.737 230.385 108.335 230.796C107.934 231.207 107.439 231.538 106.851 231.79C106.273 232.042 105.615 232.168 104.877 232.168ZM110.748 232V221.402H112.33V232H110.748ZM117.736 232.168C116.98 232.168 116.308 231.995 115.72 231.65C115.141 231.295 114.689 230.819 114.362 230.222C114.035 229.615 113.872 228.939 113.872 228.192C113.872 227.427 114.035 226.75 114.362 226.162C114.698 225.574 115.146 225.112 115.706 224.776C116.266 224.431 116.901 224.258 117.61 224.258C118.179 224.258 118.688 224.356 119.136 224.552C119.584 224.748 119.962 225.019 120.27 225.364C120.578 225.7 120.811 226.087 120.97 226.526C121.138 226.965 121.222 227.431 121.222 227.926C121.222 228.047 121.217 228.173 121.208 228.304C121.199 228.435 121.18 228.556 121.152 228.668H115.118V227.408H120.256L119.5 227.982C119.593 227.525 119.561 227.119 119.402 226.764C119.253 226.4 119.019 226.115 118.702 225.91C118.394 225.695 118.03 225.588 117.61 225.588C117.19 225.588 116.817 225.695 116.49 225.91C116.163 226.115 115.911 226.414 115.734 226.806C115.557 227.189 115.487 227.655 115.524 228.206C115.477 228.719 115.547 229.167 115.734 229.55C115.93 229.933 116.201 230.231 116.546 230.446C116.901 230.661 117.302 230.768 117.75 230.768C118.207 230.768 118.595 230.665 118.912 230.46C119.239 230.255 119.495 229.989 119.682 229.662L120.97 230.292C120.821 230.647 120.587 230.969 120.27 231.258C119.962 231.538 119.589 231.762 119.15 231.93C118.721 232.089 118.249 232.168 117.736 232.168ZM124.965 232.168C124.452 232.168 123.999 232.079 123.607 231.902C123.225 231.715 122.926 231.463 122.711 231.146C122.497 230.819 122.389 230.437 122.389 229.998C122.389 229.587 122.478 229.219 122.655 228.892C122.842 228.565 123.127 228.29 123.509 228.066C123.892 227.842 124.373 227.683 124.951 227.59L127.583 227.156V228.402L125.259 228.808C124.839 228.883 124.531 229.018 124.335 229.214C124.139 229.401 124.041 229.643 124.041 229.942C124.041 230.231 124.149 230.469 124.363 230.656C124.587 230.833 124.872 230.922 125.217 230.922C125.647 230.922 126.02 230.829 126.337 230.642C126.664 230.455 126.916 230.208 127.093 229.9C127.271 229.583 127.359 229.233 127.359 228.85V226.904C127.359 226.531 127.219 226.227 126.939 225.994C126.669 225.751 126.305 225.63 125.847 225.63C125.427 225.63 125.059 225.742 124.741 225.966C124.433 226.181 124.205 226.461 124.055 226.806L122.739 226.148C122.879 225.775 123.108 225.448 123.425 225.168C123.743 224.879 124.111 224.655 124.531 224.496C124.961 224.337 125.413 224.258 125.889 224.258C126.487 224.258 127.014 224.37 127.471 224.594C127.938 224.818 128.297 225.131 128.549 225.532C128.811 225.924 128.941 226.381 128.941 226.904V232H127.429V230.628L127.751 230.67C127.574 230.978 127.345 231.244 127.065 231.468C126.795 231.692 126.482 231.865 126.127 231.986C125.782 232.107 125.395 232.168 124.965 232.168ZM130.791 232V224.426H132.303V225.91L132.121 225.714C132.308 225.238 132.607 224.879 133.017 224.636C133.428 224.384 133.904 224.258 134.445 224.258C135.005 224.258 135.5 224.379 135.929 224.622C136.359 224.865 136.695 225.201 136.937 225.63C137.18 226.059 137.301 226.554 137.301 227.114V232H135.733V227.534C135.733 227.151 135.663 226.829 135.523 226.568C135.383 226.297 135.183 226.092 134.921 225.952C134.669 225.803 134.38 225.728 134.053 225.728C133.727 225.728 133.433 225.803 133.171 225.952C132.919 226.092 132.723 226.297 132.583 226.568C132.443 226.839 132.373 227.161 132.373 227.534V232H130.791Z" fill="#6C737F"/>
<defs>
<filter id="filter0_dd_919_10220" x="161" y="114.234" width="45.4258" height="45.4258" filterUnits="userSpaceOnUse" color-interpolation-filters="sRGB">
<feFlood flood-opacity="0" result="BackgroundImageFix"/>
<feColorMatrix in="SourceAlpha" type="matrix" values="0 0 0 0 0 0 0 0 0 0 0 0 0 0 0 0 0 0 127 0" result="hardAlpha"/>
<feMorphology radius="2" operator="erode" in="SourceAlpha" result="effect1_dropShadow_919_10220"/>
<feOffset dy="2"/>
<feGaussianBlur stdDeviation="2"/>
<feColorMatrix type="matrix" values="0 0 0 0 0.0627451 0 0 0 0 0.0941176 0 0 0 0 0.156863 0 0 0 0.06 0"/>
<feBlend mode="normal" in2="BackgroundImageFix" result="effect1_dropShadow_919_10220"/>
<feColorMatrix in="SourceAlpha" type="matrix" values="0 0 0 0 0 0 0 0 0 0 0 0 0 0 0 0 0 0 127 0" result="hardAlpha"/>
<feMorphology radius="2" operator="erode" in="SourceAlpha" result="effect2_dropShadow_919_10220"/>
<feOffset dy="4"/>
<feGaussianBlur stdDeviation="4"/>
<feColorMatrix type="matrix" values="0 0 0 0 0.0627451 0 0 0 0 0.0941176 0 0 0 0 0.156863 0 0 0 0.1 0"/>
<feBlend mode="normal" in2="effect1_dropShadow_919_10220" result="effect2_dropShadow_919_10220"/>
<feBlend mode="normal" in="SourceGraphic" in2="effect2_dropShadow_919_10220" result="shape"/>
</filter>
</defs>
</svg>
