<svg width="22" height="36" viewBox="0 0 22 36" fill="none" xmlns="http://www.w3.org/2000/svg">
<path d="M21.9031 13.9499C21.8388 13.8364 21.7455 13.742 21.6328 13.6763C21.5201 13.6106 21.392 13.576 21.2615 13.576H11.6001L13.2199 1.20002C13.2373 1.03438 13.1984 0.867722 13.1095 0.726864C13.0207 0.586006 12.887 0.479148 12.73 0.423497C12.5731 0.367846 12.4019 0.366639 12.2442 0.420071C12.0865 0.473503 11.9513 0.578464 11.8605 0.718055L0.111199 21.3023C0.0424925 21.4141 0.0048362 21.5421 0.00211219 21.6733C-0.00061183 21.8044 0.031695 21.9339 0.095702 22.0484C0.159709 22.1629 0.2531 22.2583 0.366244 22.3247C0.479388 22.3911 0.608191 22.4261 0.739373 22.4261H10.2564L8.97275 34.8207C8.96013 34.9857 9.00309 35.1503 9.09477 35.2881C9.18645 35.426 9.3216 35.5292 9.4787 35.5813C9.63581 35.6335 9.80585 35.6316 9.96177 35.576C10.1177 35.5204 10.2505 35.4143 10.3392 35.2744L21.8943 14.6924C21.9613 14.5805 21.9974 14.4528 21.999 14.3223C22.0005 14.1919 21.9675 14.0634 21.9031 13.9499Z" fill="#1849A9"/>
</svg>
