<svg width="56" height="56" viewBox="0 0 56 56" fill="none" xmlns="http://www.w3.org/2000/svg">
<path d="M0 7C0 3.13401 3.13401 0 7 0H49C52.866 0 56 3.13401 56 7V49C56 52.866 52.866 56 49 56H7C3.13401 56 0 52.866 0 49V7Z" fill="#D1E9FF"/>
<path d="M40.8631 25.1391C40.6498 23.2248 40.5165 21.5232 40.2765 19.8482C39.9565 17.6149 38.3299 16.259 35.9834 16.2324C32.3835 16.2058 28.7571 16.2324 25.1572 16.2324C24.7573 16.2324 24.3306 16.3122 23.9573 16.1792C23.6373 16.0729 23.424 15.7273 23.1573 15.488C23.424 15.2221 23.6373 14.9031 23.9306 14.7435C24.1706 14.6106 24.5173 14.6904 24.8106 14.6904C28.4104 14.6904 32.0369 14.6372 35.6367 14.7169C36.7033 14.7435 37.8499 14.9828 38.8099 15.4348C40.6765 16.3122 41.5831 17.9872 41.8231 19.9812C42.2764 23.7034 42.6763 27.4256 43.103 31.1477C43.3696 33.4342 43.6363 35.7207 43.8763 38.0072C43.903 38.3528 43.983 38.6985 43.983 39.0441C44.0629 40.3735 43.903 40.533 42.5964 40.5596C42.383 40.5596 42.1964 40.5596 41.9831 40.5596C32.6502 40.5596 23.344 40.5596 14.0112 40.5596C13.6645 40.5596 13.3179 40.5862 12.9712 40.5596C12.0646 40.4798 11.8513 40.1342 12.0912 39.2568C12.1446 39.0707 12.2512 38.8846 12.3046 38.6985C13.1045 36.7044 13.9045 34.7104 14.7044 32.7164C16.6244 27.8775 21.2641 25.0061 26.1172 25.1125C30.4903 25.1922 34.8368 25.1391 39.2099 25.1391C39.6898 25.1391 40.1965 25.1391 40.8631 25.1391ZM26.6505 34.1255C27.3438 34.1255 27.9838 33.4342 27.9304 32.743C27.8771 32.1049 27.2905 31.5466 26.6238 31.5466C25.9305 31.5466 25.3972 32.0783 25.3706 32.7696C25.3439 33.514 25.9305 34.1255 26.6505 34.1255ZM32.1436 34.1255C32.8102 34.1521 33.3968 33.6469 33.4502 32.9557C33.5035 32.2112 32.9702 31.5731 32.2502 31.5466C31.5836 31.52 30.9969 32.0517 30.917 32.7164C30.837 33.3811 31.4503 34.0723 32.1436 34.1255Z" fill="#1849A9"/>
</svg>
