<svg width="80" height="80" viewBox="0 0 80 80" fill="none" xmlns="http://www.w3.org/2000/svg">
<rect width="80" height="80" rx="40" fill="#F4F4F5"/>
<path fill-rule="evenodd" clip-rule="evenodd" d="M39.9994 30.8193C39.976 30.7753 39.9521 30.7312 39.9279 30.6871C39.0575 29.1046 37.4398 27.166 34.7493 27.166C33.6664 27.166 32.6278 27.5962 31.862 28.362C31.0962 29.1278 30.666 30.1664 30.666 31.2493C30.666 31.8629 30.8041 32.4622 31.0631 33.0057C30.8376 33.0107 30.6291 33.0194 30.4385 33.035C29.9773 33.0727 29.5185 33.1559 29.0771 33.3808C28.4185 33.7164 27.8831 34.2518 27.5475 34.9104C27.3226 35.3518 27.2394 35.8106 27.2017 36.2718C27.166 36.7088 27.166 37.2393 27.166 37.8543V40.2327C27.166 40.5594 27.166 40.7227 27.2296 40.8475C27.2855 40.9573 27.3748 41.0465 27.4845 41.1024C27.6093 41.166 27.7727 41.166 28.0994 41.166H38.8327V36.266C38.8327 35.9393 38.8327 35.776 38.8963 35.6512C38.9522 35.5414 39.0414 35.4522 39.1512 35.3963C39.276 35.3327 39.4393 35.3327 39.766 35.3327H40.2327C40.5594 35.3327 40.7227 35.3327 40.8475 35.3963C40.9573 35.4522 41.0465 35.5414 41.1024 35.6512C41.166 35.776 41.166 35.9393 41.166 36.266V41.166H51.8994C52.226 41.166 52.3894 41.166 52.5142 41.1024C52.6239 41.0465 52.7132 40.9573 52.7691 40.8475C52.8327 40.7227 52.8327 40.5594 52.8327 40.2327V37.8544C52.8327 37.2394 52.8327 36.7088 52.797 36.2718C52.7593 35.8106 52.6761 35.3518 52.4512 34.9104C52.1157 34.2518 51.5802 33.7164 50.9217 33.3808C50.4802 33.1559 50.0215 33.0727 49.5602 33.035C49.3696 33.0194 49.1611 33.0107 48.9357 33.0057C49.1946 32.4622 49.3327 31.8629 49.3327 31.2493C49.3327 30.1664 48.9025 29.1278 48.1367 28.362C47.3709 27.5962 46.3323 27.166 45.2494 27.166C42.5589 27.166 40.9412 29.1046 40.0709 30.6871C40.0466 30.7312 40.0228 30.7753 39.9994 30.8193ZM33.5119 30.0119C33.8401 29.6837 34.2852 29.4993 34.7493 29.4993C36.1422 29.4993 37.1496 30.4774 37.8833 31.8116C38.1063 32.217 38.2866 32.6267 38.429 32.9993H34.7493C34.2852 32.9993 33.8401 32.815 33.5119 32.4868C33.1837 32.1586 32.9993 31.7135 32.9993 31.2493C32.9993 30.7852 33.1837 30.3401 33.5119 30.0119ZM45.2494 32.9993H41.5697C41.7121 32.6267 41.8924 32.217 42.1154 31.8116C42.8492 30.4774 43.8565 29.4993 45.2494 29.4993C45.7135 29.4993 46.1586 29.6837 46.4868 30.0119C46.815 30.3401 46.9994 30.7852 46.9994 31.2493C46.9994 31.7135 46.815 32.1586 46.4868 32.4868C46.1586 32.815 45.7135 32.9993 45.2494 32.9993Z" fill="#F38744"/>
<path d="M28.0993 43.4994C27.7727 43.4994 27.6093 43.4994 27.4845 43.5629C27.3748 43.6189 27.2855 43.7081 27.2296 43.8179C27.166 43.9426 27.166 44.106 27.166 44.4327V47.9777C27.166 48.5926 27.166 49.1232 27.2017 49.5602C27.2394 50.0215 27.3226 50.4802 27.5475 50.9217C27.8831 51.5802 28.4185 52.1157 29.0771 52.4512C29.5185 52.6761 29.9773 52.7593 30.4385 52.797C30.8755 52.8327 31.406 52.8327 32.021 52.8327L47.9777 52.8327C48.5927 52.8327 49.1232 52.8327 49.5602 52.797C50.0215 52.7593 50.4802 52.6761 50.9217 52.4512C51.5802 52.1157 52.1157 51.5802 52.4512 50.9217C52.6761 50.4802 52.7593 50.0215 52.797 49.5602C52.8327 49.1232 52.8327 48.5927 52.8327 47.9777V44.4327C52.8327 44.106 52.8327 43.9426 52.7691 43.8179C52.7132 43.7081 52.6239 43.6189 52.5142 43.5629C52.3894 43.4994 52.226 43.4994 51.8994 43.4994H41.166V49.566C41.166 49.8927 41.166 50.0561 41.1024 50.1808C41.0465 50.2906 40.9573 50.3798 40.8475 50.4358C40.7227 50.4993 40.5594 50.4994 40.2327 50.4994H39.766C39.4393 50.4994 39.276 50.4993 39.1512 50.4358C39.0414 50.3798 38.9522 50.2906 38.8963 50.1808C38.8327 50.0561 38.8327 49.8927 38.8327 49.566V43.4994H28.0993Z" fill="#F38744"/>
</svg>
