<svg width="48" height="49" viewBox="0 0 48 49" fill="none" xmlns="http://www.w3.org/2000/svg">
<path d="M0 7.5C0 3.63401 3.13401 0.5 7 0.5H41C44.866 0.5 48 3.63401 48 7.5V41.5C48 45.366 44.866 48.5 41 48.5H7C3.13401 48.5 0 45.366 0 41.5V7.5Z" fill="#D1E9FF"/>
<path d="M24 25.5C25.6569 25.5 27 24.1569 27 22.5C27 20.8431 25.6569 19.5 24 19.5C22.3431 19.5 21 20.8431 21 22.5C21 24.1569 22.3431 25.5 24 25.5Z" stroke="#1849A9" stroke-width="2" stroke-linecap="round" stroke-linejoin="round"/>
<path d="M24 34.5C28 30.5 32 26.9183 32 22.5C32 18.0817 28.4183 14.5 24 14.5C19.5817 14.5 16 18.0817 16 22.5C16 26.9183 20 30.5 24 34.5Z" stroke="#1849A9" stroke-width="2" stroke-linecap="round" stroke-linejoin="round"/>
</svg>
