<svg width="48" height="49" viewBox="0 0 48 49" fill="none" xmlns="http://www.w3.org/2000/svg">
<path d="M0 7.5C0 3.63401 3.13401 0.5 7 0.5H41C44.866 0.5 48 3.63401 48 7.5V41.5C48 45.366 44.866 48.5 41 48.5H7C3.13401 48.5 0 45.366 0 41.5V7.5Z" fill="#D1E9FF"/>
<path d="M14.6867 28.1451L16.5949 27.0435C16.6983 26.9839 16.8196 26.9631 16.9369 26.9851L20.6914 27.6878C21 27.7455 21.2848 27.508 21.2834 27.1941L21.2688 23.9045C21.2684 23.8151 21.2919 23.7272 21.337 23.65L23.2317 20.4062C23.3303 20.2374 23.3215 20.0266 23.2091 19.8666L20.0189 15.3257M31.0002 17.3591C25.5002 20 28.5 23.5 29.5002 24C31.3773 24.9384 33.9876 25 33.9876 25C33.9958 24.8344 34 24.6677 34 24.5C34 18.9772 29.5228 14.5 24 14.5C18.4772 14.5 14 18.9772 14 24.5C14 30.0228 18.4772 34.5 24 34.5C24.1677 34.5 24.3344 34.4959 24.5 34.4877M28.7578 34.4398L25.591 26.091L33.9398 29.2578L30.2376 30.7376L28.7578 34.4398Z" stroke="#1849A9" stroke-width="2" stroke-linecap="round" stroke-linejoin="round"/>
</svg>
