<svg width="56" height="56" viewBox="0 0 56 56" fill="none" xmlns="http://www.w3.org/2000/svg">
<path d="M0 7C0 3.13401 3.13401 0 7 0H49C52.866 0 56 3.13401 56 7V49C56 52.866 52.866 56 49 56H7C3.13401 56 0 52.866 0 49V7Z" fill="#D1E9FF"/>
<path d="M41.7885 17.0002C41.6349 17.0037 41.4878 17.0558 41.3742 17.147C41.2606 17.2381 41.188 17.3622 41.1698 17.4966L40.221 22.644C36.5804 22.4933 34.7595 19.6913 34.6823 19.5701C34.457 19.2089 33.785 19.2089 33.5598 19.5701C33.5406 19.6005 31.586 22.6584 27.721 22.6584C23.8765 22.6584 21.9616 19.6946 21.8823 19.5701C21.657 19.2089 20.985 19.2089 20.7598 19.5701C20.7417 19.5997 18.8836 22.4894 15.221 22.644L14.2723 17.4966C14.2502 17.3652 14.1761 17.2449 14.0632 17.1569C13.9502 17.0689 13.8056 17.0189 13.6548 17.0156C13.5601 17.0137 13.4661 17.0303 13.3795 17.0642C13.293 17.0982 13.2161 17.1486 13.1544 17.2119C13.0927 17.2752 13.0477 17.3497 13.0227 17.4302C12.9977 17.5106 12.9933 17.5949 13.0098 17.6771L14.046 23.3055C14.0464 23.3077 14.0456 23.3099 14.046 23.3121L16.8485 38.5267C16.849 38.5296 16.8517 38.5316 16.8523 38.5344C16.8643 38.595 16.8875 38.6533 16.921 38.7072C16.9246 38.713 16.9285 38.7182 16.9323 38.7238C16.9667 38.7749 17.0102 38.821 17.061 38.8602C17.0623 38.8613 17.0635 38.8624 17.0648 38.8635C17.0676 38.8656 17.0707 38.867 17.0735 38.869C17.1273 38.9087 17.1881 38.9403 17.2535 38.9626C17.2561 38.9635 17.2584 38.965 17.261 38.9659C17.3315 38.9885 17.406 39.0001 17.481 39H37.961C38.0339 38.9994 38.1062 38.9879 38.1748 38.9659C38.1811 38.9639 38.1873 38.9625 38.1935 38.9604C38.2584 38.9383 38.3188 38.9071 38.3723 38.8679C38.3735 38.8672 38.3748 38.8665 38.376 38.8657C38.3776 38.8645 38.3782 38.8625 38.3798 38.8613C38.4317 38.8216 38.476 38.7748 38.511 38.7227C38.5142 38.7179 38.5167 38.7132 38.5198 38.7083C38.5556 38.6519 38.5801 38.5905 38.5923 38.5267L41.396 23.3121C41.3964 23.3099 41.3956 23.3077 41.396 23.3055L42.4323 17.6771C42.4517 17.5939 42.4495 17.508 42.4259 17.4257C42.4023 17.3434 42.3579 17.2668 42.296 17.2017C42.2341 17.1367 42.1564 17.0847 42.0685 17.0498C41.9806 17.0149 41.8849 16.998 41.7885 17.0002Z" fill="#1849A9"/>
</svg>
