<svg width="56" height="56" viewBox="0 0 56 56" fill="none" xmlns="http://www.w3.org/2000/svg">
<path d="M0 7C0 3.13401 3.13401 0 7 0H49C52.866 0 56 3.13401 56 7V49C56 52.866 52.866 56 49 56H7C3.13401 56 0 52.866 0 49V7Z" fill="#D1E9FF"/>
<path fill-rule="evenodd" clip-rule="evenodd" d="M27.9994 18.2603C26.7336 18.2603 25.6097 18.8672 24.9024 19.8086C24.6618 20.1288 24.47 20.487 24.3376 20.8724C24.2245 21.2016 23.866 21.3767 23.5369 21.2636C23.2077 21.1505 23.0326 20.792 23.1457 20.4628C23.3217 19.9507 23.5763 19.4755 23.8948 19.0516C24.8299 17.807 26.3205 17 27.9994 17C30.8333 17 33.1306 19.2973 33.1306 22.1312C33.1306 23.6074 32.3319 24.8822 31.3772 25.8654C30.4158 26.8555 29.2276 27.6229 28.2812 28.0961C28.2743 28.0996 28.2673 28.1029 28.2602 28.1061L18.3579 32.6072C18.041 32.7512 17.6674 32.6111 17.5234 32.2943C17.3794 31.9775 17.5195 31.6039 17.8363 31.4599L27.7279 26.9637C28.5802 26.5363 29.6374 25.8481 30.473 24.9875C31.3187 24.1166 31.8703 23.1409 31.8703 22.1312C31.8703 19.9934 30.1373 18.2603 27.9994 18.2603Z" fill="#1849A9"/>
<path fill-rule="evenodd" clip-rule="evenodd" d="M28 27.2645L34.0622 29.4469C35.0905 29.8171 35.6501 30.0185 36.1689 30.2615C38.7558 31.4732 40.8441 33.5424 42.0794 36.1182C42.3271 36.6348 42.5337 37.1925 42.9132 38.2172L42.9276 38.256C42.9276 38.256 42.9284 38.2581 42.9291 38.2599C42.9377 38.2821 42.9756 38.3798 42.9903 38.4767C43.0582 38.9258 42.7632 39.3497 42.3184 39.442C42.2224 39.4619 42.1176 39.4602 42.0939 39.4598C42.0919 39.4598 42.0897 39.4598 42.0897 39.4598H13.9103C13.9103 39.4598 13.9081 39.4598 13.9061 39.4598C13.8824 39.4602 13.7776 39.4619 13.6816 39.442C13.2368 39.3497 12.9418 38.9258 13.0097 38.4767C13.0244 38.3797 13.0624 38.282 13.0709 38.2599C13.0716 38.2581 13.0724 38.256 13.0724 38.256L13.0757 38.2472L13.0868 38.2173C13.4663 37.1925 13.6729 36.6348 13.9206 36.1182C15.1559 33.5424 17.2442 31.4732 19.8311 30.2615C20.3499 30.0185 20.9095 29.8171 21.9378 29.4469L28 27.2645Z" fill="#1849A9"/>
</svg>
