<svg width="40" height="40" viewBox="0 0 40 40" fill="none" xmlns="http://www.w3.org/2000/svg">
<path d="M14.5625 27.09C15.2214 27.3529 15.8679 26.7094 15.6494 26.0247C14.1502 21.3247 8.72246 19.5714 3.67667 23.7413C1.02253 25.9349 0.0251571 26.401 0 26.4128C1.74974 28.1925 3.74871 34.1653 8.11119 34.8257C12.9168 35.7122 17.17 30.902 13.6902 28.7008C11.4018 27.2534 8.70729 26.4125 5.81908 26.4125C8.84699 25.7182 11.8698 26.016 14.5625 27.09Z" fill="#2DA771"/>
<path d="M36.3224 23.7407C27.6125 16.5428 22.0578 27.8941 25.5105 26.7688C27.9628 25.9698 30.6437 25.7956 33.3328 26.4124C28.7766 26.4124 24.5766 28.5367 21.7764 31.9945C22.0064 26.5605 22.3541 23.1591 22.7574 20.6288C25.0848 20.5475 28.1868 18.6353 29.8904 15.2894C32.8272 9.94222 31.4652 4.45956 31.027 1C28.7323 3.27347 18.708 0.609562 14.7341 7.5376C12.9787 10.598 13.489 14.3221 15.3355 17.0474C15.9201 17.9101 17.3178 17.4961 17.3577 16.4492C17.5311 11.8946 19.7591 8.45345 23.9127 6.54752C22.0488 9.00445 20.8251 11.7552 20.1928 14.5982C19.2101 19.0271 18.1838 21.9322 17.8068 36.0482C17.7686 37.4799 18.9085 38.6648 20.316 38.6468C21.335 38.6338 22.2078 37.976 22.5997 37.0189C23.1957 35.5634 24.1657 34.0569 25.7441 32.6768C27.2441 34.3636 29.5267 35.2612 31.8885 34.8254C36.2324 34.1678 38.2597 28.1821 39.9995 26.4121C39.9741 26.4007 38.9766 25.9346 36.3224 23.7407Z" fill="#2DA771"/>
</svg>
