<svg width="20" height="20" viewBox="0 0 20 20" fill="none" xmlns="http://www.w3.org/2000/svg">
<path fill-rule="evenodd" clip-rule="evenodd" d="M9.9987 3.44289C9.98199 3.41145 9.96496 3.37996 9.94763 3.34844C9.32593 2.21809 8.17045 0.833374 6.2487 0.833374C5.47515 0.833374 4.73328 1.14066 4.1863 1.68765C3.63932 2.23463 3.33203 2.97649 3.33203 3.75004C3.33203 4.18829 3.43066 4.61636 3.61563 5.00459C3.45456 5.00812 3.30567 5.01439 3.16951 5.02552C2.84006 5.05243 2.51238 5.11187 2.19706 5.27253C1.72665 5.51221 1.3442 5.89466 1.10452 6.36507C0.943857 6.68038 0.884427 7.00807 0.857509 7.33752C0.832008 7.64964 0.832019 8.02861 0.832032 8.46785V10.1667C0.832032 10.4001 0.832032 10.5167 0.877446 10.6059C0.917393 10.6843 0.981135 10.748 1.05954 10.788C1.14867 10.8334 1.26534 10.8334 1.4987 10.8334H9.16537V7.33337C9.16537 7.10002 9.16537 6.98334 9.21078 6.89421C9.25073 6.81581 9.31447 6.75207 9.39287 6.71212C9.482 6.66671 9.59868 6.66671 9.83203 6.66671H10.1654C10.3987 6.66671 10.5154 6.66671 10.6045 6.71212C10.6829 6.75207 10.7467 6.81581 10.7866 6.89421C10.832 6.98334 10.832 7.10002 10.832 7.33337V10.8334H18.4987C18.7321 10.8334 18.8487 10.8334 18.9379 10.788C19.0163 10.748 19.08 10.6843 19.12 10.6059C19.1654 10.5167 19.1654 10.4001 19.1654 10.1667V8.46791C19.1654 8.02862 19.1654 7.64966 19.1399 7.33752C19.113 7.00807 19.0535 6.68038 18.8929 6.36507C18.6532 5.89466 18.2707 5.51221 17.8003 5.27253C17.485 5.11187 17.1573 5.05244 16.8279 5.02552C16.6917 5.01439 16.5428 5.00812 16.3818 5.00459C16.5667 4.61636 16.6654 4.18829 16.6654 3.75004C16.6654 2.97649 16.3581 2.23463 15.8111 1.68765C15.2641 1.14066 14.5223 0.833374 13.7487 0.833374C11.827 0.833374 10.6715 2.21809 10.0498 3.34844C10.0324 3.37996 10.0154 3.41145 9.9987 3.44289ZM5.36481 2.86616C5.59924 2.63174 5.91718 2.50004 6.2487 2.50004C7.24362 2.50004 7.96313 3.19866 8.48727 4.15164C8.64654 4.44122 8.77532 4.73389 8.87705 5.00004H6.2487C5.91718 5.00004 5.59924 4.86834 5.36481 4.63392C5.13039 4.3995 4.9987 4.08156 4.9987 3.75004C4.9987 3.41852 5.13039 3.10058 5.36481 2.86616ZM13.7487 5.00004H11.1204C11.2221 4.73389 11.3509 4.44122 11.5101 4.15164C12.0343 3.19866 12.7538 2.50004 13.7487 2.50004C14.0802 2.50004 14.3982 2.63174 14.6326 2.86616C14.867 3.10058 14.9987 3.41852 14.9987 3.75004C14.9987 4.08156 14.867 4.3995 14.6326 4.63392C14.3982 4.86834 14.0802 5.00004 13.7487 5.00004Z" fill="#4D5761"/>
<path d="M1.4987 12.5C1.26534 12.5 1.14867 12.5 1.05954 12.5455C0.981135 12.5854 0.917393 12.6491 0.877446 12.7275C0.832032 12.8167 0.832032 12.9334 0.832032 13.1667V15.6988C0.832019 16.1381 0.832008 16.5171 0.857509 16.8292C0.884427 17.1587 0.943857 17.4864 1.10452 17.8017C1.3442 18.2721 1.72665 18.6545 2.19706 18.8942C2.51237 19.0549 2.84006 19.1143 3.16951 19.1412C3.48165 19.1667 3.86061 19.1667 4.2999 19.1667L15.6975 19.1667C16.1368 19.1667 16.5158 19.1667 16.8279 19.1412C17.1573 19.1143 17.485 19.0549 17.8003 18.8942C18.2707 18.6545 18.6532 18.2721 18.8929 17.8017C19.0535 17.4864 19.113 17.1587 19.1399 16.8292C19.1654 16.5171 19.1654 16.1381 19.1654 15.6988V13.1667C19.1654 12.9334 19.1654 12.8167 19.12 12.7275C19.08 12.6491 19.0163 12.5854 18.9379 12.5455C18.8487 12.5 18.7321 12.5 18.4987 12.5H10.832V16.8334C10.832 17.0667 10.832 17.1834 10.7866 17.2725C10.7467 17.3509 10.6829 17.4147 10.6045 17.4546C10.5154 17.5 10.3987 17.5 10.1654 17.5H9.83203C9.59868 17.5 9.482 17.5 9.39287 17.4546C9.31447 17.4147 9.25073 17.3509 9.21078 17.2725C9.16537 17.1834 9.16537 17.0667 9.16537 16.8334V12.5H1.4987Z" fill="#4D5761"/>
</svg>
