<svg width="153" height="45" viewBox="0 0 153 45" fill="none" xmlns="http://www.w3.org/2000/svg">
<path d="M146.974 44.9766H5.94864C2.84749 44.9766 0.307617 42.5002 0.307617 39.4766V6.47656C0.307617 3.45294 2.84749 0.976562 5.94864 0.976562H146.974C150.075 0.976562 152.615 3.45294 152.615 6.47656V39.4766C152.615 42.5002 150.075 44.9766 146.974 44.9766Z" fill="white"/>
<path d="M146.974 1.85793C149.586 1.85793 151.711 3.93006 151.711 6.47656V39.4766C151.711 42.0231 149.586 44.0952 146.974 44.0952H5.94864C3.33685 44.0952 1.21159 42.0231 1.21159 39.4766V6.47656C1.21159 3.93006 3.33685 1.85793 5.94864 1.85793H146.974ZM146.974 0.976562H5.94864C2.84749 0.976562 0.307617 3.45294 0.307617 6.47656V39.4766C0.307617 42.5002 2.84749 44.9766 5.94864 44.9766H146.974C150.075 44.9766 152.615 42.5002 152.615 39.4766V6.47656C152.615 3.45294 150.075 0.976562 146.974 0.976562Z" fill="#A6A6A6"/>
<path d="M12.0808 9.26917C11.7494 9.60742 11.5576 10.134 11.5576 10.816V35.1425C11.5576 35.8245 11.7494 36.3512 12.0808 36.6894L12.1626 36.7637L26.1439 23.1374V22.8157L12.1626 9.18942L12.0808 9.26917Z" fill="url(#paint0_linear_2024_6948)"/>
<path d="M30.7988 27.6816L26.1436 23.1373V22.8155L30.8045 18.2711L30.9088 18.3303L36.4286 21.3924C38.0038 22.2614 38.0038 23.6914 36.4286 24.5659L30.9088 27.6225L30.7988 27.6816Z" fill="url(#paint1_linear_2024_6948)"/>
<path d="M30.9094 27.6223L26.1441 22.9762L12.0811 36.689C12.6043 37.2253 13.4575 37.2899 14.4277 36.7537L30.9094 27.6223Z" fill="url(#paint2_linear_2024_6948)"/>
<path d="M30.9094 18.3304L14.4277 9.19907C13.4575 8.66832 12.6043 8.73294 12.0811 9.26919L26.1441 22.9766L30.9094 18.3304Z" fill="url(#paint3_linear_2024_6948)"/>
<path d="M53.8045 12.2459C53.8045 13.1644 53.5224 13.9 52.9668 14.4487C52.3279 15.099 51.4959 15.4263 50.4763 15.4263C49.5018 15.4263 48.6697 15.0935 47.9872 14.4377C47.3032 13.7722 46.9619 12.9554 46.9619 11.9778C46.9619 11.0002 47.3032 10.1834 47.9872 9.52342C48.6697 8.86205 49.5018 8.5293 50.4763 8.5293C50.9614 8.5293 51.424 8.62692 51.8654 8.80842C52.3054 8.9913 52.6636 9.2388 52.9231 9.54405L52.3336 10.1243C51.8809 9.60317 51.2646 9.34605 50.4763 9.34605C49.7655 9.34605 49.1492 9.58805 48.626 10.0762C48.1085 10.5657 47.849 11.1995 47.849 11.9778C47.849 12.756 48.1085 13.3954 48.626 13.8849C49.1492 14.3675 49.7655 14.615 50.4763 14.615C51.2308 14.615 51.8654 14.3675 52.366 13.8794C52.696 13.5563 52.8836 13.1108 52.9329 12.5415H50.4763V11.7468H53.7537C53.7932 11.9187 53.8045 12.085 53.8045 12.2459Z" fill="black" stroke="black" stroke-width="0.16" stroke-miterlimit="10"/>
<path d="M59.0048 9.48956H55.9262V11.5796H58.7016V12.3743H55.9262V14.4643H59.0048V15.2742H55.0547V8.67969H59.0048V9.48956Z" fill="black" stroke="black" stroke-width="0.16" stroke-miterlimit="10"/>
<path d="M62.6739 15.2742H61.8024V9.48956H59.9141V8.67969H64.5637V9.48956H62.6739V15.2742Z" fill="black" stroke="black" stroke-width="0.16" stroke-miterlimit="10"/>
<path d="M67.9277 15.2742V8.67969H68.7979V15.2742H67.9277Z" fill="black" stroke="black" stroke-width="0.16" stroke-miterlimit="10"/>
<path d="M72.6544 15.2742H71.7899V9.48956H69.8945V8.67969H74.5498V9.48956H72.6544V15.2742Z" fill="black" stroke="black" stroke-width="0.16" stroke-miterlimit="10"/>
<path d="M83.3537 14.4267C82.6867 15.0935 81.8603 15.4263 80.8745 15.4263C79.8831 15.4263 79.0567 15.0935 78.3896 14.4267C77.724 13.7612 77.3926 12.9444 77.3926 11.9778C77.3926 11.0112 77.724 10.1944 78.3896 9.52892C79.0567 8.86205 79.8831 8.5293 80.8745 8.5293C81.8546 8.5293 82.681 8.86205 83.3481 9.53442C84.0194 10.2054 84.3508 11.0167 84.3508 11.9778C84.3508 12.9444 84.0194 13.7612 83.3537 14.4267ZM79.0341 13.8739C79.5362 14.3675 80.1468 14.615 80.8745 14.615C81.5966 14.615 82.2128 14.3675 82.7092 13.8739C83.2099 13.3803 83.4637 12.7464 83.4637 11.9778C83.4637 11.2092 83.2099 10.5753 82.7092 10.0817C82.2128 9.58805 81.5966 9.34055 80.8745 9.34055C80.1468 9.34055 79.5362 9.58805 79.0341 10.0817C78.5335 10.5753 78.2796 11.2092 78.2796 11.9778C78.2796 12.7464 78.5335 13.3803 79.0341 13.8739Z" fill="black" stroke="black" stroke-width="0.16" stroke-miterlimit="10"/>
<path d="M85.5742 15.2742V8.67969H86.6319L89.9206 13.8084H89.9587L89.9206 12.5407V8.67969H90.7908V15.2742H89.8825L86.4387 9.89244H86.4006L86.4387 11.1657V15.2742H85.5742Z" fill="black" stroke="black" stroke-width="0.16" stroke-miterlimit="10"/>
<path d="M77.1781 24.9034C74.5282 24.9034 72.3635 26.8697 72.3635 29.5826C72.3635 32.2734 74.5282 34.2603 77.1781 34.2603C79.8336 34.2603 81.9983 32.2734 81.9983 29.5826C81.9983 26.8697 79.8336 24.9034 77.1781 24.9034ZM77.1781 32.4178C75.7241 32.4178 74.4732 31.2477 74.4732 29.5826C74.4732 27.8954 75.7241 26.7459 77.1781 26.7459C78.632 26.7459 79.8886 27.8954 79.8886 29.5826C79.8886 31.2477 78.632 32.4178 77.1781 32.4178ZM66.6731 24.9034C64.0176 24.9034 61.8585 26.8697 61.8585 29.5826C61.8585 32.2734 64.0176 34.2603 66.6731 34.2603C69.3272 34.2603 71.4877 32.2734 71.4877 29.5826C71.4877 26.8697 69.3272 24.9034 66.6731 24.9034ZM66.6731 32.4178C65.2177 32.4178 63.9626 31.2477 63.9626 29.5826C63.9626 27.8954 65.2177 26.7459 66.6731 26.7459C68.1271 26.7459 69.378 27.8954 69.378 29.5826C69.378 31.2477 68.1271 32.4178 66.6731 32.4178ZM54.1726 26.3376V28.3258H59.0422C58.8998 29.4368 58.519 30.2536 57.9351 30.8228C57.2244 31.5103 56.1173 32.2734 54.1726 32.2734C51.1758 32.2734 48.8291 29.9153 48.8291 26.9934C48.8291 24.0716 51.1758 21.7134 54.1726 21.7134C55.793 21.7134 56.9719 22.3308 57.8421 23.1311L59.2791 21.7299C58.0621 20.5969 56.4431 19.7266 54.1726 19.7266C50.0631 19.7266 46.6094 22.9867 46.6094 26.9934C46.6094 31.0002 50.0631 34.2603 54.1726 34.2603C56.3937 34.2603 58.0621 33.5508 59.3736 32.2198C60.7176 30.9094 61.1364 29.0669 61.1364 27.5792C61.1364 27.1172 61.0969 26.6923 61.0264 26.3376H54.1726ZM105.289 27.8789C104.892 26.8326 103.67 24.9034 101.179 24.9034C98.7113 24.9034 96.6565 26.7996 96.6565 29.5826C96.6565 32.2033 98.6901 34.2603 101.416 34.2603C103.62 34.2603 104.892 32.9499 105.416 32.1868L103.78 31.1239C103.234 31.9022 102.491 32.4178 101.416 32.4178C100.349 32.4178 99.5828 31.9407 99.092 31.0002L105.51 28.4111L105.289 27.8789ZM98.7451 29.4368C98.6901 27.6328 100.182 26.7088 101.251 26.7088C102.089 26.7088 102.8 27.1172 103.037 27.7016L98.7451 29.4368ZM93.5286 33.9757H95.6383V20.2257H93.5286V33.9757ZM90.0735 25.9457H90.0029C89.5291 25.3984 88.6251 24.9034 87.48 24.9034C85.0769 24.9034 82.8797 26.9604 82.8797 29.5977C82.8797 32.2198 85.0769 34.2603 87.48 34.2603C88.6251 34.2603 89.5291 33.7612 90.0029 33.1974H90.0735V33.8684C90.0735 35.6573 89.0933 36.6184 87.5124 36.6184C86.2235 36.6184 85.4238 35.7109 85.0938 34.9478L83.2591 35.6944C83.7879 36.9347 85.1883 38.4609 87.5124 38.4609C89.986 38.4609 92.0732 37.0419 92.0732 33.5893V25.1881H90.0735V25.9457ZM87.6605 32.4178C86.2065 32.4178 84.9895 31.2312 84.9895 29.5977C84.9895 27.9491 86.2065 26.7459 87.6605 26.7459C89.0933 26.7459 90.2229 27.9491 90.2229 29.5977C90.2229 31.2312 89.0933 32.4178 87.6605 32.4178ZM115.166 20.2257H110.12V33.9757H112.224V28.7658H115.166C117.503 28.7658 119.795 27.1172 119.795 24.4951C119.795 21.8743 117.497 20.2257 115.166 20.2257ZM115.221 26.8532H112.224V22.1383H115.221C116.792 22.1383 117.689 23.4102 117.689 24.4951C117.689 25.5593 116.792 26.8532 115.221 26.8532ZM128.228 24.8773C126.708 24.8773 125.127 25.5318 124.477 26.9824L126.344 27.7456C126.746 26.9824 127.485 26.7349 128.266 26.7349C129.358 26.7349 130.465 27.3743 130.482 28.5032V28.6476C130.101 28.4331 129.286 28.1154 128.283 28.1154C126.272 28.1154 124.223 29.1948 124.223 31.2092C124.223 33.0517 125.87 34.2383 127.722 34.2383C129.138 34.2383 129.919 33.6154 130.41 32.8908H130.482V33.9537H132.514V28.6792C132.514 26.2413 130.647 24.8773 128.228 24.8773ZM127.974 32.4123C127.286 32.4123 126.327 32.0796 126.327 31.2477C126.327 30.1834 127.523 29.7751 128.558 29.7751C129.484 29.7751 129.919 29.9744 130.482 30.2371C130.317 31.5103 129.193 32.4123 127.974 32.4123ZM139.918 25.1784L137.499 31.1391H137.427L134.927 25.1784H132.658L136.414 33.5082L134.271 38.1433H136.469L142.259 25.1784H139.918ZM120.951 33.9757H123.061V20.2257H120.951V33.9757Z" fill="black"/>
<defs>
<linearGradient id="paint0_linear_2024_6948" x1="24.9025" y1="35.3959" x2="6.4478" y2="16.468" gradientUnits="userSpaceOnUse">
<stop stop-color="#00A0FF"/>
<stop offset="0.0066" stop-color="#00A1FF"/>
<stop offset="0.2601" stop-color="#00BEFF"/>
<stop offset="0.5122" stop-color="#00D2FF"/>
<stop offset="0.7604" stop-color="#00DFFF"/>
<stop offset="1" stop-color="#00E3FF"/>
</linearGradient>
<linearGradient id="paint1_linear_2024_6948" x1="38.4798" y1="22.9749" x2="11.1807" y2="22.9749" gradientUnits="userSpaceOnUse">
<stop stop-color="#FFE000"/>
<stop offset="0.4087" stop-color="#FFBD00"/>
<stop offset="0.7754" stop-color="#FFA500"/>
<stop offset="1" stop-color="#FF9C00"/>
</linearGradient>
<linearGradient id="paint2_linear_2024_6948" x1="28.3182" y1="20.4505" x2="3.29208" y2="-5.21734" gradientUnits="userSpaceOnUse">
<stop stop-color="#FF3A44"/>
<stop offset="1" stop-color="#C31162"/>
</linearGradient>
<linearGradient id="paint3_linear_2024_6948" x1="8.54109" y1="44.7827" x2="19.7164" y2="33.321" gradientUnits="userSpaceOnUse">
<stop stop-color="#32A071"/>
<stop offset="0.0685" stop-color="#2DA771"/>
<stop offset="0.4762" stop-color="#15CF74"/>
<stop offset="0.8009" stop-color="#06E775"/>
<stop offset="1" stop-color="#00F076"/>
</linearGradient>
</defs>
</svg>
