<svg width="180" height="53" viewBox="0 0 180 53" fill="none" xmlns="http://www.w3.org/2000/svg">
<path d="M173.333 52.1719H6.66667C3.00167 52.1719 0 49.2453 0 45.6719V6.67188C0 3.0985 3.00167 0.171878 6.66667 0.171878H173.333C176.998 0.171878 180 3.0985 180 6.67188V45.6719C180 49.2453 176.998 52.1719 173.333 52.1719Z" fill="black"/>
<path d="M173.333 1.2135C176.42 1.2135 178.932 3.66238 178.932 6.67188V45.6719C178.932 48.6814 176.42 51.1303 173.333 51.1303H6.66667C3.58 51.1303 1.06833 48.6814 1.06833 45.6719V6.67188C1.06833 3.66238 3.58 1.2135 6.66667 1.2135H173.333ZM173.333 0.171878H6.66667C3.00167 0.171878 0 3.0985 0 6.67188V45.6719C0 49.2453 3.00167 52.1719 6.66667 52.1719H173.333C176.998 52.1719 180 49.2453 180 45.6719V6.67188C180 3.0985 176.998 0.171878 173.333 0.171878Z" fill="#A6A6A6"/>
<path d="M13.9133 9.97134C13.5216 10.3711 13.2949 10.9935 13.2949 11.7995V40.549C13.2949 41.355 13.5216 41.9773 13.9133 42.3771L14.0099 42.4648L30.5332 26.3611V25.9808L14.0099 9.8771L13.9133 9.97134Z" fill="url(#paint0_linear_917_6278)"/>
<path d="M36.0349 31.7324L30.5332 26.3618V25.9815L36.0415 20.6109L36.1649 20.6808L42.6882 24.2997C44.5499 25.3267 44.5499 27.0167 42.6882 28.0502L36.1649 31.6625L36.0349 31.7324Z" fill="url(#paint1_linear_917_6278)"/>
<path d="M36.1657 31.6621L30.5341 26.1712L13.9141 42.3774C14.5324 43.0111 15.5407 43.0875 16.6874 42.4537L36.1657 31.6621Z" fill="url(#paint2_linear_917_6278)"/>
<path d="M36.1657 20.681L16.6874 9.88938C15.5407 9.26213 14.5324 9.3385 13.9141 9.97225L30.5341 26.1719L36.1657 20.681Z" fill="url(#paint3_linear_917_6278)"/>
<path d="M63.2234 13.49C63.2234 14.5755 62.8901 15.4449 62.2334 16.0933C61.4784 16.8619 60.4951 17.2487 59.2901 17.2487C58.1384 17.2487 57.155 16.8554 56.3484 16.0803C55.54 15.2938 55.1367 14.3285 55.1367 13.1732C55.1367 12.0178 55.54 11.0525 56.3484 10.2725C57.155 9.49091 58.1384 9.09766 59.2901 9.09766C59.8634 9.09766 60.41 9.21303 60.9317 9.42753C61.4517 9.64366 61.875 9.93616 62.1817 10.2969L61.4851 10.9827C60.95 10.3668 60.2217 10.0629 59.2901 10.0629C58.4501 10.0629 57.7217 10.3489 57.1034 10.9258C56.4917 11.5043 56.185 12.2534 56.185 13.1732C56.185 14.0929 56.4917 14.8485 57.1034 15.427C57.7217 15.9974 58.4501 16.2899 59.2901 16.2899C60.1817 16.2899 60.9317 15.9974 61.5234 15.4205C61.9134 15.0387 62.1351 14.5122 62.1934 13.8394H59.2901V12.9002H63.1634C63.2101 13.1033 63.2234 13.2999 63.2234 13.49Z" fill="white" stroke="white" stroke-width="0.16" stroke-miterlimit="10"/>
<path d="M69.3676 10.2325H65.7292V12.7025H69.0092V13.6418H65.7292V16.1118H69.3676V17.0689H64.6992V9.27539H69.3676V10.2325Z" fill="white" stroke="white" stroke-width="0.16" stroke-miterlimit="10"/>
<path d="M73.705 17.0689H72.675V10.2325H70.4434V9.27539H75.9384V10.2325H73.705V17.0689Z" fill="white" stroke="white" stroke-width="0.16" stroke-miterlimit="10"/>
<path d="M79.916 17.0689V9.27539H80.9444V17.0689H79.916Z" fill="white" stroke="white" stroke-width="0.16" stroke-miterlimit="10"/>
<path d="M85.5019 17.0689H84.4802V10.2325H82.2402V9.27539H87.7419V10.2325H85.5019V17.0689Z" fill="white" stroke="white" stroke-width="0.16" stroke-miterlimit="10"/>
<path d="M98.1446 16.0673C97.3563 16.8554 96.3796 17.2487 95.2146 17.2487C94.0429 17.2487 93.0663 16.8554 92.2779 16.0673C91.4913 15.2808 91.0996 14.3155 91.0996 13.1732C91.0996 12.0308 91.4913 11.0655 92.2779 10.279C93.0663 9.49091 94.0429 9.09766 95.2146 9.09766C96.3729 9.09766 97.3496 9.49091 98.138 10.2855C98.9313 11.0785 99.3229 12.0373 99.3229 13.1732C99.3229 14.3155 98.9313 15.2808 98.1446 16.0673ZM93.0396 15.414C93.6329 15.9974 94.3546 16.2899 95.2146 16.2899C96.0679 16.2899 96.7963 15.9974 97.3829 15.414C97.9746 14.8307 98.2746 14.0815 98.2746 13.1732C98.2746 12.2648 97.9746 11.5157 97.3829 10.9323C96.7963 10.3489 96.0679 10.0564 95.2146 10.0564C94.3546 10.0564 93.6329 10.3489 93.0396 10.9323C92.4479 11.5157 92.1479 12.2648 92.1479 13.1732C92.1479 14.0815 92.4479 14.8307 93.0396 15.414Z" fill="white" stroke="white" stroke-width="0.16" stroke-miterlimit="10"/>
<path d="M100.768 17.0689V9.27539H102.018L105.904 15.3366H105.949L105.904 13.8384V9.27539H106.933V17.0689H105.859L101.789 10.7086H101.744L101.789 12.2134V17.0689H100.768Z" fill="white" stroke="white" stroke-width="0.16" stroke-miterlimit="10"/>
<path d="M90.8474 28.4502C87.7157 28.4502 85.1574 30.7739 85.1574 33.98C85.1574 37.1602 87.7157 39.5083 90.8474 39.5083C93.9857 39.5083 96.544 37.1602 96.544 33.98C96.544 30.7739 93.9857 28.4502 90.8474 28.4502ZM90.8474 37.3308C89.129 37.3308 87.6507 35.9479 87.6507 33.98C87.6507 31.9862 89.129 30.6277 90.8474 30.6277C92.5657 30.6277 94.0507 31.9862 94.0507 33.98C94.0507 35.9479 92.5657 37.3308 90.8474 37.3308ZM78.4324 28.4502C75.294 28.4502 72.7424 30.7739 72.7424 33.98C72.7424 37.1602 75.294 39.5083 78.4324 39.5083C81.569 39.5083 84.1224 37.1602 84.1224 33.98C84.1224 30.7739 81.569 28.4502 78.4324 28.4502ZM78.4324 37.3308C76.7124 37.3308 75.229 35.9479 75.229 33.98C75.229 31.9862 76.7124 30.6277 78.4324 30.6277C80.1507 30.6277 81.629 31.9862 81.629 33.98C81.629 35.9479 80.1507 37.3308 78.4324 37.3308ZM63.659 30.145V32.4948H69.414C69.2457 33.8078 68.7957 34.773 68.1057 35.4458C67.2657 36.2583 65.9574 37.1602 63.659 37.1602C60.1174 37.1602 57.344 34.3733 57.344 30.9202C57.344 27.467 60.1174 24.6802 63.659 24.6802C65.574 24.6802 66.9674 25.4098 67.9957 26.3555L69.694 24.6997C68.2557 23.3607 66.3424 22.332 63.659 22.332C58.8024 22.332 54.7207 26.1849 54.7207 30.9202C54.7207 35.6554 58.8024 39.5083 63.659 39.5083C66.284 39.5083 68.2557 38.6698 69.8057 37.0968C71.394 35.5482 71.889 33.3707 71.889 31.6124C71.889 31.0664 71.8424 30.5643 71.759 30.145H63.659ZM124.069 31.9667C123.601 30.73 122.156 28.4502 119.212 28.4502C116.296 28.4502 113.867 30.691 113.867 33.98C113.867 37.0773 116.271 39.5083 119.492 39.5083C122.097 39.5083 123.601 37.9597 124.219 37.0578L122.286 35.8017C121.641 36.7214 120.762 37.3308 119.492 37.3308C118.231 37.3308 117.326 36.7669 116.746 35.6554L124.331 32.5955L124.069 31.9667ZM116.336 33.8078C116.271 31.6758 118.034 30.5838 119.297 30.5838C120.287 30.5838 121.127 31.0664 121.407 31.757L116.336 33.8078ZM110.171 39.1719H112.664V22.9219H110.171V39.1719ZM106.087 29.6819H106.004C105.444 29.0352 104.376 28.4502 103.022 28.4502C100.182 28.4502 97.5857 30.8812 97.5857 33.9979C97.5857 37.0968 100.182 39.5083 103.022 39.5083C104.376 39.5083 105.444 38.9184 106.004 38.2522H106.087V39.0452C106.087 41.1593 104.929 42.2952 103.061 42.2952C101.537 42.2952 100.592 41.2227 100.202 40.3208L98.034 41.2032C98.659 42.6689 100.314 44.4727 103.061 44.4727C105.984 44.4727 108.451 42.7957 108.451 38.7153V28.7865H106.087V29.6819ZM103.236 37.3308C101.517 37.3308 100.079 35.9284 100.079 33.9979C100.079 32.0495 101.517 30.6277 103.236 30.6277C104.929 30.6277 106.264 32.0495 106.264 33.9979C106.264 35.9284 104.929 37.3308 103.236 37.3308ZM135.742 22.9219H129.779V39.1719H132.266V33.0148H135.742C138.504 33.0148 141.212 31.0664 141.212 27.9675C141.212 24.8703 138.497 22.9219 135.742 22.9219ZM135.807 30.7544H132.266V25.1823H135.807C137.664 25.1823 138.724 26.6854 138.724 27.9675C138.724 29.2253 137.664 30.7544 135.807 30.7544ZM151.179 28.4193C149.382 28.4193 147.514 29.1928 146.746 30.9072L148.952 31.809C149.427 30.9072 150.301 30.6147 151.224 30.6147C152.514 30.6147 153.822 31.3703 153.842 32.7044V32.875C153.392 32.6215 152.429 32.2462 151.244 32.2462C148.867 32.2462 146.446 33.5218 146.446 35.9024C146.446 38.0799 148.392 39.4823 150.581 39.4823C152.254 39.4823 153.177 38.7462 153.757 37.8898H153.842V39.1459H156.244V32.9124C156.244 30.0313 154.037 28.4193 151.179 28.4193ZM150.879 37.3243C150.066 37.3243 148.932 36.931 148.932 35.9479C148.932 34.6902 150.346 34.2075 151.569 34.2075C152.664 34.2075 153.177 34.4432 153.842 34.7535C153.647 36.2583 152.319 37.3243 150.879 37.3243ZM164.994 28.7752L162.136 35.8195H162.051L159.096 28.7752H156.414L160.854 38.6194L158.321 44.0973H160.919L167.761 28.7752H164.994ZM142.579 39.1719H145.072V22.9219H142.579V39.1719Z" fill="white"/>
<defs>
<linearGradient id="paint0_linear_917_6278" x1="29.0662" y1="40.8484" x2="7.25605" y2="18.479" gradientUnits="userSpaceOnUse">
<stop stop-color="#00A0FF"/>
<stop offset="0.0066" stop-color="#00A1FF"/>
<stop offset="0.2601" stop-color="#00BEFF"/>
<stop offset="0.5122" stop-color="#00D2FF"/>
<stop offset="0.7604" stop-color="#00DFFF"/>
<stop offset="1" stop-color="#00E3FF"/>
</linearGradient>
<linearGradient id="paint1_linear_917_6278" x1="45.1124" y1="26.1699" x2="12.8499" y2="26.1699" gradientUnits="userSpaceOnUse">
<stop stop-color="#FFE000"/>
<stop offset="0.4087" stop-color="#FFBD00"/>
<stop offset="0.7754" stop-color="#FFA500"/>
<stop offset="1" stop-color="#FF9C00"/>
</linearGradient>
<linearGradient id="paint2_linear_917_6278" x1="33.1034" y1="23.1863" x2="3.52709" y2="-7.14837" gradientUnits="userSpaceOnUse">
<stop stop-color="#FF3A44"/>
<stop offset="1" stop-color="#C31162"/>
</linearGradient>
<linearGradient id="paint3_linear_917_6278" x1="9.73046" y1="51.9428" x2="22.9376" y2="38.3971" gradientUnits="userSpaceOnUse">
<stop stop-color="#32A071"/>
<stop offset="0.0685" stop-color="#2DA771"/>
<stop offset="0.4762" stop-color="#15CF74"/>
<stop offset="0.8009" stop-color="#06E775"/>
<stop offset="1" stop-color="#00F076"/>
</linearGradient>
</defs>
</svg>
