<svg width="30" height="31" viewBox="0 0 30 31" fill="none" xmlns="http://www.w3.org/2000/svg">
<path d="M16.2857 3.35505C17.1979 3.35155 18.1101 3.36072 19.022 3.38255L19.2645 3.3913C19.5445 3.4013 19.8207 3.4138 20.1545 3.4288C21.4845 3.4913 22.392 3.7013 23.1882 4.01005C24.0132 4.32755 24.7082 4.75755 25.4032 5.45255C26.0387 6.07706 26.5305 6.83249 26.8445 7.6663C27.1532 8.46255 27.3632 9.3713 27.4257 10.7013C27.4407 11.0338 27.4532 11.3113 27.4632 11.5913L27.4707 11.8338C27.4929 12.7453 27.5025 13.657 27.4995 14.5688L27.5007 15.5013V17.1388C27.5038 18.051 27.4942 18.9631 27.472 19.8751L27.4645 20.1176C27.4545 20.3976 27.442 20.6738 27.427 21.0076C27.3645 22.3376 27.152 23.2451 26.8445 24.0413C26.5315 24.876 26.0396 25.632 25.4032 26.2563C24.7782 26.8917 24.0224 27.3835 23.1882 27.6976C22.392 28.0063 21.4845 28.2163 20.1545 28.2788C19.8207 28.2938 19.5445 28.3063 19.2645 28.3163L19.022 28.3238C18.1101 28.346 17.1979 28.3556 16.2857 28.3526L15.3532 28.3538H13.717C12.8048 28.3569 11.8926 28.3473 10.9807 28.3251L10.7382 28.3176C10.4415 28.3068 10.1448 28.2943 9.84822 28.2801C8.51822 28.2176 7.61072 28.0051 6.81322 27.6976C5.97908 27.3842 5.22352 26.8923 4.59947 26.2563C3.96328 25.6317 3.471 24.8758 3.15697 24.0413C2.84822 23.2451 2.63822 22.3376 2.57572 21.0076C2.5618 20.7109 2.5493 20.4143 2.53822 20.1176L2.53197 19.8751C2.50893 18.9632 2.49851 18.051 2.50072 17.1388V14.5688C2.49723 13.6571 2.5064 12.7453 2.52822 11.8338L2.53697 11.5913C2.54697 11.3113 2.55947 11.0338 2.57447 10.7013C2.63697 9.37005 2.84697 8.4638 3.15572 7.6663C3.46994 6.83208 3.96318 6.07686 4.60072 5.4538C5.22434 4.81724 5.97942 4.32452 6.81322 4.01005C7.61072 3.7013 8.51697 3.4913 9.84822 3.4288L10.7382 3.3913L10.9807 3.38505C11.8922 3.36202 12.804 3.3516 13.7157 3.3538L16.2857 3.35505ZM15.0007 9.60505C14.1726 9.59334 13.3504 9.74633 12.5819 10.0551C11.8135 10.3639 11.114 10.8224 10.5243 11.4039C9.93453 11.9853 9.46622 12.6782 9.14658 13.4423C8.82694 14.2063 8.66233 15.0262 8.66233 15.8544C8.66233 16.6826 8.82694 17.5026 9.14658 18.2666C9.46622 19.0306 9.93453 19.7235 10.5243 20.305C11.114 20.8865 11.8135 21.3449 12.5819 21.6537C13.3504 21.9625 14.1726 22.1155 15.0007 22.1038C16.6583 22.1038 18.248 21.4453 19.4201 20.2732C20.5922 19.1011 21.2507 17.5114 21.2507 15.8538C21.2507 14.1962 20.5922 12.6065 19.4201 11.4344C18.248 10.2623 16.6583 9.60505 15.0007 9.60505ZM15.0007 12.1051C15.4989 12.0959 15.9938 12.1861 16.4567 12.3703C16.9196 12.5546 17.3411 12.8292 17.6967 13.1782C18.0522 13.5272 18.3347 13.9436 18.5275 14.403C18.7204 14.8624 18.8197 15.3556 18.8198 15.8538C18.8199 16.352 18.7207 16.8453 18.528 17.3047C18.3353 17.7642 18.053 18.1806 17.6976 18.5297C17.3421 18.8788 16.9207 19.1536 16.4579 19.3381C15.995 19.5225 15.5001 19.6128 15.002 19.6038C14.0074 19.6038 13.0536 19.2087 12.3503 18.5055C11.6471 17.8022 11.252 16.8484 11.252 15.8538C11.252 14.8592 11.6471 13.9054 12.3503 13.2022C13.0536 12.4989 14.0074 12.1038 15.002 12.1038L15.0007 12.1051ZM21.5632 7.73005C21.16 7.74619 20.7786 7.91774 20.499 8.20877C20.2194 8.49979 20.0632 8.88772 20.0632 9.2913C20.0632 9.69489 20.2194 10.0828 20.499 10.3738C20.7786 10.6649 21.16 10.8364 21.5632 10.8526C21.9776 10.8526 22.375 10.6879 22.6681 10.3949C22.9611 10.1019 23.1257 9.70445 23.1257 9.29005C23.1257 8.87565 22.9611 8.47823 22.6681 8.1852C22.375 7.89217 21.9776 7.72755 21.5632 7.72755V7.73005Z" fill="black"/>
</svg>
