<svg width="158" height="28" viewBox="0 0 158 28" fill="none" xmlns="http://www.w3.org/2000/svg">
<path d="M0.343418 11.2413C1.60262 4.83078 7.23467 0 14.0114 0C20.7882 0 26.4203 4.83078 27.6795 11.2413L25.1153 11.745C24.1079 6.52498 19.5061 2.60999 14.0114 2.60999C8.51676 2.60999 3.91496 6.54788 2.9076 11.745L0.343418 11.2413ZM2.67866 12.7065L2.72445 13.3476L0.915781 14.0573L2.81603 14.5381L2.86182 15.0647L1.05315 15.7973L2.95339 16.2323L2.99918 16.8505L0.183155 16.1179L0.137367 15.5913L1.87735 14.8358L0.0457883 14.355L0 13.8284L2.67866 12.7065ZM3.38839 17.4229L3.57154 17.9494L1.37367 19.9871L1.16762 19.3918L1.6713 18.9568L1.2592 17.8579L0.595257 17.835L0.389206 17.2626L3.38839 17.4229ZM2.0834 18.5676L2.79313 17.9265L1.83156 17.8807L2.0834 18.5676ZM1.85446 20.0328L2.40392 20.1244C2.35814 20.445 2.38103 20.7197 2.54129 20.9944C2.67866 21.2005 2.83892 21.2921 2.97629 21.2005C3.11365 21.1318 3.11365 20.9944 2.97629 20.5365C2.81603 19.9871 2.74734 19.5978 3.22813 19.3231C3.66312 19.0713 4.14391 19.2315 4.44154 19.7123C4.64759 20.0557 4.71627 20.3992 4.67048 20.7655L4.12101 20.7426C4.14391 20.445 4.09812 20.1931 3.98365 19.9871C3.86917 19.781 3.70891 19.7352 3.59444 19.8039C3.43418 19.8955 3.45707 20.0328 3.59444 20.4907C3.7547 21.0402 3.7547 21.4065 3.3426 21.6584C2.88471 21.9331 2.40392 21.7499 2.0834 21.2463C1.87735 20.8799 1.78577 20.445 1.85446 20.0328ZM5.10548 20.8113L5.51758 21.2463L4.73917 22.0018L5.51758 22.8031L6.29599 22.0476L6.70809 22.4826L4.71627 24.3828L4.30417 23.9478L5.10548 23.1923L4.32706 22.391L3.52575 23.1465L3.11365 22.7115L5.10548 20.8113ZM6.08994 23.7876C6.52494 23.1236 7.37204 22.9176 8.05887 23.3755C8.49387 23.6502 8.65413 23.9707 8.72281 24.3141L8.15045 24.4744C8.08177 24.1997 7.96729 23.9707 7.73835 23.8334C7.34914 23.5815 6.86836 23.7189 6.59362 24.1081C6.34178 24.4973 6.38757 25.001 6.77678 25.2757C7.02862 25.436 7.25756 25.4589 7.55519 25.3902L7.66966 25.9168C7.25756 26.0084 6.91414 26.0084 6.45625 25.7107C5.81521 25.2986 5.65495 24.4286 6.08994 23.7876ZM9.13491 24.0394L9.70728 24.2684L8.90597 26.306L10.1881 26.8097L9.98201 27.3134L8.15045 26.6036L9.13491 24.0394ZM10.5544 26.2831L10.8291 24.7491L11.4244 24.8636L11.1496 26.3976C11.0809 26.8326 11.2412 27.1073 11.6075 27.176C11.9738 27.2447 12.2257 27.0615 12.3173 26.6265L12.592 25.0697L13.1872 25.1841L12.9125 26.7181C12.7751 27.5423 12.2257 27.8628 11.5159 27.7255C10.7833 27.5652 10.417 27.0615 10.5544 26.2831ZM13.462 25.1613L14.7441 25.0926C15.0646 25.0697 15.3164 25.1613 15.4767 25.2986C15.6141 25.4131 15.6827 25.5734 15.6827 25.7565C15.7056 26.0541 15.5454 26.2373 15.3393 26.3747C15.6599 26.4891 15.8659 26.6494 15.8888 27.0157C15.9117 27.5194 15.5225 27.7941 14.9043 27.817L13.5993 27.8857L13.462 25.1613ZM15.0875 25.8939C15.0875 25.7107 14.9272 25.6191 14.6754 25.6191L14.0801 25.642L14.103 26.2144L14.6525 26.1915C14.9272 26.2144 15.0875 26.1228 15.0875 25.8939ZM14.8357 26.7181L14.1488 26.741L14.1717 27.3362L14.8814 27.3134C15.1562 27.2905 15.2935 27.1989 15.2935 26.9928C15.2706 26.8097 15.1333 26.6952 14.8357 26.7181ZM16.0033 25.0239L16.5298 24.8636L18.2469 26.1228L17.789 24.4973L18.3614 24.337L19.1398 26.9699L18.6361 27.1073L16.8733 25.8023L17.3769 27.4736L16.8046 27.6339L16.0033 25.0239ZM20.1243 25.2528L18.3843 24.337L19.0025 23.9936L20.1243 24.6347L20.1472 23.3526L20.7424 23.0092L20.6509 24.9552L21.2003 25.8939L20.6738 26.1915L20.1243 25.2528ZM21.4064 24.1768C20.8798 23.5815 20.9027 22.7115 21.5437 22.1621C21.9329 21.8186 22.2764 21.7499 22.6427 21.7728V22.3681C22.3679 22.3681 22.1161 22.4139 21.9101 22.597C21.5666 22.8947 21.5666 23.4213 21.8872 23.7647C22.2077 24.1081 22.7114 24.1997 23.0548 23.8792C23.2837 23.6731 23.3524 23.4442 23.3753 23.1694L23.9248 23.2152C23.9019 23.6273 23.8103 23.9707 23.3982 24.337C22.78 24.8407 21.933 24.772 21.4064 24.1768ZM24.0392 22.6886L24.4513 22.2078L24.9321 22.6199L24.52 23.1007L24.0392 22.6886ZM24.085 21.5897C23.4211 21.1776 23.1693 20.3305 23.6271 19.6207C23.9019 19.1857 24.1995 19.0026 24.5658 18.9339L24.749 19.4834C24.4742 19.5521 24.2682 19.6894 24.1079 19.9184C23.8561 20.3076 24.0163 20.7884 24.4056 21.0402C24.7948 21.2921 25.3213 21.2234 25.5503 20.8113C25.7105 20.5365 25.7105 20.3076 25.6648 20.0328L26.1913 19.9184C26.3058 20.3076 26.3058 20.6739 26.0082 21.1318C25.5961 21.8186 24.749 22.0018 24.085 21.5897ZM25.5274 19.1857C24.7719 18.9339 24.3598 18.1555 24.6116 17.3542C24.8634 16.5529 25.6648 16.1636 26.3974 16.4155C27.13 16.6444 27.565 17.4457 27.2903 18.2471C27.0155 19.0484 26.2829 19.4376 25.5274 19.1857ZM26.2371 17.0336C25.7792 16.8963 25.2984 17.1023 25.1611 17.5602C25.0008 18.0181 25.2756 18.4531 25.7105 18.6134C26.1684 18.7507 26.6263 18.5447 26.7866 18.0868C26.9469 17.606 26.695 17.171 26.2371 17.0336ZM25.1382 15.8431L25.1611 15.2021L26.3516 14.5381L25.2298 13.7597L25.2527 13.1187L28 13.256L27.9771 13.8513L26.1913 13.7597L27.3361 14.5839V14.6068L26.1455 15.3165L27.9313 15.4081L27.9084 16.0034L25.1382 15.8431Z" fill="#E86635"/>
<path d="M20.0566 10.9907C21.2242 11.563 21.9568 12.4788 22.346 13.7151C22.7581 15.0201 22.7123 16.4396 22.346 17.7446C21.4989 20.6064 18.8203 22.644 15.9356 23.1248C12.6845 23.6743 9.18168 22.5754 7.02959 20.0112C4.74014 17.2867 4.0991 13.532 5.54145 10.258C6.13671 8.90724 7.07538 7.71671 8.22011 6.80092C9.41062 5.86224 10.9217 5.06093 12.4556 4.87777C13.7377 4.7404 15.5692 5.01514 16.279 6.27435C16.8971 7.3504 15.7982 8.67829 14.6077 8.42645C14.3101 8.35776 14.0353 8.1975 13.8064 7.96855C13.5774 7.71671 13.4401 7.3275 13.028 7.37329C12.7532 7.39619 12.5472 7.62513 12.5243 7.87697C12.4785 8.1975 12.7074 8.47224 12.9593 8.6325C13.5774 9.02171 14.3101 9.0446 15.0198 9.0675C15.9356 9.09039 16.8513 9.13618 17.6298 9.63986C18.1792 10.052 18.6142 10.6014 18.7287 11.3112C18.8432 12.0896 18.6371 12.868 17.9961 13.3717C16.7827 14.3562 15.18 13.4862 14.4932 12.2956C14.2643 11.8835 13.9666 11.1967 13.4401 11.0822C13.1882 11.0364 12.8677 11.1738 12.8219 11.4485C12.7532 11.8835 13.2569 12.1125 13.4858 12.3643C14.4932 13.5549 12.364 14.8827 11.7001 13.5091C11.5398 13.1656 11.6543 12.868 11.6085 12.5246C11.5627 12.1812 11.1735 12.1354 10.9217 12.2956C10.624 12.5017 10.4638 12.9367 10.3951 13.2572C10.189 14.0814 10.2806 14.9514 10.5554 15.7527C11.288 17.9277 13.3256 19.1412 15.5921 19.0496C16.9658 19.0038 18.2479 18.523 19.2095 17.5156C20.1024 16.577 20.5831 15.3177 20.6518 14.0356C20.6747 13.5091 20.6289 12.9596 20.4916 12.433C20.4229 12.1583 20.3542 11.9064 20.2397 11.6546C20.1939 11.5172 20.1253 11.4028 20.0795 11.2654C20.0566 11.1967 19.8963 10.8991 20.0566 10.9907C20.0795 11.0135 19.965 10.9449 20.0566 10.9907ZM21.5676 8.51803C20.9037 7.41908 19.4155 7.23592 18.2479 7.55645C17.9045 7.64803 17.5611 7.7854 17.2406 7.94566C17.0803 8.03724 16.92 8.12882 16.7598 8.22039C16.714 8.24329 16.4392 8.40355 16.5995 8.44934C16.8284 8.51803 17.1032 8.47224 17.355 8.49513C17.6527 8.54092 17.9503 8.6325 18.2479 8.79276C19.0492 9.20487 19.53 10.0978 20.4458 10.3038C20.9266 10.4183 21.4531 10.3267 21.705 9.84592C21.911 9.43381 21.8195 8.90724 21.5676 8.51803C22.1171 9.34223 21.0181 7.60224 21.5676 8.51803Z" fill="#45AAFF"/>
<path d="M15.8912 6.77681C15.731 7.2347 14.8152 7.34918 13.8536 7.00576C12.892 6.66234 12.251 6.02129 12.4113 5.56339C12.5715 5.1055 13.4873 4.99103 14.4489 5.33445C15.3875 5.67787 16.0515 6.31892 15.8912 6.77681Z" fill="url(#paint0_linear_2018_9260)"/>
<path d="M18.0196 11.0598C17.8364 11.5176 16.9435 11.6092 15.982 11.2658C15.0204 10.9224 14.3793 10.2584 14.5625 9.80055C14.7228 9.34265 15.6385 9.25107 16.6001 9.5945C17.5617 9.93792 18.2027 10.6019 18.0196 11.0598Z" fill="url(#paint1_linear_2018_9260)"/>
<path d="M13.3041 13.3496C13.0751 13.6244 12.6401 13.6473 12.2738 13.3954C11.9304 13.1436 11.8159 12.7086 12.0449 12.4109C12.2738 12.1133 12.7088 12.1133 13.0751 12.3652C13.4186 12.6399 13.533 13.0749 13.3041 13.3496Z" fill="url(#paint2_linear_2018_9260)"/>
<path d="M21.0626 8.81474C20.9024 9.06658 20.4674 9.06658 20.0553 8.81474C19.6432 8.5629 19.4371 8.17369 19.5974 7.94474C19.7576 7.6929 20.1926 7.6929 20.6047 7.94474C20.9939 8.17369 21.2 8.58579 21.0626 8.81474Z" fill="url(#paint3_linear_2018_9260)"/>
<path d="M44 7.22461H47.9448L50.2716 15.0051L52.8712 7.18825H56.0706L58.6702 15.0051L61.0152 7.22461H64.8691L60.379 20.7678H57.1432L54.4346 13.0236L51.7441 20.7678H48.5083L44 7.22461ZM68.1049 7.13371H71.6861L77.4124 20.6769H73.4131L72.4314 18.2773H67.2505L66.287 20.6769H62.3786L68.1049 7.13371ZM71.3771 15.3687L69.8864 11.5512L68.3776 15.3687H71.3771ZM77.5214 18.6772L79.5938 16.1867C80.9209 17.2411 82.3933 17.8047 83.9567 17.8047C84.9565 17.8047 85.4837 17.4593 85.4837 16.8775V16.8412C85.4837 16.2776 85.0474 15.9686 83.2114 15.5505C80.3573 14.8961 78.1395 14.0962 78.1395 11.333V11.2967C78.1395 8.80616 80.121 6.98828 83.3386 6.98828C85.6291 6.98828 87.4106 7.60636 88.8649 8.7698L87.0107 11.4057C85.7746 10.5331 84.4293 10.0787 83.2477 10.0787C82.3388 10.0787 81.9025 10.4604 81.9025 10.9513V10.9876C81.9025 11.6057 82.357 11.8784 84.2294 12.2965C87.3197 12.9691 89.2467 13.9689 89.2467 16.4776V16.514C89.2467 19.259 87.0834 20.8951 83.8113 20.8951C81.4299 20.8951 79.1757 20.1497 77.5214 18.6772ZM91.0645 7.22461H94.7912V12.2601H99.5722V7.22461H103.299V20.6587H99.5722V15.5505H94.7912V20.6587H91.0645V7.22461Z" fill="#45AAFF"/>
<path d="M105.207 13.9877V13.9514C105.207 10.0429 108.225 6.9707 112.297 6.9707C115.042 6.9707 116.805 8.11597 118.005 9.77024L115.205 11.9335C114.442 10.97 113.551 10.352 112.26 10.352C110.388 10.352 109.061 11.9517 109.061 13.8968V13.9332C109.061 15.951 110.388 17.5144 112.26 17.5144C113.66 17.5144 114.496 16.86 115.296 15.8783L118.096 17.878C116.823 19.6231 115.114 20.9138 112.151 20.9138C108.297 20.932 105.207 18.0052 105.207 13.9877ZM119.677 7.22521H123.404V17.4053H129.912V20.6775H119.677V7.22521ZM130.948 14.7694V7.22521H134.729V14.6967C134.729 16.6418 135.711 17.5508 137.22 17.5508C138.71 17.5508 139.692 16.66 139.692 14.7876V7.22521H143.473V14.6785C143.473 19.0232 141.001 20.9138 137.183 20.9138C133.348 20.9138 130.948 18.9687 130.948 14.7694ZM145.691 7.22521H152.581C154.271 7.22521 155.453 7.64332 156.253 8.44318C156.798 8.98855 157.125 9.69752 157.125 10.6065V10.6428C157.125 12.2062 156.235 13.1151 155.053 13.6423C156.689 14.1877 157.725 15.0966 157.725 16.9327V16.969C157.725 19.2777 155.835 20.6775 152.635 20.6775H145.709V7.22521H145.691ZM151.654 12.5879C152.781 12.5879 153.417 12.2062 153.417 11.4245V11.37C153.417 10.6428 152.835 10.2247 151.726 10.2247H149.308V12.5879H151.654ZM152.199 17.678C153.326 17.678 153.98 17.2417 153.98 16.4419V16.4055C153.98 15.6783 153.399 15.1875 152.163 15.1875H149.327V17.6598H152.199V17.678Z" fill="#E86635"/>
<defs>
<linearGradient id="paint0_linear_2018_9260" x1="13.8432" y1="7.00998" x2="14.4307" y2="5.34141" gradientUnits="userSpaceOnUse">
<stop stop-color="#45AAFF"/>
<stop offset="0.185" stop-color="#48ABFF"/>
<stop offset="0.3337" stop-color="#52B0FF"/>
<stop offset="0.4698" stop-color="#63B8FF"/>
<stop offset="0.5983" stop-color="#7BC3FF"/>
<stop offset="0.7216" stop-color="#9AD1FF"/>
<stop offset="0.8409" stop-color="#C0E2FF"/>
<stop offset="0.9549" stop-color="#EBF6FF"/>
<stop offset="1" stop-color="white"/>
</linearGradient>
<linearGradient id="paint1_linear_2018_9260" x1="15.9821" y1="11.2623" x2="16.5929" y2="9.60014" gradientUnits="userSpaceOnUse">
<stop stop-color="#45AAFF"/>
<stop offset="0.185" stop-color="#48ABFF"/>
<stop offset="0.3337" stop-color="#52B0FF"/>
<stop offset="0.4698" stop-color="#63B8FF"/>
<stop offset="0.5983" stop-color="#7BC3FF"/>
<stop offset="0.7216" stop-color="#9AD1FF"/>
<stop offset="0.8409" stop-color="#C0E2FF"/>
<stop offset="0.9549" stop-color="#EBF6FF"/>
<stop offset="1" stop-color="white"/>
</linearGradient>
<linearGradient id="paint2_linear_2018_9260" x1="12.2945" y1="13.4057" x2="13.0802" y2="12.3766" gradientUnits="userSpaceOnUse">
<stop stop-color="#45AAFF"/>
<stop offset="0.185" stop-color="#48ABFF"/>
<stop offset="0.3337" stop-color="#52B0FF"/>
<stop offset="0.4698" stop-color="#63B8FF"/>
<stop offset="0.5983" stop-color="#7BC3FF"/>
<stop offset="0.7216" stop-color="#9AD1FF"/>
<stop offset="0.8409" stop-color="#C0E2FF"/>
<stop offset="0.9549" stop-color="#EBF6FF"/>
<stop offset="1" stop-color="white"/>
</linearGradient>
<linearGradient id="paint3_linear_2018_9260" x1="20.0515" y1="8.82237" x2="20.5879" y2="7.93612" gradientUnits="userSpaceOnUse">
<stop stop-color="#45AAFF"/>
<stop offset="0.185" stop-color="#48ABFF"/>
<stop offset="0.3337" stop-color="#52B0FF"/>
<stop offset="0.4698" stop-color="#63B8FF"/>
<stop offset="0.5983" stop-color="#7BC3FF"/>
<stop offset="0.7216" stop-color="#9AD1FF"/>
<stop offset="0.8409" stop-color="#C0E2FF"/>
<stop offset="0.9549" stop-color="#EBF6FF"/>
<stop offset="1" stop-color="white"/>
</linearGradient>
</defs>
</svg>
