<svg width="173" height="32" viewBox="0 0 173 32" fill="none" xmlns="http://www.w3.org/2000/svg">
<path d="M0.394078 12.8997C1.83903 5.54346 8.30192 0 16.0784 0C23.8549 0 30.3178 5.54346 31.7627 12.8997L28.8203 13.4777C27.6643 7.48762 22.3837 2.99505 16.0784 2.99505C9.77314 2.99505 4.49249 7.51389 3.33653 13.4777L0.394078 12.8997ZM3.07381 14.5811L3.12635 15.3168L1.05088 16.1312L3.23144 16.6829L3.28399 17.2872L1.20851 18.1279L3.38907 18.6271L3.44162 19.3364L0.210174 18.4957L0.157631 17.8915L2.15429 17.0245L0.052543 16.4728L0 15.8685L3.07381 14.5811ZM3.88824 19.9932L4.09842 20.5975L1.57631 22.9357L1.33987 22.2527L1.91785 21.7535L1.44495 20.4924L0.683069 20.4662L0.446621 19.8093L3.88824 19.9932ZM2.39074 21.3069L3.20517 20.5712L2.10175 20.5187L2.39074 21.3069ZM2.12802 22.9883L2.75855 23.0934C2.70601 23.4612 2.73228 23.7765 2.91618 24.0917C3.07381 24.3282 3.25772 24.4333 3.41535 24.3282C3.57298 24.2494 3.57298 24.0917 3.41535 23.5663C3.23144 22.9357 3.15263 22.4891 3.70434 22.1739C4.2035 21.8849 4.75521 22.0688 5.09675 22.6205C5.33319 23.0146 5.41201 23.4086 5.35947 23.829L4.72894 23.8027C4.75521 23.4612 4.70267 23.1722 4.57131 22.9357C4.43995 22.6993 4.25605 22.6468 4.12469 22.7256C3.94078 22.8307 3.96706 22.9883 4.12469 23.5137C4.30859 24.1443 4.30859 24.5646 3.8357 24.8536C3.31026 25.1689 2.75855 24.9587 2.39074 24.3807C2.1543 23.9604 2.04921 23.4612 2.12802 22.9883ZM5.85863 23.8816L6.33153 24.3807L5.43828 25.2477L6.33153 26.1672L7.22477 25.3003L7.69766 25.7994L5.41201 27.98L4.93912 27.4809L5.85863 26.6139L4.96539 25.6943L4.04587 26.5613L3.57298 26.0622L5.85863 23.8816ZM6.98832 27.297C7.48749 26.5351 8.45955 26.2986 9.24771 26.8241C9.74687 27.1393 9.93078 27.5071 10.0096 27.9012L9.3528 28.0851C9.27398 27.7699 9.14262 27.5071 8.8799 27.3495C8.43328 27.0605 7.88157 27.2181 7.56631 27.6648C7.27731 28.1114 7.32986 28.6894 7.77648 29.0047C8.06547 29.1886 8.32819 29.2148 8.66973 29.136L8.80109 29.7403C8.32819 29.8454 7.93411 29.8454 7.40867 29.5038C6.67306 29.0309 6.48916 28.0326 6.98832 27.297ZM10.4825 27.586L11.1393 27.8487L10.2198 30.1869L11.691 30.7649L11.4545 31.3429L9.3528 30.5285L10.4825 27.586ZM12.1113 30.1606L12.4266 28.4004L13.1097 28.5318L12.7944 30.292C12.7156 30.7912 12.8995 31.1064 13.3199 31.1853C13.7402 31.2641 14.0292 31.0539 14.1343 30.5547L14.4495 28.7682L15.1326 28.8996L14.8173 30.6598C14.6597 31.6056 14.0292 31.9734 13.2148 31.8158C12.3741 31.6319 11.9537 31.0539 12.1113 30.1606ZM15.4479 28.8733L16.9191 28.7945C17.2869 28.7682 17.5759 28.8733 17.7598 29.0309C17.9174 29.1623 17.9963 29.3462 17.9963 29.5564C18.0225 29.8979 17.8386 30.1081 17.6022 30.2657C17.97 30.3971 18.2064 30.581 18.2327 31.0014C18.259 31.5793 17.8123 31.8946 17.103 31.9209L15.6055 31.9997L15.4479 28.8733ZM17.3132 29.714C17.3132 29.5038 17.1293 29.3987 16.8403 29.3987L16.1572 29.425L16.1835 30.0818L16.814 30.0556C17.1293 30.0818 17.3132 29.9767 17.3132 29.714ZM17.0242 30.6598L16.236 30.6861L16.2623 31.3692L17.0767 31.3429C17.392 31.3166 17.5496 31.2115 17.5496 30.9751C17.5234 30.7649 17.3657 30.6335 17.0242 30.6598ZM18.3641 28.7157L18.9683 28.5318L20.9387 29.9767L20.4133 28.1114L21.0701 27.9275L21.9633 30.9488L21.3853 31.1064L19.3624 29.6089L19.9404 31.5268L19.2836 31.7107L18.3641 28.7157ZM23.093 28.9784L21.0963 27.9275L21.8057 27.5334L23.093 28.269L23.1193 26.7978L23.8023 26.4037L23.6973 28.6368L24.3278 29.714L23.7235 30.0556L23.093 28.9784ZM24.5642 27.7436C23.96 27.0605 23.9862 26.0622 24.7219 25.4316C25.1685 25.0375 25.5626 24.9587 25.9829 24.985V25.6681C25.6676 25.6681 25.3787 25.7206 25.1422 25.9308C24.7481 26.2723 24.7481 26.8766 25.1159 27.2707C25.4837 27.6648 26.0617 27.7699 26.4558 27.402C26.7185 27.1656 26.7973 26.9029 26.8236 26.5876L27.4541 26.6401C27.4279 27.1131 27.3228 27.5071 26.8499 27.9275C26.1405 28.5055 25.1685 28.4267 24.5642 27.7436ZM27.5855 26.0359L28.0584 25.4842L28.6101 25.9571L28.1372 26.5088L27.5855 26.0359ZM27.638 24.7748C26.8762 24.3019 26.5872 23.3298 27.1126 22.5154C27.4279 22.0162 27.7694 21.806 28.1897 21.7272L28.3999 22.3578C28.0847 22.4366 27.8482 22.5942 27.6643 22.8569C27.3753 23.3036 27.5592 23.8553 28.0058 24.1443C28.4525 24.4333 29.0567 24.3545 29.3194 23.8816C29.5033 23.5663 29.5033 23.3036 29.4508 22.9883L30.055 22.8569C30.1864 23.3036 30.1864 23.7239 29.8449 24.2494C29.372 25.0375 28.3999 25.2477 27.638 24.7748ZM29.2932 22.0162C28.4262 21.7272 27.9533 20.834 28.2423 19.9144C28.5313 18.9949 29.4508 18.5483 30.2915 18.8373C31.1322 19.1 31.6314 20.0195 31.3161 20.9391C31.0008 21.8586 30.1601 22.3052 29.2932 22.0162ZM30.1076 19.5466C29.5822 19.389 29.0304 19.6254 28.8728 20.1509C28.6889 20.6763 29.0042 21.1755 29.5033 21.3594C30.0288 21.517 30.5542 21.2806 30.7381 20.7551C30.922 20.2034 30.633 19.7043 30.1076 19.5466ZM28.8465 18.1805L28.8728 17.4448L30.239 16.6829L28.9516 15.7897L28.9779 15.054L32.1305 15.2117L32.1043 15.8948L30.055 15.7897L31.3686 16.7355V16.7617L30.0025 17.5762L32.0517 17.6813L32.0254 18.3644L28.8465 18.1805Z" fill="#E86635"/>
<path d="M23.0142 12.613C24.3541 13.2698 25.1948 14.3207 25.6414 15.7394C26.1143 17.237 26.0618 18.8659 25.6414 20.3634C24.6694 23.6474 21.5956 25.9857 18.2853 26.5374C14.5547 27.1679 10.5351 25.9068 8.06554 22.9643C5.43836 19.8379 4.70274 15.5293 6.35787 11.7723C7.04094 10.2223 8.11809 8.85609 9.43168 7.8052C10.7978 6.72803 12.5318 5.8085 14.292 5.59832C15.7632 5.44069 17.865 5.75596 18.6794 7.20093C19.3887 8.43573 18.1277 9.95953 16.7615 9.67053C16.42 9.59172 16.1047 9.40781 15.842 9.14509C15.5793 8.85609 15.4217 8.40946 14.9488 8.46201C14.6335 8.48828 14.3971 8.751 14.3708 9.04C14.3183 9.40781 14.581 9.72308 14.87 9.90699C15.5793 10.3536 16.42 10.3799 17.2344 10.4062C18.2853 10.4324 19.3362 10.485 20.2294 11.063C20.86 11.5359 21.3591 12.1664 21.4905 12.9808C21.6218 13.8741 21.3854 14.7674 20.6498 15.3454C19.2574 16.4751 17.4183 15.4767 16.6302 14.1106C16.3675 13.6377 16.0259 12.8495 15.4217 12.7181C15.1327 12.6656 14.7649 12.8232 14.7123 13.1385C14.6335 13.6377 15.2115 13.9004 15.4742 14.1894C16.6302 15.5555 14.1869 17.0793 13.425 15.503C13.2411 15.1089 13.3725 14.7674 13.3199 14.3733C13.2674 13.9792 12.8208 13.9267 12.5318 14.1106C12.1902 14.347 12.0063 14.8462 11.9275 15.214C11.6911 16.1598 11.7962 17.1581 12.1114 18.0777C12.9521 20.5736 15.2903 21.966 17.8912 21.8609C19.4675 21.8084 20.9388 21.2566 22.0422 20.1007C23.0668 19.0235 23.6185 17.5785 23.6973 16.1073C23.7236 15.503 23.6711 14.8725 23.5134 14.2682C23.4346 13.9529 23.3558 13.6639 23.2244 13.3749C23.1719 13.2173 23.0931 13.0859 23.0405 12.9283C23.0143 12.8495 22.8303 12.5079 23.0142 12.613C23.0405 12.6393 22.9092 12.5605 23.0142 12.613ZM24.7482 9.77562C23.9863 8.51455 22.2786 8.30437 20.9388 8.67219C20.5447 8.77727 20.1506 8.93491 19.7828 9.11882C19.5989 9.2239 19.415 9.32899 19.2311 9.43408C19.1786 9.46036 18.8633 9.64426 19.0472 9.69681C19.3099 9.77562 19.6252 9.72308 19.9142 9.74935C20.2557 9.8019 20.5972 9.90699 20.9388 10.0909C21.8583 10.5638 22.41 11.5884 23.4609 11.8249C24.0126 11.9562 24.6168 11.8511 24.9058 11.2994C25.1423 10.8265 25.0372 10.2223 24.7482 9.77562C25.3787 10.7214 24.1177 8.72473 24.7482 9.77562Z" fill="#45AAFF"/>
<path d="M45.9219 8.52375H50.3121L52.9017 17.1829L55.7948 8.48329H59.3555L62.2486 17.1829L64.8585 8.52375H69.1475L64.1504 23.5964H60.5492L57.5347 14.9777L54.5405 23.5964H50.9393L45.9219 8.52375ZM72.7487 8.4226H76.7343L83.1072 23.4953H78.6563L77.5638 20.8247H71.7979L70.7256 23.4953H66.3758L72.7487 8.4226ZM76.3904 17.5876L74.7314 13.3389L73.0522 17.5876H76.3904ZM83.2286 21.2698L85.535 18.498C87.0119 19.6715 88.6506 20.2986 90.3905 20.2986C91.5033 20.2986 92.09 19.9142 92.09 19.2668V19.2264C92.09 18.5992 91.6044 18.2552 89.561 17.7899C86.3847 17.0616 83.9165 16.1714 83.9165 13.0961V13.0557C83.9165 10.2839 86.1217 8.26074 89.7027 8.26074C92.2518 8.26074 94.2345 8.94862 95.853 10.2435L93.7894 13.1771C92.4137 12.2059 90.9165 11.7001 89.6015 11.7001C88.5899 11.7001 88.1044 12.125 88.1044 12.6713V12.7117C88.1044 13.3996 88.6102 13.7031 90.694 14.1684C94.1333 14.917 96.2779 16.0297 96.2779 18.8217V18.8622C96.2779 21.9172 93.8703 23.738 90.2287 23.738C87.5784 23.738 85.0697 22.9085 83.2286 21.2698ZM98.301 8.52375H102.448V14.128H107.769V8.52375H111.917V23.475H107.769V17.7899H102.448V23.475H98.301V8.52375Z" fill="#45AAFF"/>
<path d="M114.043 16.0507V16.0102C114.043 11.6604 117.401 8.24121 121.933 8.24121C124.988 8.24121 126.951 9.51581 128.286 11.3569L125.17 13.7645C124.321 12.6922 123.329 12.0043 121.893 12.0043C119.809 12.0043 118.332 13.7847 118.332 15.9495V15.99C118.332 18.2357 119.809 19.9756 121.893 19.9756C123.451 19.9756 124.381 19.2473 125.271 18.1548L128.387 20.3803C126.971 22.3225 125.069 23.759 121.771 23.759C117.482 23.7792 114.043 20.5219 114.043 16.0507ZM130.147 8.52446H134.295V19.8542H141.537V23.496H130.147V8.52446ZM142.691 16.9206V8.52446H146.899V16.8397C146.899 19.0045 147.991 20.0161 149.671 20.0161C151.329 20.0161 152.422 19.0247 152.422 16.9409V8.52446H156.63V16.8195C156.63 21.6549 153.879 23.759 149.63 23.759C145.361 23.759 142.691 21.5942 142.691 16.9206ZM159.098 8.52446H166.766C168.648 8.52446 169.963 8.98979 170.853 9.87998C171.46 10.4869 171.824 11.276 171.824 12.2876V12.328C171.824 14.068 170.833 15.0795 169.518 15.6663C171.338 16.2732 172.492 17.2848 172.492 19.3282V19.3687C172.492 21.9381 170.387 23.496 166.827 23.496H159.119V8.52446H159.098ZM165.734 14.4928C166.989 14.4928 167.697 14.068 167.697 13.198V13.1373C167.697 12.328 167.049 11.8627 165.815 11.8627H163.124V14.4928H165.734ZM166.341 20.1577C167.596 20.1577 168.324 19.6722 168.324 18.782V18.7415C168.324 17.9322 167.676 17.386 166.301 17.386H163.145V20.1375H166.341V20.1577Z" fill="#E86635"/>
</svg>
