<svg width="62" height="60" viewBox="0 0 62 60" fill="none" xmlns="http://www.w3.org/2000/svg">
<path d="M1.61586 24.1872C4.32517 10.3941 16.4432 0 31.0242 0C45.6053 0 57.7233 10.3941 60.4326 24.1872L54.9155 25.2709C52.748 14.0394 42.8467 5.61576 31.0242 5.61576C19.2018 5.61576 9.30046 14.0887 7.13301 25.2709L1.61586 24.1872ZM6.6404 27.3399L6.73892 28.7192L2.84736 30.2463L6.93596 31.2808L7.03449 32.4138L3.14292 33.9901L7.23152 34.9261L7.33005 36.2562L1.27103 34.6798L1.17251 33.5468L4.91629 31.9212L0.975472 30.8867L0.876953 29.7537L6.6404 27.3399ZM8.16747 37.4877L8.56155 38.6207L3.83257 43.0049L3.38923 41.7241L4.47295 40.7882L3.58627 38.4236L2.15772 38.3744L1.71438 37.1429L8.16747 37.4877ZM5.35964 39.9507L6.8867 38.5714L4.81777 38.4729L5.35964 39.9507ZM4.86703 43.1034L6.04928 43.3005C5.95076 43.9901 6.00002 44.5813 6.34484 45.1724C6.6404 45.6158 6.98523 45.8128 7.28079 45.6158C7.57635 45.468 7.57635 45.1724 7.28079 44.1872C6.93597 43.0049 6.78818 42.1675 7.82265 41.5764C8.75859 41.0345 9.79306 41.3793 10.4334 42.4138C10.8768 43.1527 11.0246 43.8916 10.926 44.6798L9.7438 44.6305C9.79306 43.9901 9.69454 43.4483 9.44824 43.0049C9.20193 42.5616 8.85711 42.4631 8.61081 42.6108C8.26599 42.8079 8.31525 43.1034 8.61081 44.0887C8.95564 45.2709 8.95564 46.0591 8.06895 46.601C7.08375 47.1921 6.04928 46.798 5.35964 45.7143C4.91629 44.9261 4.71925 43.9901 4.86703 43.1034ZM11.862 44.7783L12.7487 45.7143L11.0738 47.3399L12.7487 49.064L14.4235 47.4384L15.3102 48.3744L11.0246 52.4631L10.1379 51.5271L11.862 49.9015L10.1871 48.1773L8.46303 49.803L7.57635 48.867L11.862 44.7783ZM13.9802 51.1823C14.9161 49.7537 16.7388 49.3103 18.2166 50.2956C19.1525 50.8867 19.4973 51.5764 19.6451 52.3153L18.4136 52.6601C18.2658 52.069 18.0195 51.5764 17.5269 51.2808C16.6895 50.7389 15.655 51.0345 15.0639 51.8719C14.522 52.7094 14.6206 53.7931 15.458 54.3842C15.9999 54.7291 16.4925 54.7783 17.1328 54.6305L17.3791 55.7635C16.4925 55.9606 15.7536 55.9606 14.7683 55.3202C13.3891 54.4335 13.0442 52.5616 13.9802 51.1823ZM20.5318 51.7241L21.7633 52.2167L20.0392 56.601L22.7978 57.6847L22.3544 58.7685L18.4136 57.2414L20.5318 51.7241ZM23.5859 56.5517L24.1771 53.2512L25.4578 53.4975L24.8667 56.798C24.7189 57.734 25.0637 58.3251 25.8519 58.4729C26.6401 58.6207 27.1819 58.2266 27.379 57.2906L27.9701 53.9409L29.2509 54.1872L28.6597 57.4877C28.3642 59.2611 27.1819 59.9507 25.6549 59.6552C24.0785 59.3103 23.2904 58.2266 23.5859 56.5517ZM29.842 54.1379L32.6006 53.9901C33.2902 53.9409 33.8321 54.1379 34.1769 54.4335C34.4725 54.6798 34.6202 55.0246 34.6202 55.4187C34.6695 56.0591 34.3247 56.4532 33.8813 56.7488C34.571 56.9951 35.0143 57.3399 35.0636 58.1281C35.1128 59.2118 34.2754 59.803 32.9454 59.8522L30.1375 60L29.842 54.1379ZM33.3395 55.7143C33.3395 55.3202 32.9946 55.1231 32.4528 55.1231L31.172 55.1724L31.2213 56.4039L32.4035 56.3547C32.9946 56.4039 33.3395 56.2069 33.3395 55.7143ZM32.7976 57.4877L31.3198 57.5369L31.3691 58.8177L32.8961 58.7685C33.4872 58.7192 33.7828 58.5222 33.7828 58.0788C33.7336 57.6847 33.438 57.4384 32.7976 57.4877ZM35.3099 53.8424L36.4429 53.4975L40.1374 56.2069L39.1522 52.7094L40.3837 52.3645L42.0585 58.0296L40.9748 58.3251L37.1818 55.5172L38.2655 59.1133L37.034 59.4581L35.3099 53.8424ZM44.1767 54.335L40.4329 52.3645L41.763 51.6256L44.1767 53.0049L44.226 50.2463L45.5067 49.5074L45.3097 53.6946L46.492 55.7143L45.359 56.3547L44.1767 54.335ZM46.9353 52.0197C45.8023 50.7389 45.8516 48.867 47.2309 47.6847C48.0683 46.9458 48.8072 46.798 49.5954 46.8473V48.1281C49.0042 48.1281 48.4624 48.2266 48.019 48.6207C47.2801 49.2611 47.2801 50.3941 47.9698 51.133C48.6594 51.8719 49.7431 52.069 50.482 51.3793C50.9746 50.936 51.1224 50.4433 51.1717 49.8522L52.3539 49.9507C52.3047 50.8374 52.1076 51.5764 51.2209 52.3645C49.8909 53.4483 48.0683 53.3005 46.9353 52.0197ZM52.6002 48.8177L53.4869 47.7832L54.5214 48.6699L53.6347 49.7044L52.6002 48.8177ZM52.6987 46.4532C51.2702 45.5665 50.7283 43.7438 51.7135 42.2167C52.3047 41.2808 52.9451 40.8867 53.7332 40.7389L54.1273 41.9212C53.5362 42.069 53.0928 42.3645 52.748 42.8571C52.2062 43.6946 52.551 44.7291 53.3884 45.2709C54.2258 45.8128 55.3588 45.665 55.8514 44.7783C56.1962 44.1872 56.1962 43.6946 56.0977 43.1034L57.2307 42.8571C57.477 43.6946 57.477 44.4828 56.8366 45.468C55.9499 46.9458 54.1273 47.3399 52.6987 46.4532ZM55.8021 41.2808C54.1766 40.7389 53.2899 39.064 53.8317 37.3399C54.3736 35.6158 56.0977 34.7783 57.674 35.3202C59.2504 35.8128 60.1863 37.5369 59.5952 39.2611C59.0041 40.9852 57.4277 41.8227 55.8021 41.2808ZM57.3292 36.6502C56.344 36.3547 55.3095 36.798 55.014 37.7832C54.6692 38.7685 55.2603 39.7044 56.1962 40.0493C57.1814 40.3448 58.1666 39.9015 58.5115 38.9163C58.8563 37.8818 58.3144 36.9458 57.3292 36.6502ZM54.9647 34.0887L55.014 32.7094L57.5755 31.2808L55.1618 29.6059L55.211 28.2266L61.1223 28.5222L61.073 29.803L57.2307 29.6059L59.6937 31.3793V31.4286L57.1322 32.9557L60.9745 33.1527L60.9252 34.4335L54.9647 34.0887Z" fill="#E86635"/>
<path d="M44.028 23.6516C46.5403 24.8832 48.1166 26.8536 48.954 29.5137C49.8407 32.3216 49.7422 35.3758 48.954 38.1837C47.1314 44.3413 41.3679 48.7255 35.1612 49.76C28.1662 50.9423 20.6294 48.5777 15.9989 43.0605C11.0729 37.1984 9.6936 29.1196 12.797 22.0753C14.0778 19.1689 16.0974 16.6073 18.5604 14.6369C21.122 12.6172 24.3732 10.893 27.6736 10.4989C30.4322 10.2034 34.373 10.7945 35.9001 13.5039C37.2301 15.8191 34.8656 18.6763 32.3041 18.1344C31.6637 17.9866 31.0726 17.6418 30.58 17.1492C30.0874 16.6073 29.7918 15.7699 28.9051 15.8684C28.314 15.9176 27.8706 16.4103 27.8214 16.9521C27.7229 17.6418 28.2155 18.2329 28.7573 18.5777C30.0873 19.4152 31.6637 19.4644 33.1907 19.5137C35.1612 19.563 37.1316 19.6615 38.8064 20.7452C39.9887 21.6319 40.9246 22.8142 41.1709 24.3413C41.4172 26.0162 40.9739 27.691 39.5946 28.7748C36.9838 30.893 33.5356 29.0211 32.0578 26.4595C31.5652 25.5728 30.9248 24.095 29.7918 23.8487C29.2499 23.7502 28.5603 24.0457 28.4618 24.6369C28.314 25.5728 29.3977 26.0654 29.8903 26.6073C32.0578 29.1689 27.4766 32.026 26.048 29.0704C25.7032 28.3314 25.9495 27.691 25.851 26.9521C25.7524 26.2132 24.915 26.1147 24.3732 26.4595C23.7328 26.9029 23.388 27.8388 23.2402 28.5285C22.7968 30.3019 22.9939 32.1738 23.585 33.8979C25.1613 38.5777 29.5455 41.1886 34.4223 40.9915C37.3779 40.893 40.1364 39.8585 42.2054 37.691C44.1265 35.6713 45.161 32.962 45.3088 30.2034C45.358 29.0704 45.2595 27.8881 44.964 26.7551C44.8162 26.164 44.6684 25.6221 44.4221 25.0802C44.3236 24.7846 44.1758 24.5383 44.0773 24.2428C44.028 24.095 43.6832 23.4546 44.028 23.6516C44.0773 23.7009 43.831 23.5531 44.028 23.6516ZM47.2792 18.3314C45.8506 15.9669 42.6487 15.5728 40.1364 16.2625C39.3975 16.4595 38.6586 16.7551 37.969 17.0999C37.6242 17.297 37.2793 17.494 36.9345 17.691C36.836 17.7403 36.2449 18.0851 36.5897 18.1837C37.0823 18.3314 37.6734 18.2329 38.2153 18.2822C38.8557 18.3807 39.4961 18.5777 40.1364 18.9226C41.8606 19.8093 42.895 21.7305 44.8654 22.1738C45.8999 22.4201 47.0329 22.2231 47.5747 21.1886C48.0181 20.3019 47.821 19.1689 47.2792 18.3314C48.4614 20.1048 46.0969 16.361 47.2792 18.3314Z" fill="#45AAFF"/>
</svg>
