<svg width="202" height="38" viewBox="0 0 202 38" fill="none" xmlns="http://www.w3.org/2000/svg">
<path d="M0.456152 15.412C2.12871 6.89706 9.60961 0.480469 18.611 0.480469C27.6124 0.480469 35.0933 6.89706 36.7659 15.412L33.36 16.081C32.0219 9.14742 25.9095 3.94725 18.611 3.94725C11.3126 3.94725 5.20014 9.17784 3.86209 16.081L0.456152 15.412ZM3.55799 17.3582L3.61881 18.2097L1.21641 19.1524L3.74045 19.7911L3.80127 20.4905L1.39887 21.4636L3.92291 22.0414L3.98373 22.8625L0.24328 21.8894L0.182461 21.1899L2.49363 20.1864L0.0608194 19.5478L0 18.8483L3.55799 17.3582ZM4.5007 23.6228L4.74399 24.3222L1.82461 27.0287L1.55092 26.2381L2.21994 25.6603L1.67256 24.2006L0.790664 24.1702L0.516972 23.4099L4.5007 23.6228ZM2.76732 25.1433L3.71004 24.2918L2.43281 24.231L2.76732 25.1433ZM2.46322 27.0895L3.19307 27.2112C3.13225 27.6369 3.16266 28.0019 3.37553 28.3668C3.55799 28.6405 3.77086 28.7621 3.95332 28.6405C4.13578 28.5492 4.13578 28.3668 3.95332 27.7586C3.74045 27.0287 3.64922 26.5117 4.28783 26.1468C4.86563 25.8123 5.50424 26.0252 5.89957 26.6638C6.17326 27.12 6.26449 27.5761 6.20367 28.0627L5.47383 28.0323C5.50424 27.6369 5.44342 27.3024 5.29137 27.0287C5.13932 26.755 4.92645 26.6942 4.77439 26.7854C4.56152 26.9071 4.59193 27.0895 4.77439 27.6978C4.98727 28.4276 4.98727 28.9142 4.43988 29.2487C3.83168 29.6136 3.19307 29.3703 2.76732 28.7013C2.49363 28.2147 2.37199 27.6369 2.46322 27.0895ZM6.78147 28.1235L7.32885 28.7013L6.2949 29.7048L7.32885 30.7692L8.36279 29.7657L8.91018 30.3435L6.26449 32.8675L5.71711 32.2897L6.78147 31.2862L5.74752 30.2218L4.68316 31.2254L4.13578 30.6476L6.78147 28.1235ZM8.0891 32.0768C8.6669 31.1949 9.79207 30.9213 10.7044 31.5295C11.2822 31.8944 11.495 32.3201 11.5863 32.7763L10.826 32.9892C10.7348 32.6242 10.5827 32.3201 10.2786 32.1377C9.76166 31.8032 9.12305 31.9856 8.75813 32.5026C8.42361 33.0196 8.48444 33.6886 9.00141 34.0535C9.33592 34.2664 9.64002 34.2968 10.0354 34.2056L10.1874 34.905C9.64002 35.0267 9.18387 35.0267 8.57567 34.6313C7.72418 34.0839 7.51131 32.9283 8.0891 32.0768ZM12.1337 32.4114L12.8939 32.7155L11.8296 35.422L13.5325 36.091L13.2588 36.76L10.826 35.8173L12.1337 32.4114ZM14.0191 35.3916L14.384 33.3541L15.1747 33.5061L14.8097 35.5436C14.7185 36.1214 14.9314 36.4864 15.418 36.5776C15.9045 36.6688 16.239 36.4255 16.3607 35.8477L16.7256 33.7798L17.5163 33.9319L17.1513 35.9694C16.9689 37.0641 16.239 37.4899 15.2963 37.3074C14.3232 37.0946 13.8366 36.4255 14.0191 35.3916ZM17.8812 33.9015L19.5841 33.8102C20.0099 33.7798 20.3444 33.9015 20.5573 34.0839C20.7397 34.236 20.831 34.4489 20.831 34.6921C20.8614 35.0875 20.6485 35.3308 20.3748 35.5132C20.8006 35.6653 21.0742 35.8781 21.1047 36.3647C21.1351 37.0337 20.6181 37.3987 19.797 37.4291L18.0636 37.5203L17.8812 33.9015ZM20.0403 34.8746C20.0403 34.6313 19.8274 34.5097 19.4929 34.5097L18.7023 34.5401L18.7327 35.3003L19.4625 35.2699C19.8274 35.3003 20.0403 35.1787 20.0403 34.8746ZM19.7058 35.9694L18.7935 35.9998L18.8239 36.7905L19.7666 36.76C20.1315 36.7296 20.314 36.608 20.314 36.3343C20.2836 36.091 20.1011 35.939 19.7058 35.9694ZM21.2567 33.719L21.9561 33.5061L24.2369 35.1787L23.6287 33.0196L24.389 32.8067L25.4229 36.3039L24.7539 36.4864L22.4123 34.753L23.0813 36.9729L22.3211 37.1858L21.2567 33.719ZM26.7305 34.0231L24.4194 32.8067L25.2404 32.3505L26.7305 33.202L26.7609 31.4991L27.5516 31.0429L27.43 33.6278L28.1598 34.8746L27.4604 35.2699L26.7305 34.0231ZM28.4335 32.5938C27.7341 31.8032 27.7645 30.6476 28.616 29.9177C29.1329 29.4616 29.5891 29.3703 30.0757 29.4007V30.1914C29.7107 30.1914 29.3762 30.2522 29.1025 30.4955C28.6464 30.8908 28.6464 31.5903 29.0721 32.0464C29.4979 32.5026 30.1669 32.6242 30.623 32.1985C30.9271 31.9248 31.0184 31.6207 31.0488 31.2558L31.7786 31.3166C31.7482 31.864 31.6266 32.3201 31.0792 32.8067C30.2581 33.4757 29.1329 33.3845 28.4335 32.5938ZM31.9307 30.6171L32.4781 29.9785L33.1167 30.5259L32.5693 31.1645L31.9307 30.6171ZM31.9915 29.1575C31.1096 28.6101 30.7751 27.4849 31.3833 26.5422C31.7482 25.9644 32.1435 25.7211 32.6301 25.6298L32.8734 26.3597C32.5085 26.4509 32.2348 26.6334 32.0219 26.9375C31.6874 27.4545 31.9003 28.0931 32.4172 28.4276C32.9342 28.7621 33.6336 28.6709 33.9377 28.1235C34.1506 27.7586 34.1506 27.4545 34.0898 27.0895L34.7892 26.9375C34.9413 27.4545 34.9413 27.941 34.5459 28.5492C33.9986 29.4616 32.8734 29.7048 31.9915 29.1575ZM33.9073 25.9644C32.9038 25.6298 32.3564 24.5959 32.6909 23.5315C33.0254 22.4672 34.0898 21.9502 35.0629 22.2847C36.036 22.5888 36.6138 23.6532 36.2489 24.7175C35.884 25.7819 34.9109 26.2989 33.9073 25.9644ZM34.85 23.1058C34.2418 22.9233 33.6032 23.197 33.4208 23.8052C33.2079 24.4134 33.5728 24.9912 34.1506 25.2041C34.7588 25.3866 35.367 25.1129 35.5799 24.5047C35.7928 23.866 35.4582 23.2882 34.85 23.1058ZM33.3904 21.5244L33.4208 20.673L35.0021 19.7911L33.512 18.7571L33.5424 17.9056L37.1916 18.0881L37.1612 18.8787L34.7892 18.7571L36.3097 19.8519V19.8823L34.7284 20.825L37.1004 20.9467L37.07 21.7373L33.3904 21.5244Z" fill="white"/>
<path d="M26.642 15.0782C28.1929 15.8384 29.166 17.0549 29.683 18.697C30.2304 20.4304 30.1695 22.3159 29.683 24.0492C28.5578 27.8505 24.9998 30.5571 21.1681 31.1957C16.8499 31.9255 12.1971 30.4658 9.33859 27.0599C6.29757 23.441 5.44609 18.4537 7.36193 14.105C8.15259 12.3108 9.39941 10.7295 10.9199 9.51308C12.5012 8.26626 14.5083 7.20189 16.5458 6.95861C18.2488 6.77615 20.6816 7.14107 21.6243 8.81364C22.4454 10.2429 20.9857 12.0067 19.4044 11.6722C19.009 11.581 18.6441 11.3681 18.34 11.064C18.0359 10.7295 17.8534 10.2125 17.306 10.2733C16.9411 10.3038 16.6674 10.6079 16.637 10.9424C16.5762 11.3681 16.8803 11.733 17.2148 11.9459C18.0359 12.4629 19.009 12.4933 19.9517 12.5237C21.1681 12.5541 22.3845 12.6149 23.4185 13.284C24.1483 13.8314 24.7261 14.5612 24.8782 15.5039C25.0302 16.5379 24.7565 17.5718 23.9051 18.2409C22.2933 19.5485 20.1646 18.3929 19.2523 16.8116C18.9482 16.2642 18.5529 15.3519 17.8534 15.1998C17.5189 15.139 17.0932 15.3215 17.0324 15.6864C16.9411 16.2642 17.6102 16.5683 17.9143 16.9028C19.2523 18.4841 16.4242 20.2479 15.5423 18.4233C15.3294 17.9672 15.4814 17.5718 15.4206 17.1157C15.3598 16.6595 14.8428 16.5987 14.5083 16.8116C14.113 17.0853 13.9001 17.6631 13.8089 18.0888C13.5352 19.1836 13.6568 20.3392 14.0218 21.4035C14.9949 24.2925 17.7014 25.9043 20.712 25.7826C22.5366 25.7218 24.2396 25.0832 25.5168 23.7451C26.7028 22.4983 27.3414 20.8257 27.4326 19.1228C27.463 18.4233 27.4022 17.6935 27.2198 16.994C27.1285 16.6291 27.0373 16.2946 26.8853 15.9601C26.8244 15.7776 26.7332 15.6256 26.6724 15.4431C26.642 15.3519 26.4291 14.9565 26.642 15.0782C26.6724 15.1086 26.5203 15.0174 26.642 15.0782ZM28.649 11.7939C27.7671 10.3342 25.7905 10.0909 24.2396 10.5166C23.7834 10.6383 23.3273 10.8207 22.9015 11.0336C22.6887 11.1552 22.4758 11.2769 22.2629 11.3985C22.2021 11.4289 21.8372 11.6418 22.05 11.7026C22.3541 11.7939 22.7191 11.733 23.0536 11.7634C23.4489 11.8243 23.8442 11.9459 24.2396 12.1588C25.3039 12.7062 25.9425 13.8922 27.1589 14.1659C27.7976 14.3179 28.497 14.1963 28.8315 13.5577C29.1052 13.0103 28.9836 12.3108 28.649 11.7939C29.3789 12.8886 27.9192 10.5774 28.649 11.7939Z" fill="white"/>
<path d="M21.109 9.48186C20.8962 10.0901 19.6798 10.2421 18.4025 9.78597C17.1253 9.32981 16.2738 8.47832 16.4867 7.87011C16.6996 7.26191 17.916 7.10985 19.1932 7.56601C20.44 8.02217 21.3219 8.87366 21.109 9.48186Z" fill="white"/>
<path d="M23.9362 15.1695C23.6929 15.7777 22.5069 15.8994 21.2297 15.4432C19.9525 14.9871 19.101 14.1051 19.3442 13.4969C19.5571 12.8887 20.7735 12.7671 22.0508 13.2232C23.328 13.6794 24.1795 14.5613 23.9362 15.1695Z" fill="white"/>
<path d="M17.6696 18.2096C17.3655 18.5745 16.7877 18.6049 16.3012 18.2704C15.845 17.9359 15.693 17.3581 15.9971 16.9628C16.3012 16.5674 16.879 16.5674 17.3655 16.902C17.8217 17.2669 17.9737 17.8447 17.6696 18.2096Z" fill="white"/>
<path d="M27.9785 12.1877C27.7656 12.5222 27.1878 12.5222 26.6404 12.1877C26.093 11.8532 25.8193 11.3362 26.0322 11.0321C26.2451 10.6976 26.8229 10.6976 27.3703 11.0321C27.8872 11.3362 28.1609 11.8836 27.9785 12.1877Z" fill="white"/>
<path d="M53.1914 10.321H58.2888L61.2956 20.3749L64.6547 10.274H68.789L72.1481 20.3749L75.1783 10.321H80.1582L74.3561 27.8214H70.1749L66.6748 17.8145L63.1983 27.8214H59.017L53.1914 10.321ZM84.3395 10.2035H88.9671L96.3665 27.7039H91.1987L89.9302 24.6032H83.2355L81.9905 27.7039H76.9401L84.3395 10.2035ZM88.5678 20.8447L86.6416 15.9117L84.6919 20.8447H88.5678ZM96.5075 25.12L99.1854 21.9018C100.9 23.2642 102.803 23.9924 104.823 23.9924C106.115 23.9924 106.796 23.5461 106.796 22.7944V22.7474C106.796 22.0192 106.232 21.6199 103.86 21.0796C100.172 20.234 97.3062 19.2004 97.3062 15.6298V15.5829C97.3062 12.3647 99.8666 10.0156 104.024 10.0156C106.984 10.0156 109.286 10.8143 111.165 12.3177L108.769 15.7238C107.172 14.5963 105.434 14.009 103.907 14.009C102.732 14.009 102.169 14.5023 102.169 15.1365V15.1835C102.169 15.9822 102.756 16.3346 105.175 16.8748C109.169 17.744 111.659 19.036 111.659 22.2776V22.3246C111.659 25.8717 108.863 27.9858 104.635 27.9858C101.558 27.9858 98.6451 27.0227 96.5075 25.12ZM114.008 10.321H118.823V16.8279H125.001V10.321H129.817V27.6804H125.001V21.0796H118.823V27.6804H114.008V10.321Z" fill="white"/>
<path d="M132.284 19.0595V19.0125C132.284 13.9621 136.184 9.99219 141.445 9.99219C144.992 9.99219 147.271 11.4721 148.821 13.6097L145.204 16.4051C144.217 15.1601 143.066 14.3614 141.398 14.3614C138.979 14.3614 137.264 16.4286 137.264 18.942V18.989C137.264 21.5965 138.979 23.6166 141.398 23.6166C143.207 23.6166 144.288 22.771 145.321 21.5025L148.939 24.0865C147.294 26.3415 145.086 28.0094 141.257 28.0094C136.278 28.0328 132.284 24.2509 132.284 19.0595ZM150.982 10.3211H155.798V23.4757H164.207V27.704H150.982V10.3211ZM165.546 20.0696V10.3211H170.432V19.9756C170.432 22.4891 171.701 23.6636 173.651 23.6636C175.577 23.6636 176.845 22.5126 176.845 20.0931V10.3211H181.731V19.9521C181.731 25.5664 178.537 28.0094 173.604 28.0094C168.647 28.0094 165.546 25.4959 165.546 20.0696ZM184.597 10.3211H193.5C195.684 10.3211 197.211 10.8613 198.245 11.8949C198.95 12.5996 199.372 13.5158 199.372 14.6903V14.7373C199.372 16.7574 198.221 17.932 196.695 18.6132C198.809 19.3179 200.148 20.4924 200.148 22.865V22.9119C200.148 25.8952 197.705 27.704 193.57 27.704H184.621V10.3211H184.597ZM192.302 17.2507C193.758 17.2507 194.58 16.7574 194.58 15.7473V15.6769C194.58 14.7373 193.829 14.197 192.396 14.197H189.272V17.2507H192.302ZM193.007 23.8281C194.463 23.8281 195.309 23.2643 195.309 22.2307V22.1837C195.309 21.2441 194.557 20.6099 192.96 20.6099H189.295V23.8046H193.007V23.8281Z" fill="white"/>
</svg>
