<svg width="20" height="20" viewBox="0 0 20 20" fill="none" xmlns="http://www.w3.org/2000/svg">
<path d="M1.66602 5.83337L8.47012 10.5962C9.02109 10.9819 9.29658 11.1748 9.59624 11.2495C9.86093 11.3154 10.1378 11.3154 10.4025 11.2495C10.7021 11.1748 10.9776 10.9819 11.5286 10.5962L18.3327 5.83337M5.66602 16.6667H14.3327C15.7328 16.6667 16.4329 16.6667 16.9677 16.3942C17.4381 16.1545 17.8205 15.7721 18.0602 15.3017C18.3327 14.7669 18.3327 14.0668 18.3327 12.6667V7.33337C18.3327 5.93324 18.3327 5.23318 18.0602 4.6984C17.8205 4.22799 17.4381 3.84554 16.9677 3.60586C16.4329 3.33337 15.7328 3.33337 14.3327 3.33337L5.66602 3.33337C4.26588 3.33337 3.56582 3.33337 3.03104 3.60586C2.56063 3.84554 2.17818 4.22799 1.9385 4.6984C1.66602 5.23318 1.66602 5.93324 1.66602 7.33337L1.66602 12.6667C1.66602 14.0668 1.66602 14.7669 1.9385 15.3017C2.17818 15.7721 2.56063 16.1545 3.03104 16.3942C3.56582 16.6667 4.26588 16.6667 5.66602 16.6667Z" stroke="#6C737F" stroke-width="1.67" stroke-linecap="round" stroke-linejoin="round"/>
</svg>
