<svg width="20" height="20" viewBox="0 0 20 20" fill="none" xmlns="http://www.w3.org/2000/svg">
<path fill-rule="evenodd" clip-rule="evenodd" d="M2.5 8.33337C2.5 4.19124 5.85786 0.833374 10 0.833374C14.1421 0.833374 17.5 4.19124 17.5 8.33337C17.5 10.4385 16.5443 12.2836 15.2436 13.9726C14.1566 15.3839 12.7653 16.7632 11.3755 18.1409L11.3746 18.1419C11.1121 18.4021 10.8496 18.6623 10.5893 18.9226C10.2638 19.2481 9.73618 19.2481 9.41074 18.9226C9.15022 18.6621 8.887 18.4012 8.6243 18.1407C7.23455 16.763 5.84337 15.3839 4.75643 13.9726C3.45569 12.2836 2.5 10.4385 2.5 8.33337ZM12.5 8.33337C12.5 9.71409 11.3807 10.8334 10 10.8334C8.61929 10.8334 7.5 9.71409 7.5 8.33337C7.5 6.95266 8.61929 5.83337 10 5.83337C11.3807 5.83337 12.5 6.95266 12.5 8.33337Z" fill="#175CD3"/>
</svg>
