<svg width="20" height="20" viewBox="0 0 20 20" fill="none" xmlns="http://www.w3.org/2000/svg">
<path fill-rule="evenodd" clip-rule="evenodd" d="M13.3808 18.2332C10.7197 17.4779 8.20896 16.0526 6.11593 13.9596C4.0229 11.8666 2.59761 9.35577 1.84233 6.69475C1.83785 6.67898 1.83341 6.66334 1.829 6.64783C1.70608 6.21531 1.61076 5.87992 1.60939 5.42001C1.60782 4.89437 1.77908 4.23584 2.03652 3.77755C2.47925 2.98941 3.42989 1.97936 4.25099 1.56405C4.96044 1.20521 5.79828 1.20521 6.50773 1.56405C7.20959 1.91905 7.99125 2.71369 8.42701 3.3839C8.96575 4.21252 8.96575 5.28074 8.42701 6.10936C8.28264 6.3314 8.07687 6.53682 7.83799 6.7753C7.7636 6.84956 7.68173 6.90322 7.7361 7.01646C8.27595 8.14086 9.01219 9.19552 9.94609 10.1294C10.88 11.0633 11.9347 11.7996 13.0591 12.3394C13.1763 12.3957 13.2225 12.3154 13.3002 12.2375C13.5387 11.9986 13.7441 11.7929 13.9662 11.6485C14.7948 11.1098 15.863 11.1098 16.6916 11.6485C17.3439 12.0726 18.1592 12.8714 18.5115 13.5678C18.8703 14.2772 18.8703 15.1151 18.5115 15.8245C18.0961 16.6456 17.0861 17.5963 16.298 18.039C15.8397 18.2964 15.1811 18.4677 14.6555 18.4661C14.1956 18.4648 13.8602 18.3694 13.4277 18.2465C13.4122 18.2421 13.3965 18.2377 13.3808 18.2332Z" fill="#1570EF"/>
</svg>
