<svg width="28" height="23" viewBox="0 0 28 23" fill="none" xmlns="http://www.w3.org/2000/svg">
<path d="M26.8437 0L28 2.31597C25.8525 3.27431 24.1731 4.4456 22.9617 5.82986C21.8053 7.16088 21.2271 8.73148 21.2271 10.5417C21.2271 11.3403 21.3648 12.0058 21.6401 12.5382C21.9705 13.0706 22.3559 13.5498 22.7965 13.9757C23.237 14.3484 23.6775 14.7477 24.118 15.1736C24.5585 15.5463 24.9164 16.0255 25.1917 16.6111C25.5221 17.1435 25.6873 17.8356 25.6873 18.6875C25.6873 19.8588 25.2193 20.8704 24.2832 21.7222C23.4022 22.5741 22.2458 23 20.8142 23C19.8781 23 18.9695 22.7338 18.0885 22.2014C17.2075 21.669 16.4916 20.8704 15.941 19.8056C15.4454 18.7407 15.1976 17.3831 15.1976 15.7326C15.1976 13.603 15.6932 11.5 16.6844 9.42361C17.6755 7.29398 19.0521 5.40393 20.8142 3.75347C22.5762 2.10301 24.586 0.851852 26.8437 0ZM11.646 0L12.8024 2.31597C10.6549 3.27431 8.97542 4.4456 7.76401 5.82986C6.60767 7.16088 6.0295 8.73148 6.0295 10.5417C6.0295 11.3403 6.16716 12.0058 6.44248 12.5382C6.77286 13.0706 7.15831 13.5498 7.59882 13.9757C8.03933 14.3484 8.47984 14.7477 8.92035 15.1736C9.36087 15.5463 9.71878 16.0255 9.9941 16.6111C10.3245 17.1435 10.4897 17.8356 10.4897 18.6875C10.4897 19.8588 10.0216 20.8704 9.08555 21.7222C8.20452 22.5741 7.04818 23 5.61652 23C4.68043 23 3.77188 22.7338 2.89086 22.2014C2.00983 21.669 1.294 20.8704 0.743363 19.8056C0.247788 18.7407 0 17.3831 0 15.7326C0 13.603 0.495575 11.5 1.48673 9.42361C2.47788 7.29398 3.85447 5.40393 5.61652 3.75347C7.37856 2.10301 9.3884 0.851852 11.646 0Z" fill="white"/>
</svg>
