<svg width="24" height="24" viewBox="0 0 24 24" fill="none" xmlns="http://www.w3.org/2000/svg">
<path d="M21.5965 1.4575C21.2008 1.32529 20.8323 1.4209 20.6491 1.47411C20.4495 1.5321 20.2116 1.625 19.9728 1.7182L3.01576 8.3356C2.74892 8.43969 2.49048 8.54051 2.291 8.63914C2.11864 8.72436 1.7523 8.91405 1.54782 9.30766C1.32232 9.74172 1.32262 10.2585 1.54863 10.6923C1.75358 11.0856 2.12014 11.2749 2.2926 11.3599C2.49218 11.4583 2.75071 11.5588 3.01765 11.6626L7.73767 13.4981C8.08979 13.6351 8.26585 13.7035 8.44101 13.7077C8.59583 13.7115 8.74939 13.6792 8.8896 13.6134C9.04823 13.539 9.1818 13.4054 9.44896 13.1383L14.2944 8.29289C14.6849 7.90237 15.318 7.90237 15.7086 8.29289C16.0991 8.68342 16.0991 9.31658 15.7086 9.70711L10.8632 14.5525C10.596 14.8197 10.4624 14.9532 10.3881 15.1119C10.3223 15.2521 10.29 15.4056 10.2937 15.5605C10.2979 15.7356 10.3664 15.9117 10.5033 16.2638L12.3389 20.9837C12.4426 21.2507 12.5432 21.5093 12.6416 21.7089C12.7266 21.8813 12.9158 22.2479 13.3092 22.4528C13.743 22.6788 14.2597 22.6791 14.6938 22.4536C15.0874 22.2492 15.2771 21.8828 15.3623 21.7105C15.461 21.511 15.5618 21.2526 15.6658 20.9858L22.2833 4.02861C22.3765 3.7899 22.4694 3.55198 22.5273 3.35235C22.5806 3.16916 22.6762 2.8007 22.544 2.40493C22.3946 1.95779 22.0437 1.60688 21.5965 1.4575Z" fill="white"/>
</svg>
