<svg width="18" height="17" viewBox="0 0 18 17" fill="none" xmlns="http://www.w3.org/2000/svg">
<path d="M9.47553 0.463524C9.32585 0.00286924 8.67415 0.00286918 8.52447 0.463524L6.86712 5.56434C6.80018 5.77035 6.6082 5.90983 6.39159 5.90983L1.02828 5.90983C0.543914 5.90983 0.342527 6.52964 0.734384 6.81434L5.07339 9.96681C5.24864 10.0941 5.32197 10.3198 5.25503 10.5258L3.59767 15.6266C3.448 16.0873 3.97524 16.4704 4.36709 16.1857L8.70611 13.0332C8.88135 12.9059 9.11865 12.9059 9.29389 13.0332L13.6329 16.1857C14.0248 16.4704 14.552 16.0873 14.4023 15.6266L12.745 10.5258C12.678 10.3198 12.7514 10.0941 12.9266 9.96681L17.2656 6.81434C17.6575 6.52964 17.4561 5.90983 16.9717 5.90983L11.6084 5.90983C11.3918 5.90983 11.1998 5.77035 11.1329 5.56434L9.47553 0.463524Z" fill="#F8B90C"/>
</svg>
