<svg width="41" height="30" viewBox="0 0 41 30" fill="none" xmlns="http://www.w3.org/2000/svg">
<path d="M40.0854 0.000264816C39.8714 0.00510085 39.6667 0.0761491 39.5085 0.200426C39.3503 0.324704 39.2493 0.493912 39.2238 0.677131L37.9028 7.69643C32.8335 7.49087 30.2981 3.66992 30.1906 3.50466C29.8769 3.01211 28.9413 3.01211 28.6276 3.50466C28.6009 3.54616 25.8793 7.71594 20.4977 7.71594C15.1446 7.71594 12.4782 3.67448 12.3677 3.50466C12.0541 3.01211 11.1184 3.01211 10.8048 3.50466C10.7796 3.54505 8.19235 7.48553 3.09256 7.69643L1.77151 0.677131C1.74079 0.497977 1.63768 0.333934 1.48037 0.21394C1.32306 0.0939465 1.12166 0.0257127 0.911695 0.0212762C0.779838 0.0186648 0.648952 0.0413213 0.528479 0.0876113C0.408007 0.133901 0.300951 0.202671 0.215035 0.288959C0.129118 0.375247 0.0664832 0.476902 0.0316479 0.586592C-0.00318748 0.696281 -0.00935468 0.811271 0.0135911 0.923264L1.45647 8.59842C1.45699 8.60145 1.45591 8.60439 1.45647 8.60742L5.3587 29.3547C5.35943 29.3585 5.36312 29.3613 5.36392 29.3652C5.38072 29.4477 5.41306 29.5273 5.45965 29.6008C5.46462 29.6086 5.47005 29.6157 5.47531 29.6233C5.5233 29.6931 5.58381 29.7559 5.65459 29.8094C5.65632 29.8109 5.65806 29.8124 5.65981 29.8139C5.66371 29.8168 5.66803 29.8186 5.67199 29.8214C5.74687 29.8755 5.83154 29.9186 5.92263 29.949C5.92627 29.9502 5.9294 29.9523 5.93307 29.9535C6.03123 29.9843 6.13492 30.0001 6.2394 30H34.7559C34.8575 29.9992 34.9581 29.9835 35.0536 29.9535C35.0624 29.9508 35.071 29.9489 35.0797 29.946C35.17 29.9159 35.2541 29.8733 35.3286 29.8199C35.3303 29.8189 35.332 29.8179 35.3338 29.8169C35.336 29.8153 35.3368 29.8125 35.339 29.8109C35.4113 29.7567 35.473 29.6929 35.5218 29.6218C35.5262 29.6153 35.5297 29.6089 35.5339 29.6023C35.5838 29.5253 35.618 29.4416 35.6349 29.3547L39.5389 8.60742C39.5394 8.6044 39.5383 8.60144 39.5389 8.59842L40.9817 0.923264C41.0088 0.809884 41.0058 0.692703 40.9729 0.580469C40.9401 0.468235 40.8782 0.363849 40.7921 0.275104C40.7059 0.186358 40.5976 0.115547 40.4752 0.0679567C40.3528 0.0203664 40.2196 -0.0027735 40.0854 0.000264816Z" fill="#1849A9"/>
</svg>
