<svg width="44" height="37" viewBox="0 0 44 37" fill="none" xmlns="http://www.w3.org/2000/svg">
<path d="M39.6868 15.0656C39.3935 12.4335 39.2101 10.0939 38.8801 7.79075C38.4402 4.71994 36.2036 2.85552 32.9771 2.81896C28.0274 2.78241 23.041 2.81896 18.0912 2.81896C17.5412 2.81896 16.9546 2.92864 16.4413 2.74585C16.0013 2.59962 15.708 2.12438 15.3414 1.79536C15.708 1.42979 16.0013 0.991103 16.4046 0.77176C16.7346 0.588974 17.2113 0.698645 17.6146 0.698645C22.5643 0.698645 27.5507 0.625531 32.5005 0.735202C33.9671 0.77176 35.5437 1.10077 36.8636 1.72225C39.4301 2.92864 40.6767 5.23174 41.0067 7.97353C41.63 13.0915 42.18 18.2095 42.7666 23.3276C43.1333 26.4715 43.4999 29.6154 43.8299 32.7593C43.8666 33.2346 43.9766 33.7098 43.9766 34.1851C44.0866 36.0129 43.8666 36.2323 42.07 36.2688C41.7767 36.2688 41.52 36.2688 41.2267 36.2688C28.394 36.2688 15.598 36.2688 2.76533 36.2688C2.28869 36.2688 1.81205 36.3054 1.33541 36.2688C0.0888031 36.1591 -0.204515 35.6839 0.125468 34.4775C0.198797 34.2216 0.345457 33.9657 0.418786 33.7098C1.51873 30.968 2.61867 28.2262 3.71862 25.4844C6.35848 18.831 12.7382 14.8828 19.4111 15.0291C25.4242 15.1387 31.4005 15.0656 37.4136 15.0656C38.0735 15.0656 38.7702 15.0656 39.6868 15.0656ZM20.1444 27.422C21.0977 27.422 21.9777 26.4715 21.9044 25.521C21.831 24.6436 21.0244 23.8759 20.1078 23.8759C19.1545 23.8759 18.4212 24.6071 18.3845 25.5576C18.3479 26.5812 19.1545 27.422 20.1444 27.422ZM27.6974 27.422C28.614 27.4585 29.4206 26.7639 29.494 25.8135C29.5673 24.7899 28.834 23.9125 27.844 23.8759C26.9274 23.8394 26.1208 24.5705 26.0108 25.4844C25.9008 26.3984 26.7441 27.3489 27.6974 27.422Z" fill="#1849A9"/>
</svg>
