<svg width="43" height="33" viewBox="0 0 43 33" fill="none" xmlns="http://www.w3.org/2000/svg">
<path fill-rule="evenodd" clip-rule="evenodd" d="M21.4952 1.80642C19.6808 1.80642 18.0699 2.67637 17.0561 4.02572C16.7113 4.48459 16.4364 4.99809 16.2466 5.55051C16.0845 6.02226 15.5706 6.27326 15.0989 6.11113C14.6271 5.94901 14.3761 5.43515 14.5382 4.9634C14.7905 4.2293 15.1554 3.5482 15.6119 2.94065C16.9522 1.15671 19.0887 0 21.4952 0C25.5571 0 28.8499 3.29282 28.8499 7.35472C28.8499 9.47054 27.7051 11.2979 26.3367 12.7071C24.9587 14.1262 23.2555 15.2262 21.8991 15.9044C21.8892 15.9094 21.8791 15.9142 21.8689 15.9188L7.67562 22.3703C7.2215 22.5767 6.68603 22.3759 6.47962 21.9218C6.2732 21.4677 6.474 20.9322 6.92812 20.7258L21.106 14.2813C22.3277 13.6687 23.8429 12.6822 25.0407 11.4487C26.2528 10.2004 27.0435 8.80198 27.0435 7.35472C27.0435 4.29048 24.5594 1.80642 21.4952 1.80642Z" fill="#1849A9"/>
<path fill-rule="evenodd" clip-rule="evenodd" d="M21.5 14.7109L30.1892 17.839C31.663 18.3696 32.4651 18.6583 33.2087 19.0067C36.9167 20.7434 39.9098 23.7093 41.6805 27.4012C42.0355 28.1416 42.3316 28.941 42.8756 30.4098L42.8962 30.4654C42.8962 30.4654 42.8973 30.4684 42.8984 30.471C42.9107 30.5027 42.965 30.6428 42.9861 30.7817C43.0835 31.4254 42.6606 32.033 42.0231 32.1653C41.8855 32.1938 41.7352 32.1914 41.7013 32.1909C41.6985 32.1909 41.6953 32.1908 41.6953 32.1908H1.30471C1.30471 32.1908 1.30155 32.1909 1.29872 32.1909C1.26481 32.1914 1.11454 32.1938 0.976945 32.1653C0.339432 32.033 -0.0834593 31.4254 0.0139354 30.7817C0.0349559 30.6427 0.0893742 30.5026 0.101654 30.471C0.10268 30.4684 0.103805 30.4654 0.103805 30.4654L0.108482 30.4528L0.124346 30.41C0.668372 28.9411 0.964447 28.1417 1.31955 27.4012C3.09017 23.7093 6.08329 20.7434 9.79129 19.0067C10.5349 18.6583 11.337 18.3696 12.8108 17.8391L21.5 14.7109Z" fill="#1849A9"/>
</svg>
