<svg width="36" height="36" viewBox="0 0 36 36" fill="none" xmlns="http://www.w3.org/2000/svg">
<path d="M15 31.5C15 31.8978 15.158 32.2794 15.4393 32.5607C15.7206 32.842 16.1022 33 16.5 33H19.5C19.8978 33 20.2794 32.842 20.5607 32.5607C20.842 32.2794 21 31.8978 21 31.5C21 31.1022 20.842 30.7206 20.5607 30.4393C20.2794 30.158 19.8978 30 19.5 30V28.5C19.5 28.464 19.5 28.4295 19.497 28.395C21.2775 28.14 22.9155 27.438 24.291 26.4075L24.3645 26.4855L25.425 27.546C25.1518 27.8289 25.0006 28.2078 25.004 28.6011C25.0074 28.9944 25.1652 29.3706 25.4433 29.6487C25.7214 29.9268 26.0976 30.0846 26.4909 30.088C26.8842 30.0914 27.2631 29.9402 27.546 29.667L29.667 27.546C29.9402 27.2631 30.0914 26.8842 30.088 26.4909C30.0846 26.0976 29.9268 25.7214 29.6487 25.4433C29.3706 25.1652 28.9944 25.0074 28.6011 25.004C28.2078 25.0006 27.8289 25.1518 27.546 25.425L26.4855 24.3645C26.4603 24.3391 26.4343 24.3146 26.4075 24.291C27.4627 22.8856 28.1463 21.2367 28.395 19.497L28.5 19.5H30C30 19.8978 30.158 20.2794 30.4393 20.5607C30.7206 20.842 31.1022 21 31.5 21C31.8978 21 32.2794 20.842 32.5607 20.5607C32.842 20.2794 33 19.8978 33 19.5V16.5C33 16.1022 32.842 15.7206 32.5607 15.4393C32.2794 15.158 31.8978 15 31.5 15C31.1022 15 30.7206 15.158 30.4393 15.4393C30.158 15.7206 30 16.1022 30 16.5H28.5C28.464 16.5 28.4295 16.5 28.395 16.503C28.1463 14.7633 27.4627 13.1144 26.4075 11.709L26.4855 11.6355L27.546 10.575C27.6844 10.7183 27.8499 10.8325 28.0329 10.9112C28.2159 10.9898 28.4127 11.0311 28.6119 11.0329C28.8111 11.0346 29.0086 10.9967 29.1929 10.9212C29.3773 10.8458 29.5448 10.7344 29.6856 10.5936C29.8264 10.4528 29.9378 10.2853 30.0132 10.1009C30.0887 9.91659 30.1266 9.71907 30.1249 9.5199C30.1231 9.32073 30.0818 9.1239 30.0032 8.9409C29.9245 8.75789 29.8103 8.59237 29.667 8.454L27.546 6.333C27.2631 6.05976 26.8842 5.90857 26.4909 5.91199C26.0976 5.91541 25.7214 6.07316 25.4433 6.35127C25.1652 6.62938 25.0074 7.0056 25.004 7.3989C25.0006 7.79219 25.1518 8.1711 25.425 8.454L24.3645 9.5145C24.3391 9.53964 24.3146 9.56565 24.291 9.5925C22.8856 8.53733 21.2367 7.85374 19.497 7.605L19.5 7.5V6C19.8978 6 20.2794 5.84197 20.5607 5.56066C20.842 5.27936 21 4.89783 21 4.5C21 4.10217 20.842 3.72064 20.5607 3.43934C20.2794 3.15803 19.8978 3 19.5 3H16.5C16.1022 3 15.7206 3.15803 15.4393 3.43934C15.158 3.72064 15 4.10217 15 4.5C15 4.89783 15.158 5.27936 15.4393 5.56066C15.7206 5.84197 16.1022 6 16.5 6V7.5C16.5 7.536 16.5 7.5705 16.503 7.605C14.7633 7.85374 13.1144 8.53733 11.709 9.5925C11.6854 9.56563 11.6609 9.53962 11.6355 9.5145L10.575 8.454C10.7183 8.31563 10.8325 8.15011 10.9112 7.96711C10.9898 7.7841 11.0311 7.58727 11.0329 7.3881C11.0346 7.18893 10.9967 6.99141 10.9212 6.80707C10.8458 6.62272 10.7344 6.45525 10.5936 6.31441C10.4528 6.17357 10.2853 6.06219 10.1009 5.98677C9.91659 5.91135 9.71907 5.87339 9.5199 5.87513C9.32073 5.87686 9.1239 5.91823 8.94089 5.99685C8.75789 6.07546 8.59237 6.18974 8.454 6.333L6.333 8.454C6.18973 8.59237 6.07546 8.75789 5.99685 8.9409C5.91823 9.1239 5.87685 9.32073 5.87512 9.5199C5.87339 9.71907 5.91135 9.91659 5.98677 10.1009C6.06219 10.2853 6.17357 10.4528 6.31441 10.5936C6.45525 10.7344 6.62272 10.8458 6.80707 10.9212C6.99141 10.9967 7.18893 11.0346 7.3881 11.0329C7.58727 11.0311 7.7841 10.9898 7.96711 10.9112C8.15011 10.8325 8.31563 10.7183 8.454 10.575L9.5145 11.6355C9.53961 11.6609 9.56563 11.6854 9.5925 11.709C8.53781 13.1145 7.85474 14.7634 7.6065 16.503C7.57105 16.5008 7.53552 16.4998 7.5 16.5H6C6 16.1022 5.84196 15.7206 5.56066 15.4393C5.27936 15.158 4.89782 15 4.5 15C4.10218 15 3.72064 15.158 3.43934 15.4393C3.15804 15.7206 3 16.1022 3 16.5V19.5C3 19.8978 3.15804 20.2794 3.43934 20.5607C3.72064 20.842 4.10218 21 4.5 21C4.89782 21 5.27936 20.842 5.56066 20.5607C5.84196 20.2794 6 19.8978 6 19.5H7.5C7.536 19.5 7.5705 19.5 7.605 19.497C7.85368 21.2367 8.53728 22.8856 9.5925 24.291C9.56564 24.3146 9.53963 24.3391 9.5145 24.3645L8.454 25.425C8.31563 25.2817 8.15011 25.1675 7.96711 25.0888C7.7841 25.0102 7.58727 24.9689 7.3881 24.9671C7.18893 24.9654 6.99141 25.0033 6.80707 25.0788C6.62272 25.1542 6.45525 25.2656 6.31441 25.4064C6.17357 25.5472 6.06219 25.7147 5.98677 25.8991C5.91135 26.0834 5.87339 26.2809 5.87512 26.4801C5.87685 26.6793 5.91823 26.8761 5.99685 27.0591C6.07546 27.2421 6.18973 27.4076 6.333 27.546L8.454 29.667C8.59237 29.8103 8.75789 29.9245 8.94089 30.0032C9.1239 30.0818 9.32073 30.1231 9.5199 30.1249C9.71907 30.1266 9.91659 30.0887 10.1009 30.0132C10.2853 29.9378 10.4528 29.8264 10.5936 29.6856C10.7344 29.5448 10.8458 29.3773 10.9212 29.1929C10.9967 29.0086 11.0346 28.8111 11.0329 28.6119C11.0311 28.4127 10.9898 28.2159 10.9112 28.0329C10.8325 27.8499 10.7183 27.6844 10.575 27.546L11.6355 26.4855L11.709 26.4075C13.1145 27.4622 14.7634 28.1453 16.503 28.3935C16.5008 28.429 16.4998 28.4645 16.5 28.5V30C16.1022 30 15.7206 30.158 15.4393 30.4393C15.158 30.7206 15 31.1022 15 31.5Z" fill="#1849A9"/>
</svg>
